{
.appVersion = "3434";
.formatVersion = 3;
DisplayStrings = (
"файл готов"
);
axes = (
{
name = Weight;
tag = wght;
}
);
classes = (
{
automatic = 1;

glyphs = (
{
glyphname = .notdef;
lastChange = "2026-02-05 15:46:32 +0000";
layers = (
{
background = {
shapes = (
{
closed = 1;
nodes = (
(800,0,l),
(800,163,l),
(794,156,o),
(776,143,o),
(750,143,c),
(713,143,o),
(689,166,o),
(689,198,c),
(722,198,l),
(722,185,o),
(730,173,o),
(750,173,c),
(762,173,o),
(778,176,o),
(778,194,c),
(778,225,o),
(690,208,o),
(690,267,c),
(690,293,o),
(712,316,o),
(750,316,c),
(773,316,o),
(792,306,o),
(800,289,c),
(800,380,l),
(690,380,l),
(690,550,l),
(800,550,l),
(800,700,l),
(100,700,l),
(100,543,l),
(131,440,l),
(166,550,l),
(185,550,l),
(220,440,l),
(254,550,l),
(286,550,l),
(232,380,l),
(209,380,l),
(176,486,l),
(142,380,l),
(119,380,l),
(100,441,l),
(100,315,l),
(228,315,l),
(228,284,l),
(178,284,l),
(178,145,l),
(145,145,l),
(145,284,l),
(100,284,l),
(100,0,l)
);
},
{
closed = 1;
nodes = (
(278,143,o),
(246,181,o),
(246,229,c),
(246,278,o),
(279,316,o),
(328,316,c),
(377,316,o),
(410,278,o),
(410,229,c),
(410,181,o),
(378,143,o),
(328,143,c)
);
},
{
closed = 1;
nodes = (
(358,174,o),
(379,198,o),
(379,229,c),
(379,261,o),
(360,285,o),
(328,285,c),
(296,285,o),
(277,261,o),
(277,229,c),
(277,198,o),
(298,174,o),
(328,174,c)
);
},
{
closed = 1;
nodes = (
(547,143,o),
(517,171,o),
(517,209,c),
(517,315,l),
(549,315,l),
(549,209,l),
(549,192,o),
(561,174,o),
(585,174,c),
(607,174,o),
(620,189,o),
(620,209,c),
(620,315,l),
(652,315,l),
(652,209,l),
(652,171,o),
(623,143,o),
(585,143,c)
);
},
{
closed = 1;
nodes = (
(311,550,l),
(379,550,l),
(414,550,o),
(436,525,o),
(436,497,c),
(436,475,o),
(424,458,o),
(400,447,c),
(440,380,l),
(403,380,l),
(368,442,l),
(344,442,l),
(344,380,l),
(311,380,l)
);
},
{
closed = 1;
nodes = (
(379,473,l),
(389,473,o),
(403,479,o),
(403,496,c),
(403,510,o),
(392,519,o),
(379,519,c),
(344,519,l),
(344,473,l)
);
},
{
closed = 1;
nodes = (
(469,550,l),
(502,550,l),
(502,380,l),
(469,380,l)
);
},
{
closed = 1;
nodes = (
(800,262,l),
(776,262,l),
(776,278,o),
(763,287,o),
(750,287,c),
(736,287,o),
(724,279,o),
(724,267,c),
(724,245,o),
(772,250,o),
(800,224,c)
);
},
{
closed = 1;
nodes = (
(580,519,l),
(530,519,l),
(530,550,l),
(662,550,l),
(662,519,l),
(612,519,l),
(612,380,l),
(580,380,l)
);
},
{
closed = 1;
nodes = (
(800,411,l),
(800,452,l),
(722,452,l),
(722,411,l)
);
},
{
closed = 1;
nodes = (
(800,483,l),
(800,519,l),
(722,519,l),
(722,483,l)
);
}
);
};
layerId = "C7A94C11-E66D-4F8C-9A39-C72274EB09D4";
shapes = (
{
closed = 1;
nodes = (
(800,0,l),
(800,163,l),
(794,156,o),
(776,143,o),
(750,143,cs),
(713,143,o),
(689,166,o),
(689,198,c),
(722,198,l),
(722,185,o),
(730,173,o),
(750,173,cs),
(762,173,o),
(778,176,o),
(778,194,cs),
(778,225,o),
(690,208,o),
(690,267,cs),
(690,293,o),
(712,316,o),
(750,316,cs),
(773,316,o),
(792,306,o),
(800,289,c),
(800,380,l),
(690,380,l),
(690,550,l),
(800,550,l),
(800,700,l),
(100,700,l),
(100,543,l),
(131,440,l),
(166,550,l),
(185,550,l),
(220,440,l),
(254,550,l),
(286,550,l),
(232,380,l),
(209,380,l),
(176,486,l),
(142,380,l),
(119,380,l),
(100,441,l),
(100,315,l),
(228,315,l),
(228,284,l),
(178,284,l),
(178,145,l),
(145,145,l),
(145,284,l),
(100,284,l),
(100,0,l)
);
},
{
closed = 1;
nodes = (
(278,143,o),
(246,181,o),
(246,229,cs),
(246,278,o),
(279,316,o),
(328,316,cs),
(377,316,o),
(410,278,o),
(410,229,cs),
(410,181,o),
(378,143,o),
(328,143,cs)
);
},
{
closed = 1;
nodes = (
(358,174,o),
(379,198,o),
(379,229,cs),
(379,261,o),
(360,285,o),
(328,285,cs),
(296,285,o),
(277,261,o),
(277,229,cs),
(277,198,o),
(298,174,o),
(328,174,cs)
);
},
{
closed = 1;
nodes = (
(547,143,o),
(517,171,o),
(517,209,cs),
(517,315,l),
(549,315,l),
(549,209,ls),
(549,192,o),
(561,174,o),
(585,174,cs),
(607,174,o),
(620,189,o),
(620,209,cs),
(620,315,l),
(652,315,l),
(652,209,ls),
(652,171,o),
(623,143,o),
(585,143,cs)
);
},
{
closed = 1;
nodes = (
(311,550,l),
(379,550,ls),
(414,550,o),
(436,525,o),
(436,497,cs),
(436,475,o),
(424,458,o),
(400,447,c),
(440,380,l),
(403,380,l),
(368,442,l),
(344,442,l),
(344,380,l),
(311,380,l)
);
},
{
closed = 1;
nodes = (
(379,473,ls),
(389,473,o),
(403,479,o),
(403,496,cs),
(403,510,o),
(392,519,o),
(379,519,cs),
(344,519,l),
(344,473,l)
);
},
{
closed = 1;
nodes = (
(469,550,l),
(502,550,l),
(502,380,l),
(469,380,l)
);
},
{
closed = 1;
nodes = (
(800,262,l),
(776,262,l),
(776,278,o),
(763,287,o),
(750,287,cs),
(736,287,o),
(724,279,o),
(724,267,cs),
(724,245,o),
(772,250,o),
(800,224,c)
);
},
{
closed = 1;
nodes = (
(580,519,l),
(530,519,l),
(530,550,l),
(662,550,l),
(662,519,l),
(612,519,l),
(612,380,l),
(580,380,l)
);
},
{
closed = 1;
nodes = (
(800,411,l),
(800,452,l),
(722,452,l),
(722,411,l)
);
},
{
closed = 1;
nodes = (
(800,483,l),
(800,519,l),
(722,519,l),
(722,483,l)
);
}
);
width = 900;
},
{
layerId = "80E8E332-7B59-4055-8C08-04349B956208";
shapes = (
{
closed = 1;
nodes = (
(800,0,l),
(800,163,l),
(794,156,o),
(776,143,o),
(750,143,cs),
(713,143,o),
(689,166,o),
(689,198,c),
(722,198,l),
(722,185,o),
(730,173,o),
(750,173,cs),
(762,173,o),
(778,176,o),
(778,194,cs),
(778,225,o),
(690,208,o),
(690,267,cs),
(690,293,o),
(712,316,o),
(750,316,cs),
(773,316,o),
(792,306,o),
(800,289,c),
(800,380,l),
(690,380,l),
(690,550,l),
(800,550,l),
(800,700,l),
(100,700,l),
(100,543,l),
(131,440,l),
(166,550,l),
(185,550,l),
(220,440,l),
(254,550,l),
(286,550,l),
(232,380,l),
(209,380,l),
(176,486,l),
(142,380,l),
(119,380,l),
(100,441,l),
(100,315,l),
(228,315,l),
(228,284,l),
(178,284,l),
(178,145,l),
(145,145,l),
(145,284,l),
(100,284,l),
(100,0,l)
);
},
{
closed = 1;
nodes = (
(278,143,o),
(246,181,o),
(246,229,cs),
(246,278,o),
(279,316,o),
(328,316,cs),
(377,316,o),
(410,278,o),
(410,229,cs),
(410,181,o),
(378,143,o),
(328,143,cs)
);
},
{
closed = 1;
nodes = (
(358,174,o),
(379,198,o),
(379,229,cs),
(379,261,o),
(360,285,o),
(328,285,cs),
(296,285,o),
(277,261,o),
(277,229,cs),
(277,198,o),
(298,174,o),
(328,174,cs)
);
},
{
closed = 1;
nodes = (
(547,143,o),
(517,171,o),
(517,209,cs),
(517,315,l),
(549,315,l),
(549,209,ls),
(549,192,o),
(561,174,o),
(585,174,cs),
(607,174,o),
(620,189,o),
(620,209,cs),
(620,315,l),
(652,315,l),
(652,209,ls),
(652,171,o),
(623,143,o),
(585,143,cs)
);
},
{
closed = 1;
nodes = (
(311,550,l),
(379,550,ls),
(414,550,o),
(436,525,o),
(436,497,cs),
(436,475,o),
(424,458,o),
(400,447,c),
(440,380,l),
(403,380,l),
(368,442,l),
(344,442,l),
(344,380,l),
(311,380,l)
);
},
{
closed = 1;
nodes = (
(379,473,ls),
(389,473,o),
(403,479,o),
(403,496,cs),
(403,510,o),
(392,519,o),
(379,519,cs),
(344,519,l),
(344,473,l)
);
},
{
closed = 1;
nodes = (
(469,550,l),
(502,550,l),
(502,380,l),
(469,380,l)
);
},
{
closed = 1;
nodes = (
(800,262,l),
(776,262,l),
(776,278,o),
(763,287,o),
(750,287,cs),
(736,287,o),
(724,279,o),
(724,267,cs),
(724,245,o),
(772,250,o),
(800,224,c)
);
},
{
closed = 1;
nodes = (
(580,519,l),
(530,519,l),
(530,550,l),
(662,550,l),
(662,519,l),
(612,519,l),
(612,380,l),
(580,380,l)
);
},
{
closed = 1;
nodes = (
(800,411,l),
(800,452,l),
(722,452,l),
(722,411,l)
);
},
{
closed = 1;
nodes = (
(800,483,l),
(800,519,l),
(722,519,l),
(722,483,l)
);
}
);
width = 900;
},
{
layerId = "66E383AE-0324-482F-BA05-BB2335E2BE22";
shapes = (
{
closed = 1;
nodes = (
(800,0,l),
(800,163,l),
(794,156,o),
(776,143,o),
(750,143,cs),
(713,143,o),
(689,166,o),
(689,198,c),
(722,198,l),
(722,185,o),
(730,173,o),
(750,173,cs),
(762,173,o),
(778,176,o),
(778,194,cs),
(778,225,o),
(690,208,o),
(690,267,cs),
(690,293,o),
(712,316,o),
(750,316,cs),
(773,316,o),
(792,306,o),
(800,289,c),
(800,380,l),
(690,380,l),
(690,550,l),
(800,550,l),
(800,700,l),
(100,700,l),
(100,543,l),
(131,440,l),
(166,550,l),
(185,550,l),
(220,440,l),
(254,550,l),
(286,550,l),
(232,380,l),
(209,380,l),
(176,486,l),
(142,380,l),
(119,380,l),
(100,441,l),
(100,315,l),
(228,315,l),
(228,284,l),
(178,284,l),
(178,145,l),
(145,145,l),
(145,284,l),
(100,284,l),
(100,0,l)
);
},
{
closed = 1;
nodes = (
(278,143,o),
(246,181,o),
(246,229,cs),
(246,278,o),
(279,316,o),
(328,316,cs),
(377,316,o),
(410,278,o),
(410,229,cs),
(410,181,o),
(378,143,o),
(328,143,cs)
);
},
{
closed = 1;
nodes = (
(358,174,o),
(379,198,o),
(379,229,cs),
(379,261,o),
(360,285,o),
(328,285,cs),
(296,285,o),
(277,261,o),
(277,229,cs),
(277,198,o),
(298,174,o),
(328,174,cs)
);
},
{
closed = 1;
nodes = (
(547,143,o),
(517,171,o),
(517,209,cs),
(517,315,l),
(549,315,l),
(549,209,ls),
(549,192,o),
(561,174,o),
(585,174,cs),
(607,174,o),
(620,189,o),
(620,209,cs),
(620,315,l),
(652,315,l),
(652,209,ls),
(652,171,o),
(623,143,o),
(585,143,cs)
);
},
{
closed = 1;
nodes = (
(311,550,l),
(379,550,ls),
(414,550,o),
(436,525,o),
(436,497,cs),
(436,475,o),
(424,458,o),
(400,447,c),
(440,380,l),
(403,380,l),
(368,442,l),
(344,442,l),
(344,380,l),
(311,380,l)
);
},
{
closed = 1;
nodes = (
(379,473,ls),
(389,473,o),
(403,479,o),
(403,496,cs),
(403,510,o),
(392,519,o),
(379,519,cs),
(344,519,l),
(344,473,l)
);
},
{
closed = 1;
nodes = (
(469,550,l),
(502,550,l),
(502,380,l),
(469,380,l)
);
},
{
closed = 1;
nodes = (
(800,262,l),
(776,262,l),
(776,278,o),
(763,287,o),
(750,287,cs),
(736,287,o),
(724,279,o),
(724,267,cs),
(724,245,o),
(772,250,o),
(800,224,c)
);
},
{
closed = 1;
nodes = (
(580,519,l),
(530,519,l),
(530,550,l),
(662,550,l),
(662,519,l),
(612,519,l),
(612,380,l),
(580,380,l)
);
},
{
closed = 1;
nodes = (
(800,411,l),
(800,452,l),
(722,452,l),
(722,411,l)
);
},
{
closed = 1;
nodes = (
(800,483,l),
(800,519,l),
(722,519,l),
(722,483,l)
);
}
);
width = 900;
}
);
metricLeft = "=100";
metricRight = "=100";
metricWidth = "=900";
},
{
color = 10;
glyphname = period;
kernLeft = period;
kernRight = period;
lastChange = "2026-02-08 09:03:26 +0000";
layers = (
{
anchors = (
{
name = "#entry";
pos = (-35,0);
},
{
name = "#exit";
pos = (225,0);
},
{
name = _connect;
pos = (95,-231);
},
{
name = _dot;
pos = (95,35);
},
{
name = connect;
pos = (95,159);
}
);
background = {
anchors = (
{
name = "#entry";
pos = (-35,0);
},
{
name = "#exit";
pos = (225,0);
},
{
name = _connect;
pos = (95,-231);
},
{
name = _dot;
pos = (95,35);
},
{
name = connect;
pos = (95,159);
}
);
shapes = (
{
closed = 1;
nodes = (
(117,-5,o),
(135,13,o),
(135,35,cs),
(135,57,o),
(117,75,o),
(95,75,cs),
(73,75,o),
(55,57,o),
(55,35,cs),
(55,13,o),
(73,-5,o),
(95,-5,cs)
);
}
);
};
color = 10;
layerId = "C7A94C11-E66D-4F8C-9A39-C72274EB09D4";
metricLeft = "=55";
shapes = (
{
closed = 1;
nodes = (
(117,-5,o),
(135,13,o),
(135,35,cs),
(135,57,o),
(117,75,o),
(95,75,cs),
(73,75,o),
(55,57,o),
(55,35,cs),
(55,13,o),
(73,-5,o),
(95,-5,cs)
);
}
);
width = 190;
},
{
anchors = (
{
name = "#entry";
pos = (-25,0);
},
{
name = "#exit";
pos = (235,0);
},
{
name = _connect;
pos = (105,-231);
},
{
name = _dot;
pos = (105,45);
},
{
name = connect;
pos = (105,144);
}
);
background = {
anchors = (
{
name = "#entry";
pos = (-25,0);
},
{
name = "#exit";
pos = (235,0);
},
{
name = _connect;
pos = (105,-231);
},
{
name = _dot;
pos = (105,45);
},
{
name = connect;
pos = (105,144);
}
);
shapes = (
{
closed = 1;
nodes = (
(136,-10,o),
(160,13,o),
(160,45,cs),
(160,77,o),
(136,100,o),
(105,100,cs),
(74,100,o),
(50,77,o),
(50,45,cs),
(50,13,o),
(74,-10,o),
(105,-10,cs)
);
}
);
};
layerId = "80E8E332-7B59-4055-8C08-04349B956208";
metricLeft = "=50";
shapes = (
{
closed = 1;
nodes = (
(136,-10,o),
(160,13,o),
(160,45,cs),
(160,77,o),
(136,100,o),
(105,100,cs),
(74,100,o),
(50,77,o),
(50,45,cs),
(50,13,o),
(74,-10,o),
(105,-10,cs)
);
}
);
width = 210;
},
{
anchors = (
{
name = "#entry";
pos = (-7,0);
},
{
name = "#exit";
pos = (283,0);
},
{
name = _connect;
pos = (138,-131);
},
{
name = _dot;
pos = (138,91);
},
{
name = connect;
pos = (138,192);
}
);
background = {
anchors = (
{
name = "#entry";
pos = (-7,0);
},
{
name = "#exit";
pos = (283,0);
},
{
name = _connect;
pos = (138,-131);
},
{
name = _dot;
pos = (138,91);
},
{
name = connect;
pos = (138,192);
}
);
shapes = (
{
closed = 1;
nodes = (
(196,-10,o),
(241,33,o),
(241,91,cs),
(241,149,o),
(196,192,o),
(138,192,cs),
(80,192,o),
(35,149,o),
(35,91,cs),
(35,33,o),
(80,-10,o),
(138,-10,cs)
);
}
);
};
layerId = "66E383AE-0324-482F-BA05-BB2335E2BE22";
metricLeft = "=35";
shapes = (
{
closed = 1;
nodes = (
(196,-10,o),
(241,33,o),
(241,91,cs),
(241,149,o),
(196,192,o),
(138,192,cs),
(80,192,o),
(35,149,o),
(35,91,cs),
(35,33,o),
(80,-10,o),
(138,-10,cs)
);
}
);
width = 276;
}
);
metricRight = "=|";
unicode = 46;
},
{
color = 10;
glyphname = comma;
kernLeft = comma;
kernRight = comma;
lastChange = "2026-02-08 10:20:29 +0000";
layers = (
{
anchors = (
{
name = "#entry";
},
{
name = "#exit";
pos = (165,0);
},
{
name = connect;
pos = (105,159);
}
);
background = {
anchors = (
{
name = "#entry";
},
{
name = "#exit";
pos = (165,0);
},
{
name = connect;
pos = (105,159);
}
);
shapes = (
{
closed = 1;
nodes = (
(36,-110,l),
(127,90,l),
(72,90,l),
(10,-110,l)
);
}
);
};
color = 10;
layerId = "C7A94C11-E66D-4F8C-9A39-C72274EB09D4";
metricLeft = "=10";
metricRight = "=63";
shapes = (
{
closed = 1;
nodes = (
(36,-110,l),
(127,90,l),
(72,90,l),
(10,-110,l)
);
}
);
width = 190;
},
{
anchors = (
{
name = "#entry";
pos = (-6,0);
},
{
name = "#exit";
pos = (159,0);
},
{
name = connect;
pos = (104,144);
}
);
background = {
anchors = (
{
name = "#entry";
pos = (-6,0);
},
{
name = "#exit";
pos = (159,0);
},
{
name = connect;
pos = (104,144);
}
);
shapes = (
{
closed = 1;
nodes = (
(51,-130,l),
(161,90,l),
(66,90,l),
(-5,-130,l)
);
}
);
};
layerId = "80E8E332-7B59-4055-8C08-04349B956208";
metricLeft = "=-5";
metricRight = "=48";
shapes = (
{
closed = 1;
nodes = (
(51,-130,l),
(161,90,l),
(66,90,l),
(-5,-130,l)
);
}
);
width = 209;
},
{
anchors = (
{
name = "#entry";
pos = (-27,0);
},
{
name = "#exit";
pos = (268,0);
},
{
name = connect;
pos = (164,192);
}
);
background = {
anchors = (
{
name = "#entry";
pos = (-27,0);
},
{
name = "#exit";
pos = (268,0);
},
{
name = connect;
pos = (164,192);
}
);
shapes = (
{
closed = 1;
nodes = (
(151,-130,l),
(294,180,l),
(74,180,l),
(-25,-130,l)
);
}
);
};
layerId = "66E383AE-0324-482F-BA05-BB2335E2BE22";
metricLeft = "=-25";
metricRight = "=28";
shapes = (
{
closed = 1;
nodes = (
(151,-130,l),
(294,180,l),
(74,180,l),
(-25,-130,l)
);
}
);
width = 322;
}
);
unicode = 44;
},
{
color = 10;
glyphname = colon;
kernLeft = colon;
kernRight = colon;
lastChange = "2026-02-06 14:44:59 +0000";
layers = (
{
background = {
anchors = (
{
name = "#entry";
pos = (-35,0);
},
{
name = "#exit";
pos = (225,0);
},
{
name = _dot;
pos = (95,34);
},
{
name = connect;
pos = (95,159);
}
);
shapes = (
{
closed = 1;
nodes = (
(117,-5,o),
(135,13,o),
(135,35,cs),
(135,57,o),
(117,75,o),
(95,75,cs),
(73,75,o),
(55,57,o),
(55,35,cs),
(55,13,o),
(73,-5,o),
(95,-5,cs)
);
},
{
closed = 1;
nodes = (
(117,385,o),
(135,403,o),
(135,425,cs),
(135,447,o),
(117,465,o),
(95,465,cs),
(73,465,o),
(55,447,o),
(55,425,cs),
(55,403,o),
(73,385,o),
(95,385,cs)
);
}
);
};
color = 10;
layerId = "C7A94C11-E66D-4F8C-9A39-C72274EB09D4";
metricLeft = "=55";
shapes = (
{
closed = 1;
nodes = (
(117,-5,o),
(135,13,o),
(135,35,cs),
(135,57,o),
(117,75,o),
(95,75,cs),
(73,75,o),
(55,57,o),
(55,35,cs),
(55,13,o),
(73,-5,o),
(95,-5,cs)
);
},
{
closed = 1;
nodes = (
(117,385,o),
(135,403,o),
(135,425,cs),
(135,447,o),
(117,465,o),
(95,465,cs),
(73,465,o),
(55,447,o),
(55,425,cs),
(55,403,o),
(73,385,o),
(95,385,cs)
);
}
);
width = 190;
},
{
background = {
shapes = (
{
ref = period;
},
{
anchor = connect;
pos = (0,375);
ref = period;
}
);
};
layerId = "80E8E332-7B59-4055-8C08-04349B956208";
metricLeft = "=50";
shapes = (
{
closed = 1;
nodes = (
(136,-10,o),
(160,13,o),
(160,45,cs),
(160,77,o),
(136,100,o),
(105,100,cs),
(74,100,o),
(50,77,o),
(50,45,cs),
(50,13,o),
(74,-10,o),
(105,-10,cs)
);
},
{
closed = 1;
nodes = (
(136,365,o),
(160,388,o),
(160,420,cs),
(160,452,o),
(136,475,o),
(105,475,cs),
(74,475,o),
(50,452,o),
(50,420,cs),
(50,388,o),
(74,365,o),
(105,365,cs)
);
}
);
width = 210;
},
{
background = {
shapes = (
{
pos = (5,0);
ref = period;
},
{
anchor = connect;
pos = (5,323);
ref = period;
}
);
};
layerId = "66E383AE-0324-482F-BA05-BB2335E2BE22";
metricLeft = "=40";
shapes = (
{
closed = 1;
nodes = (
(201,-10,o),
(246,33,o),
(246,91,cs),
(246,149,o),
(201,192,o),
(143,192,cs),
(85,192,o),
(40,149,o),
(40,91,cs),
(40,33,o),
(85,-10,o),
(143,-10,cs)
);
},
{
closed = 1;
nodes = (
(201,313,o),
(246,356,o),
(246,414,cs),
(246,472,o),
(201,515,o),
(143,515,cs),
(85,515,o),
(40,472,o),
(40,414,cs),
(40,356,o),
(85,313,o),
(143,313,cs)
);
}
);
width = 286;
}
);
metricRight = "=|";
unicode = 58;
},
{
color = 10;
glyphname = semicolon;
kernLeft = colon;
kernRight = colon;
lastChange = "2026-02-08 10:24:21 +0000";
layers = (
{
background = {
anchors = (
{
name = "#entry";
pos = (-10,0);
},
{
name = "#exit";
pos = (155,0);
},
{
name = _dot;
pos = (95,424);
},
{
name = connect;
pos = (95,159);
}
);
shapes = (
{
closed = 1;
nodes = (
(26,-110,l),
(117,90,l),
(62,90,l),
(0,-110,l)
);
},
{
closed = 1;
nodes = (
(117,385,o),
(135,403,o),
(135,425,cs),
(135,447,o),
(117,465,o),
(95,465,cs),
(73,465,o),
(55,447,o),
(55,425,cs),
(55,403,o),
(73,385,o),
(95,385,cs)
);
}
);
};
color = 10;
layerId = "C7A94C11-E66D-4F8C-9A39-C72274EB09D4";
metricLeft = "=0";
shapes = (
{
closed = 1;
nodes = (
(26,-110,l),
(117,90,l),
(62,90,l),
(0,-110,l)
);
},
{
closed = 1;
nodes = (
(117,385,o),
(135,403,o),
(135,425,cs),
(135,447,o),
(117,465,o),
(95,465,cs),
(73,465,o),
(55,447,o),
(55,425,cs),
(55,403,o),
(73,385,o),
(95,385,cs)
);
}
);
width = 190;
},
{
background = {
shapes = (
{
ref = comma;
},
{
anchor = connect;
pos = (0,375);
ref = period;
}
);
};
layerId = "80E8E332-7B59-4055-8C08-04349B956208";
metricLeft = "=-5";
shapes = (
{
closed = 1;
nodes = (
(51,-130,l),
(161,90,l),
(66,90,l),
(-5,-130,l)
);
},
{
closed = 1;
nodes = (
(135,365,o),
(159,388,o),
(159,420,cs),
(159,452,o),
(135,475,o),
(104,475,cs),
(73,475,o),
(49,452,o),
(49,420,cs),
(49,388,o),
(73,365,o),
(104,365,cs)
);
}
);
width = 209;
},
{
background = {
shapes = (
{
ref = comma;
},
{
anchor = connect;
pos = (28,323);
ref = period;
}
);
};
layerId = "66E383AE-0324-482F-BA05-BB2335E2BE22";
metricLeft = "=-25";
shapes = (
{
closed = 1;
nodes = (
(151,-130,l),
(294,180,l),
(74,180,l),
(-25,-130,l)
);
},
{
closed = 1;
nodes = (
(222,313,o),
(267,356,o),
(267,414,cs),
(267,472,o),
(222,515,o),
(164,515,cs),
(106,515,o),
(61,472,o),
(61,414,cs),
(61,356,o),
(106,313,o),
(164,313,cs)
);
}
);
width = 322;
}
);
metricWidth = comma;
unicode = 59;
},
{
color = 10;
glyphname = exclam;
kernLeft = exclam;
kernRight = exclam;
lastChange = "2026-02-06 14:48:15 +0000";
layers = (
{
background = {
shapes = (
{
closed = 1;
nodes = (
(174,190,l),
(176,700,l),
(144,700,l),
(146,190,l)
);
},
{
closed = 1;
nodes = (
(182,-5,o),
(200,13,o),
(200,35,cs),
(200,57,o),
(182,75,o),
(160,75,cs),
(138,75,o),
(120,57,o),
(120,35,cs),
(120,13,o),
(138,-5,o),
(160,-5,cs)
);
}
);
};
color = 10;
layerId = "C7A94C11-E66D-4F8C-9A39-C72274EB09D4";
metricLeft = "=120";
shapes = (
{
closed = 1;
nodes = (
(174,190,l),
(176,700,l),
(144,700,l),
(146,190,l)
);
},
{
closed = 1;
nodes = (
(182,-5,o),
(200,13,o),
(200,35,cs),
(200,57,o),
(182,75,o),
(160,75,cs),
(138,75,o),
(120,57,o),
(120,35,cs),
(120,13,o),
(138,-5,o),
(160,-5,cs)
);
}
);
width = 320;
},
{
background = {
shapes = (
{
closed = 1;
nodes = (
(190,190,l),
(210,700,l),
(120,700,l),
(140,190,l)
);
},
{
closed = 1;
nodes = (
(196,-10,o),
(220,13,o),
(220,45,cs),
(220,77,o),
(196,100,o),
(165,100,cs),
(134,100,o),
(110,77,o),
(110,45,cs),
(110,13,o),
(134,-10,o),
(165,-10,cs)
);
}
);
};
layerId = "80E8E332-7B59-4055-8C08-04349B956208";
metricLeft = "=110";
shapes = (
{
closed = 1;
nodes = (
(190,190,l),
(210,700,l),
(120,700,l),
(140,190,l)
);
},
{
closed = 1;
nodes = (
(196,-10,o),
(220,13,o),
(220,45,cs),
(220,77,o),
(196,100,o),
(165,100,cs),
(134,100,o),
(110,77,o),
(110,45,cs),
(110,13,o),
(134,-10,o),
(165,-10,cs)
);
}
);
width = 330;
},
{
background = {
shapes = (
{
closed = 1;
nodes = (
(295,250,l),
(320,700,l),
(90,700,l),
(115,250,l)
);
},
{
closed = 1;
nodes = (
(263,-10,o),
(308,33,o),
(308,91,cs),
(308,149,o),
(263,192,o),
(205,192,cs),
(147,192,o),
(102,149,o),
(102,91,cs),
(102,33,o),
(147,-10,o),
(205,-10,cs)
);
}
);
};
layerId = "66E383AE-0324-482F-BA05-BB2335E2BE22";
metricLeft = "=90";
shapes = (
{
closed = 1;
nodes = (
(295,250,l),
(320,700,l),
(90,700,l),
(115,250,l)
);
},
{
closed = 1;
nodes = (
(263,-10,o),
(308,33,o),
(308,91,cs),
(308,149,o),
(263,192,o),
(205,192,cs),
(147,192,o),
(102,149,o),
(102,91,cs),
(102,33,o),
(147,-10,o),
(205,-10,cs)
);
}
);
width = 410;
}
);
metricRight = "=|";
unicode = 33;
},
{
color = 10;
glyphname = exclamdown;
kernLeft = exclamdown;
kernRight = exclamdown;
lastChange = "2026-02-06 14:49:21 +0000";
layers = (
{
background = {
shapes = (
{
closed = 1;
nodes = (
(176,-220,l),
(174,290,l),
(146,290,l),
(144,-220,l)
);
},
{
closed = 1;
nodes = (
(182,405,o),
(200,423,o),
(200,445,cs),
(200,467,o),
(182,485,o),
(160,485,cs),
(138,485,o),
(120,467,o),
(120,445,cs),
(120,423,o),
(138,405,o),
(160,405,cs)
);
}
);
};
color = 10;
layerId = "C7A94C11-E66D-4F8C-9A39-C72274EB09D4";
shapes = (
{
closed = 1;
nodes = (
(176,-220,l),
(174,290,l),
(146,290,l),
(144,-220,l)
);
},
{
closed = 1;
nodes = (
(182,405,o),
(200,423,o),
(200,445,cs),
(200,467,o),
(182,485,o),
(160,485,cs),
(138,485,o),
(120,467,o),
(120,445,cs),
(120,423,o),
(138,405,o),
(160,405,cs)
);
}
);
width = 320;
},
{
background = {
shapes = (
{
closed = 1;
nodes = (
(210,-210,l),
(190,290,l),
(140,290,l),
(120,-210,l)
);
},
{
closed = 1;
nodes = (
(196,380,o),
(220,403,o),
(220,435,cs),
(220,467,o),
(196,490,o),
(165,490,cs),
(134,490,o),
(110,467,o),
(110,435,cs),
(110,403,o),
(134,380,o),
(165,380,cs)
);
}
);
};
layerId = "80E8E332-7B59-4055-8C08-04349B956208";
shapes = (
{
closed = 1;
nodes = (
(210,-210,l),
(190,290,l),
(140,290,l),
(120,-210,l)
);
},
{
closed = 1;
nodes = (
(196,380,o),
(220,403,o),
(220,435,cs),
(220,467,o),
(196,490,o),
(165,490,cs),
(134,490,o),
(110,467,o),
(110,435,cs),
(110,403,o),
(134,380,o),
(165,380,cs)
);
}
);
width = 330;
},
{
background = {
shapes = (
{
closed = 1;
nodes = (
(320,-210,l),
(295,255,l),
(115,255,l),
(90,-210,l)
);
},
{
closed = 1;
nodes = (
(263,313,o),
(308,356,o),
(308,414,cs),
(308,472,o),
(263,515,o),
(205,515,cs),
(147,515,o),
(102,472,o),
(102,414,cs),
(102,356,o),
(147,313,o),
(205,313,cs)
);
}
);
};
layerId = "66E383AE-0324-482F-BA05-BB2335E2BE22";
shapes = (
{
closed = 1;
nodes = (
(320,-210,l),
(295,255,l),
(115,255,l),
(90,-210,l)
);
},
{
closed = 1;
nodes = (
(263,313,o),
(308,356,o),
(308,414,cs),
(308,472,o),
(263,515,o),
(205,515,cs),
(147,515,o),
(102,472,o),
(102,414,cs),
(102,356,o),
(147,313,o),
(205,313,cs)
);
}
);
width = 410;
}
);
metricLeft = "=exclam";
metricRight = "=|";
unicode = 161;
},
{
color = 10;
glyphname = question;
kernLeft = question;
kernRight = question;
lastChange = "2026-02-08 10:48:17 +0000";
layers = (
{
background = {
shapes = (
{
closed = 1;
nodes = (
(265,190,l),
(265,211,ls),
(265,352,o),
(483,340,o),
(483,531,cs),
(483,638,o),
(395,710,o),
(264,710,cs),
(134,710,o),
(45,625,o),
(45,500,c),
(77,500,l),
(77,608,o),
(153,682,o),
(264,682,cs),
(376,682,o),
(451,621,o),
(451,531,cs),
(451,355,o),
(233,373,o),
(233,211,cs),
(233,190,l)
);
},
{
closed = 1;
nodes = (
(271,-5,o),
(289,13,o),
(289,35,cs),
(289,57,o),
(271,75,o),
(249,75,cs),
(227,75,o),
(209,57,o),
(209,35,cs),
(209,13,o),
(227,-5,o),
(249,-5,cs)
);
}
);
};
color = 10;
layerId = "C7A94C11-E66D-4F8C-9A39-C72274EB09D4";
metricLeft = "=45";
metricRight = "=65";
shapes = (
{
closed = 1;
nodes = (
(265,190,l),
(265,211,ls),
(265,352,o),
(483,340,o),
(483,531,cs),
(483,638,o),
(395,710,o),
(264,710,cs),
(134,710,o),
(45,625,o),
(45,500,c),
(77,500,l),
(77,608,o),
(153,682,o),
(264,682,cs),
(376,682,o),
(451,621,o),
(451,531,cs),
(451,355,o),
(233,373,o),
(233,211,cs),
(233,190,l)
);
},
{
closed = 1;
nodes = (
(271,-5,o),
(289,13,o),
(289,35,cs),
(289,57,o),
(271,75,o),
(249,75,cs),
(227,75,o),
(209,57,o),
(209,35,cs),
(209,13,o),
(227,-5,o),
(249,-5,cs)
);
}
);
width = 548;
},
{
background = {
shapes = (
{
closed = 1;
nodes = (
(292,190,l),
(292,211,ls),
(292,339,o),
(498,335,o),
(498,525,cs),
(498,630,o),
(407,710,o),
(274,710,cs),
(122,710,o),
(35,618,o),
(40,500,c),
(115,500,l),
(115,589,o),
(179,640,o),
(269,640,cs),
(364,640,o),
(422,593,o),
(422,521,cs),
(422,365,o),
(217,393,o),
(217,204,cs),
(217,190,l)
);
},
{
closed = 1;
nodes = (
(285,-10,o),
(309,13,o),
(309,45,cs),
(309,77,o),
(285,100,o),
(254,100,cs),
(223,100,o),
(199,77,o),
(199,45,cs),
(199,13,o),
(223,-10,o),
(254,-10,cs)
);
}
);
};
layerId = "80E8E332-7B59-4055-8C08-04349B956208";
metricLeft = "=40";
metricRight = "=60";
shapes = (
{
closed = 1;
nodes = (
(292,190,l),
(292,211,ls),
(292,339,o),
(498,335,o),
(498,525,cs),
(498,630,o),
(407,710,o),
(274,710,cs),
(122,710,o),
(35,618,o),
(40,500,c),
(115,500,l),
(115,589,o),
(179,640,o),
(269,640,cs),
(364,640,o),
(422,593,o),
(422,521,cs),
(422,365,o),
(217,393,o),
(217,204,cs),
(217,190,l)
);
},
{
closed = 1;
nodes = (
(285,-10,o),
(309,13,o),
(309,45,cs),
(309,77,o),
(285,100,o),
(254,100,cs),
(223,100,o),
(199,77,o),
(199,45,cs),
(199,13,o),
(223,-10,o),
(254,-10,cs)
);
}
);
width = 558;
},
{
background = {
shapes = (
{
closed = 1;
nodes = (
(403,250,l),
(403,264,ls),
(403,328,o),
(581,365,o),
(581,515,cs),
(581,607,o),
(514,715,o),
(310,715,cs),
(114,715,o),
(20,618,o),
(20,455,c),
(215,455,l),
(215,509,o),
(238,560,o),
(304,560,cs),
(356,560,o),
(375,537,o),
(375,508,cs),
(375,427,o),
(213,395,o),
(213,264,cs),
(213,250,l)
);
},
{
closed = 1;
nodes = (
(364,-10,o),
(409,33,o),
(409,91,cs),
(409,149,o),
(364,192,o),
(306,192,cs),
(248,192,o),
(203,149,o),
(203,91,cs),
(203,33,o),
(248,-10,o),
(306,-10,cs)
);
}
);
};
layerId = "66E383AE-0324-482F-BA05-BB2335E2BE22";
metricLeft = "=20";
metricRight = "=40";
shapes = (
{
closed = 1;
nodes = (
(403,250,l),
(403,264,ls),
(403,328,o),
(581,365,o),
(581,515,cs),
(581,607,o),
(514,715,o),
(310,715,cs),
(114,715,o),
(20,618,o),
(20,455,c),
(215,455,l),
(215,509,o),
(238,560,o),
(304,560,cs),
(356,560,o),
(375,537,o),
(375,508,cs),
(375,427,o),
(213,395,o),
(213,264,cs),
(213,250,l)
);
},
{
closed = 1;
nodes = (
(364,-10,o),
(409,33,o),
(409,91,cs),
(409,149,o),
(364,192,o),
(306,192,cs),
(248,192,o),
(203,149,o),
(203,91,cs),
(203,33,o),
(248,-10,o),
(306,-10,cs)
);
}
);
width = 621;
}
);
unicode = 63;
},
{
color = 10;
glyphname = questiondown;
kernLeft = questiondown;
kernRight = questiondown;
lastChange = "2026-02-06 14:54:25 +0000";
layers = (
{
background = {
shapes = (
{
closed = 1;
nodes = (
(404,-220,o),
(493,-135,o),
(493,-10,c),
(461,-10,l),
(461,-118,o),
(385,-192,o),
(274,-192,cs),
(162,-192,o),
(87,-131,o),
(87,-41,cs),
(87,135,o),
(305,117,o),
(305,269,cs),
(305,290,l),
(273,290,l),
(273,269,ls),
(273,138,o),
(55,150,o),
(55,-41,cs),
(55,-148,o),
(143,-220,o),
(274,-220,cs)
);
},
{
closed = 1;
nodes = (
(311,405,o),
(329,423,o),
(329,445,cs),
(329,467,o),
(311,485,o),
(289,485,cs),
(267,485,o),
(249,467,o),
(249,445,cs),
(249,423,o),
(267,405,o),
(289,405,cs)
);
}
);
};
color = 10;
layerId = "C7A94C11-E66D-4F8C-9A39-C72274EB09D4";
metricLeft = "=|question-10";
metricRight = "=|question-15";
shapes = (
{
closed = 1;
nodes = (
(404,-220,o),
(493,-135,o),
(493,-10,c),
(461,-10,l),
(461,-118,o),
(385,-192,o),
(274,-192,cs),
(162,-192,o),
(87,-131,o),
(87,-41,cs),
(87,135,o),
(305,117,o),
(305,269,cs),
(305,290,l),
(273,290,l),
(273,269,ls),
(273,138,o),
(55,150,o),
(55,-41,cs),
(55,-148,o),
(143,-220,o),
(274,-220,cs)
);
},
{
closed = 1;
nodes = (
(311,405,o),
(329,423,o),
(329,445,cs),
(329,467,o),
(311,485,o),
(289,485,cs),
(267,485,o),
(249,467,o),
(249,445,cs),
(249,423,o),
(267,405,o),
(289,405,cs)
);
}
);
width = 523;
},
{
background = {
shapes = (
{
closed = 1;
nodes = (
(426,-220,o),
(513,-128,o),
(508,-10,c),
(433,-10,l),
(433,-99,o),
(369,-150,o),
(279,-150,cs),
(184,-150,o),
(126,-103,o),
(126,-31,cs),
(126,125,o),
(331,97,o),
(331,276,cs),
(331,290,l),
(256,290,l),
(256,269,ls),
(256,158,o),
(50,156,o),
(50,-35,cs),
(50,-140,o),
(141,-220,o),
(274,-220,cs)
);
},
{
closed = 1;
nodes = (
(325,380,o),
(349,403,o),
(349,435,cs),
(349,467,o),
(325,490,o),
(294,490,cs),
(263,490,o),
(239,467,o),
(239,435,cs),
(239,403,o),
(263,380,o),
(294,380,cs)
);
}
);
};
layerId = "80E8E332-7B59-4055-8C08-04349B956208";
metricLeft = "=|question-10";
metricRight = "=|question-15";
shapes = (
{
closed = 1;
nodes = (
(426,-220,o),
(513,-128,o),
(508,-10,c),
(433,-10,l),
(433,-99,o),
(369,-150,o),
(279,-150,cs),
(184,-150,o),
(126,-103,o),
(126,-31,cs),
(126,125,o),
(331,97,o),
(331,276,cs),
(331,290,l),
(256,290,l),
(256,269,ls),
(256,158,o),
(50,156,o),
(50,-35,cs),
(50,-140,o),
(141,-220,o),
(274,-220,cs)
);
},
{
closed = 1;
nodes = (
(325,380,o),
(349,403,o),
(349,435,cs),
(349,467,o),
(325,490,o),
(294,490,cs),
(263,490,o),
(239,467,o),
(239,435,cs),
(239,403,o),
(263,380,o),
(294,380,cs)
);
}
);
width = 533;
},
{
background = {
shapes = (
{
closed = 1;
nodes = (
(497,-215,o),
(591,-118,o),
(591,45,c),
(396,45,l),
(396,-9,o),
(373,-60,o),
(307,-60,cs),
(255,-60,o),
(236,-37,o),
(236,-8,cs),
(236,73,o),
(398,105,o),
(398,236,cs),
(398,255,l),
(208,255,l),
(208,236,ls),
(208,172,o),
(30,135,o),
(30,-15,cs),
(30,-107,o),
(97,-215,o),
(301,-215,cs)
);
},
{
closed = 1;
nodes = (
(363,313,o),
(408,356,o),
(408,414,cs),
(408,472,o),
(363,515,o),
(305,515,cs),
(247,515,o),
(202,472,o),
(202,414,cs),
(202,356,o),
(247,313,o),
(305,313,cs)
);
}
);
};
layerId = "66E383AE-0324-482F-BA05-BB2335E2BE22";
metricLeft = "=|question-10";
metricRight = "=|question-15";
shapes = (
{
closed = 1;
nodes = (
(497,-215,o),
(591,-118,o),
(591,45,c),
(396,45,l),
(396,-9,o),
(373,-60,o),
(307,-60,cs),
(255,-60,o),
(236,-37,o),
(236,-8,cs),
(236,73,o),
(398,105,o),
(398,236,cs),
(398,255,l),
(208,255,l),
(208,236,ls),
(208,172,o),
(30,135,o),
(30,-15,cs),
(30,-107,o),
(97,-215,o),
(301,-215,cs)
);
},
{
closed = 1;
nodes = (
(363,313,o),
(408,356,o),
(408,414,cs),
(408,472,o),
(363,515,o),
(305,515,cs),
(247,515,o),
(202,472,o),
(202,414,cs),
(202,356,o),
(247,313,o),
(305,313,cs)
);
}
);
width = 596;
}
);
unicode = 191;
},
{
color = 10;
glyphname = exclam.sc;
kernLeft = exclam.sc;
kernRight = exclam.sc;
lastChange = "2026-02-06 14:57:20 +0000";
layers = (
{
background = {
shapes = (
{
closed = 1;
nodes = (
(164,170,l),
(167,560,l),
(133,560,l),
(136,170,l)
);
},
{
closed = 1;
nodes = (
(172,-5,o),
(190,13,o),
(190,35,cs),
(190,57,o),
(172,75,o),
(150,75,cs),
(128,75,o),
(110,57,o),
(110,35,cs),
(110,13,o),
(128,-5,o),
(150,-5,cs)
);
}
);
};
color = 10;
layerId = "C7A94C11-E66D-4F8C-9A39-C72274EB09D4";
metricLeft = "=exclam-10";
metricRight = "=exclam-10";
shapes = (
{
closed = 1;
nodes = (
(164,170,l),
(167,560,l),
(133,560,l),
(136,170,l)
);
},
{
closed = 1;
nodes = (
(172,-5,o),
(190,13,o),
(190,35,cs),
(190,57,o),
(172,75,o),
(150,75,cs),
(128,75,o),
(110,57,o),
(110,35,cs),
(110,13,o),
(128,-5,o),
(150,-5,cs)
);
}
);
width = 300;
},
{
background = {
shapes = (
{
closed = 1;
nodes = (
(180,170,l),
(200,560,l),
(110,560,l),
(130,170,l)
);
},
{
closed = 1;
nodes = (
(186,-10,o),
(210,13,o),
(210,45,cs),
(210,77,o),
(186,100,o),
(155,100,cs),
(124,100,o),
(100,77,o),
(100,45,cs),
(100,13,o),
(124,-10,o),
(155,-10,cs)
);
}
);
};
layerId = "80E8E332-7B59-4055-8C08-04349B956208";
metricLeft = "=exclam-10";
metricRight = "=exclam-10";
shapes = (
{
closed = 1;
nodes = (
(180,170,l),
(200,560,l),
(110,560,l),
(130,170,l)
);
},
{
closed = 1;
nodes = (
(186,-10,o),
(210,13,o),
(210,45,cs),
(210,77,o),
(186,100,o),
(155,100,cs),
(124,100,o),
(100,77,o),
(100,45,cs),
(100,13,o),
(124,-10,o),
(155,-10,cs)
);
}
);
width = 310;
},
{
background = {
shapes = (
{
closed = 1;
nodes = (
(290,250,l),
(315,700,l),
(85,700,l),
(110,250,l)
);
},
{
closed = 1;
nodes = (
(258,-10,o),
(303,33,o),
(303,91,cs),
(303,149,o),
(258,192,o),
(200,192,cs),
(142,192,o),
(97,149,o),
(97,91,cs),
(97,33,o),
(142,-10,o),
(200,-10,cs)
);
}
);
};
layerId = "66E383AE-0324-482F-BA05-BB2335E2BE22";
metricLeft = "=exclam-5";
metricRight = "=exclam-5";
shapes = (
{
closed = 1;
nodes = (
(290,237,l),
(315,610,l),
(85,610,l),
(110,237,l)
);
},
{
closed = 1;
nodes = (
(258,-10,o),
(303,33,o),
(303,91,cs),
(303,149,o),
(258,192,o),
(200,192,cs),
(142,192,o),
(97,149,o),
(97,91,cs),
(97,33,o),
(142,-10,o),
(200,-10,cs)
);
}
);
width = 400;
}
);
},
{
color = 10;
glyphname = exclamdown.sc;
kernLeft = exclamdown.sc;
kernRight = exclamdown.sc;
lastChange = "2026-02-06 14:57:16 +0000";
layers = (
{
background = {
shapes = (
{
closed = 1;
nodes = (
(167,0,l),
(164,395,l),
(136,395,l),
(133,0,l)
);
},
{
closed = 1;
nodes = (
(172,490,o),
(190,508,o),
(190,530,cs),
(190,552,o),
(172,570,o),
(150,570,cs),
(128,570,o),
(110,552,o),
(110,530,cs),
(110,508,o),
(128,490,o),
(150,490,cs)
);
}
);
};
color = 10;
layerId = "C7A94C11-E66D-4F8C-9A39-C72274EB09D4";
metricLeft = "=exclamdown-10";
metricRight = "=exclamdown-10";
shapes = (
{
closed = 1;
nodes = (
(167,0,l),
(164,395,l),
(136,395,l),
(133,0,l)
);
},
{
closed = 1;
nodes = (
(172,490,o),
(190,508,o),
(190,530,cs),
(190,552,o),
(172,570,o),
(150,570,cs),
(128,570,o),
(110,552,o),
(110,530,cs),
(110,508,o),
(128,490,o),
(150,490,cs)
);
}
);
width = 300;
},
{
background = {
shapes = (
{
closed = 1;
nodes = (
(200,0,l),
(180,390,l),
(130,390,l),
(110,0,l)
);
},
{
closed = 1;
nodes = (
(186,460,o),
(210,483,o),
(210,515,cs),
(210,547,o),
(186,570,o),
(155,570,cs),
(124,570,o),
(100,547,o),
(100,515,cs),
(100,483,o),
(124,460,o),
(155,460,cs)
);
}
);
};
layerId = "80E8E332-7B59-4055-8C08-04349B956208";
metricLeft = "=exclamdown-10";
metricRight = "=exclamdown-10";
shapes = (
{
closed = 1;
nodes = (
(200,0,l),
(180,390,l),
(130,390,l),
(110,0,l)
);
},
{
closed = 1;
nodes = (
(186,460,o),
(210,483,o),
(210,515,cs),
(210,547,o),
(186,570,o),
(155,570,cs),
(124,570,o),
(100,547,o),
(100,515,cs),
(100,483,o),
(124,460,o),
(155,460,cs)
);
}
);
width = 310;
},
{
background = {
shapes = (
{
closed = 1;
nodes = (
(315,-210,l),
(290,255,l),
(110,255,l),
(85,-210,l)
);
},
{
closed = 1;
nodes = (
(258,313,o),
(303,356,o),
(303,414,cs),
(303,472,o),
(258,515,o),
(200,515,cs),
(142,515,o),
(97,472,o),
(97,414,cs),
(97,356,o),
(142,313,o),
(200,313,cs)
);
}
);
};
layerId = "66E383AE-0324-482F-BA05-BB2335E2BE22";
metricLeft = "=exclamdown-5";
metricRight = "=exclamdown-5";
shapes = (
{
closed = 1;
nodes = (
(315,0,l),
(290,373,l),
(110,373,l),
(85,0,l)
);
},
{
closed = 1;
nodes = (
(258,418,o),
(303,461,o),
(303,519,cs),
(303,577,o),
(258,620,o),
(200,620,cs),
(142,620,o),
(97,577,o),
(97,519,cs),
(97,461,o),
(142,418,o),
(200,418,cs)
);
}
);
width = 400;
}
);
},
{
color = 10;
glyphname = question.sc;
kernLeft = question.sc;
kernRight = question.sc;
lastChange = "2026-02-08 10:39:30 +0000";
layers = (
{
background = {
shapes = (
{
closed = 1;
nodes = (
(212,170,l),
(212,186,ls),
(212,295,o),
(379,288,o),
(379,426,cs),
(379,507,o),
(311,570,o),
(210,570,cs),
(107,570,o),
(35,505,o),
(35,408,c),
(67,408,l),
(67,493,o),
(130,542,o),
(210,542,cs),
(296,542,o),
(347,490,o),
(347,426,cs),
(347,301,o),
(180,311,o),
(180,186,cs),
(180,170,l)
);
},
{
closed = 1;
nodes = (
(218,-5,o),
(236,13,o),
(236,35,cs),
(236,57,o),
(218,75,o),
(196,75,cs),
(174,75,o),
(156,57,o),
(156,35,cs),
(156,13,o),
(174,-5,o),
(196,-5,cs)
);
}
);
};
color = 10;
layerId = "C7A94C11-E66D-4F8C-9A39-C72274EB09D4";
metricLeft = "=question-10";
metricRight = "=question-10";
shapes = (
{
closed = 1;
nodes = (
(212,170,l),
(212,186,ls),
(212,295,o),
(379,288,o),
(379,426,cs),
(379,507,o),
(311,570,o),
(210,570,cs),
(107,570,o),
(35,505,o),
(35,408,c),
(67,408,l),
(67,493,o),
(130,542,o),
(210,542,cs),
(296,542,o),
(347,490,o),
(347,426,cs),
(347,301,o),
(180,311,o),
(180,186,cs),
(180,170,l)
);
},
{
closed = 1;
nodes = (
(218,-5,o),
(236,13,o),
(236,35,cs),
(236,57,o),
(218,75,o),
(196,75,cs),
(174,75,o),
(156,57,o),
(156,35,cs),
(156,13,o),
(174,-5,o),
(196,-5,cs)
);
}
);
width = 434;
},
{
background = {
shapes = (
{
closed = 1;
nodes = (
(224,170,l),
(224,186,ls),
(224,285,o),
(382,281,o),
(382,428,cs),
(382,508,o),
(313,570,o),
(210,570,cs),
(93,570,o),
(27,499,o),
(30,408,c),
(102,408,l),
(102,464,o),
(145,503,o),
(211,503,cs),
(273,503,o),
(308,471,o),
(308,425,cs),
(308,305,o),
(152,326,o),
(152,181,cs),
(152,170,l)
);
},
{
closed = 1;
nodes = (
(223,-10,o),
(247,13,o),
(247,45,cs),
(247,77,o),
(223,100,o),
(192,100,cs),
(161,100,o),
(137,77,o),
(137,45,cs),
(137,13,o),
(161,-10,o),
(192,-10,cs)
);
}
);
};
layerId = "80E8E332-7B59-4055-8C08-04349B956208";
metricLeft = "=question-10";
metricRight = "=question-10";
shapes = (
{
closed = 1;
nodes = (
(224,170,l),
(224,186,ls),
(224,285,o),
(382,281,o),
(382,428,cs),
(382,508,o),
(313,570,o),
(210,570,cs),
(93,570,o),
(27,499,o),
(30,408,c),
(102,408,l),
(102,464,o),
(145,503,o),
(211,503,cs),
(273,503,o),
(308,471,o),
(308,425,cs),
(308,305,o),
(152,326,o),
(152,181,cs),
(152,170,l)
);
},
{
closed = 1;
nodes = (
(223,-10,o),
(247,13,o),
(247,45,cs),
(247,77,o),
(223,100,o),
(192,100,cs),
(161,100,o),
(137,77,o),
(137,45,cs),
(137,13,o),
(161,-10,o),
(192,-10,cs)
);
}
);
width = 432;
},
{
background = {
shapes = (
{
closed = 1;
nodes = (
(350,250,l),
(350,264,ls),
(350,328,o),
(528,365,o),
(528,515,cs),
(528,607,o),
(461,715,o),
(257,715,cs),
(61,715,o),
(-33,618,o),
(-33,455,c),
(162,455,l),
(162,509,o),
(185,560,o),
(251,560,cs),
(303,560,o),
(322,537,o),
(322,508,cs),
(322,427,o),
(160,395,o),
(160,264,cs),
(160,250,l)
);
},
{
closed = 1;
nodes = (
(311,-10,o),
(356,33,o),
(356,91,cs),
(356,149,o),
(311,192,o),
(253,192,cs),
(195,192,o),
(150,149,o),
(150,91,cs),
(150,33,o),
(195,-10,o),
(253,-10,cs)
);
}
);
};
layerId = "66E383AE-0324-482F-BA05-BB2335E2BE22";
metricLeft = "=question-5";
metricRight = "=question-5";
shapes = (
{
closed = 1;
nodes = (
(332,237,l),
(332,248,ls),
(332,297,o),
(480,331,o),
(480,456,cs),
(480,532,o),
(428,620,o),
(255,620,cs),
(108,620,o),
(15,545,o),
(15,409,c),
(186,409,l),
(186,441,o),
(211,470,o),
(257,470,cs),
(287,470,o),
(300,457,o),
(300,441,cs),
(300,392,o),
(150,374,o),
(150,248,cs),
(150,237,l)
);
},
{
closed = 1;
nodes = (
(301,-10,o),
(346,33,o),
(346,91,cs),
(346,149,o),
(301,192,o),
(243,192,cs),
(185,192,o),
(140,149,o),
(140,91,cs),
(140,33,o),
(185,-10,o),
(243,-10,cs)
);
}
);
width = 515;
}
);
},
{
color = 10;
glyphname = questiondown.sc;
kernLeft = questiondown.sc;
kernRight = questiondown.sc;
lastChange = "2026-02-06 15:00:48 +0000";
layers = (
{
background = {
shapes = (
{
closed = 1;
nodes = (
(317,-5,o),
(389,60,o),
(389,157,c),
(357,157,l),
(357,72,o),
(294,23,o),
(214,23,cs),
(128,23,o),
(77,75,o),
(77,139,cs),
(77,264,o),
(244,254,o),
(244,379,cs),
(244,395,l),
(212,395,l),
(212,379,ls),
(212,270,o),
(45,277,o),
(45,139,cs),
(45,58,o),
(113,-5,o),
(214,-5,cs)
);
},
{
closed = 1;
nodes = (
(250,490,o),
(268,508,o),
(268,530,cs),
(268,552,o),
(250,570,o),
(228,570,cs),
(206,570,o),
(188,552,o),
(188,530,cs),
(188,508,o),
(206,490,o),
(228,490,cs)
);
}
);
};
color = 10;
layerId = "C7A94C11-E66D-4F8C-9A39-C72274EB09D4";
metricLeft = "=questiondown-10";
metricRight = "=questiondown-10";
shapes = (
{
closed = 1;
nodes = (
(317,-5,o),
(389,60,o),
(389,157,c),
(357,157,l),
(357,72,o),
(294,23,o),
(214,23,cs),
(128,23,o),
(77,75,o),
(77,139,cs),
(77,264,o),
(244,254,o),
(244,379,cs),
(244,395,l),
(212,395,l),
(212,379,ls),
(212,270,o),
(45,277,o),
(45,139,cs),
(45,58,o),
(113,-5,o),
(214,-5,cs)
);
},
{
closed = 1;
nodes = (
(250,490,o),
(268,508,o),
(268,530,cs),
(268,552,o),
(250,570,o),
(228,570,cs),
(206,570,o),
(188,552,o),
(188,530,cs),
(188,508,o),
(206,490,o),
(228,490,cs)
);
}
);
width = 409;
},
{
background = {
shapes = (
{
closed = 1;
nodes = (
(329,-10,o),
(395,61,o),
(392,152,c),
(320,152,l),
(320,96,o),
(277,57,o),
(211,57,cs),
(149,57,o),
(114,89,o),
(114,135,cs),
(114,255,o),
(270,234,o),
(270,379,cs),
(270,390,l),
(198,390,l),
(198,374,ls),
(198,275,o),
(40,279,o),
(40,132,cs),
(40,52,o),
(109,-10,o),
(212,-10,cs)
);
},
{
closed = 1;
nodes = (
(261,460,o),
(285,483,o),
(285,515,cs),
(285,547,o),
(261,570,o),
(230,570,cs),
(199,570,o),
(175,547,o),
(175,515,cs),
(175,483,o),
(199,460,o),
(230,460,cs)
);
}
);
};
layerId = "80E8E332-7B59-4055-8C08-04349B956208";
metricLeft = "=questiondown-10";
metricRight = "=questiondown-10";
shapes = (
{
closed = 1;
nodes = (
(329,-10,o),
(395,61,o),
(392,152,c),
(320,152,l),
(320,96,o),
(277,57,o),
(211,57,cs),
(149,57,o),
(114,89,o),
(114,135,cs),
(114,255,o),
(270,234,o),
(270,379,cs),
(270,390,l),
(198,390,l),
(198,374,ls),
(198,275,o),
(40,279,o),
(40,132,cs),
(40,52,o),
(109,-10,o),
(212,-10,cs)
);
},
{
closed = 1;
nodes = (
(261,460,o),
(285,483,o),
(285,515,cs),
(285,547,o),
(261,570,o),
(230,570,cs),
(199,570,o),
(175,547,o),
(175,515,cs),
(175,483,o),
(199,460,o),
(230,460,cs)
);
}
);
width = 407;
},
{
background = {
shapes = (
{
closed = 1;
nodes = (
(502,-215,o),
(596,-118,o),
(596,45,c),
(401,45,l),
(401,-9,o),
(378,-60,o),
(312,-60,cs),
(260,-60,o),
(241,-37,o),
(241,-8,cs),
(241,73,o),
(403,105,o),
(403,236,cs),
(403,255,l),
(213,255,l),
(213,236,ls),
(213,172,o),
(35,135,o),
(35,-15,cs),
(35,-107,o),
(102,-215,o),
(306,-215,cs)
);
},
{
closed = 1;
nodes = (
(368,313,o),
(413,356,o),
(413,414,cs),
(413,472,o),
(368,515,o),
(310,515,cs),
(252,515,o),
(207,472,o),
(207,414,cs),
(207,356,o),
(252,313,o),
(310,313,cs)
);
}
);
};
layerId = "66E383AE-0324-482F-BA05-BB2335E2BE22";
metricLeft = "=questiondown-5";
metricRight = "=questiondown-5";
shapes = (
{
closed = 1;
nodes = (
(397,-10,o),
(490,65,o),
(490,201,c),
(319,201,l),
(319,169,o),
(294,140,o),
(248,140,cs),
(218,140,o),
(205,153,o),
(205,169,cs),
(205,218,o),
(355,236,o),
(355,362,cs),
(355,373,l),
(173,373,l),
(173,362,ls),
(173,313,o),
(25,279,o),
(25,154,cs),
(25,78,o),
(77,-10,o),
(250,-10,cs)
);
},
{
closed = 1;
nodes = (
(320,418,o),
(365,461,o),
(365,519,cs),
(365,577,o),
(320,620,o),
(262,620,cs),
(204,620,o),
(159,577,o),
(159,519,cs),
(159,461,o),
(204,418,o),
(262,418,cs)
);
}
);
width = 490;
}
);
},
{
color = 7;
glyphname = asterisk;
kernLeft = quotedbl;
kernRight = quotedbl;
lastChange = "2026-02-05 15:46:32 +0000";
layers = (
{
background = {
shapes = (
{
closed = 1;
nodes = (
(239,512,l),
(215,512,l),
(335,340,l),
(362,358,l),
(246,514,l),
(240,503,l),
(414,547,l),
(406,578,l),
(226,526,l),
(240,515,l),
(243,700,l),
(211,700,l),
(214,515,l),
(228,526,l),
(48,578,l),
(40,547,l),
(214,503,l),
(208,514,l),
(92,358,l),
(119,340,l)
);
}
);
};
color = 0;
layerId = "C7A94C11-E66D-4F8C-9A39-C72274EB09D4";
metricLeft = "=40";
shapes = (
{
closed = 1;
nodes = (
(239,512,l),
(215,512,l),
(335,340,l),
(362,358,l),
(246,514,l),
(240,503,l),
(414,547,l),
(406,578,l),
(226,526,l),
(240,515,l),
(243,700,l),
(211,700,l),
(214,515,l),
(228,526,l),
(48,578,l),
(40,547,l),
(214,503,l),
(208,514,l),
(92,358,l),
(119,340,l)
);
}
);
width = 454;
},
{
background = {
shapes = (
{
closed = 1;
nodes = (
(249,496,l),
(212,496,l),
(319,328,l),
(384,372,l),
(267,514,l),
(255,484,l),
(423,523,l),
(402,600,l),
(228,538,l),
(258,515,l),
(269,700,l),
(189,700,l),
(200,515,l),
(230,538,l),
(56,600,l),
(35,523,l),
(203,484,l),
(191,514,l),
(74,372,l),
(142,326,l)
);
}
);
};
layerId = "80E8E332-7B59-4055-8C08-04349B956208";
metricLeft = "=35";
shapes = (
{
closed = 1;
nodes = (
(249,496,l),
(212,496,l),
(319,328,l),
(384,372,l),
(267,514,l),
(255,484,l),
(423,523,l),
(402,600,l),
(228,538,l),
(258,515,l),
(269,700,l),
(189,700,l),
(200,515,l),
(230,538,l),
(56,600,l),
(35,523,l),
(203,484,l),
(191,514,l),
(74,372,l),
(142,326,l)
);
}
);
width = 458;
},
{
background = {
shapes = (
{
closed = 1;
nodes = (
(278,464,l),
(220,464,l),
(321,301,l),
(428,375,l),
(310,525,l),
(273,456,l),
(463,504,l),
(428,630,l),
(243,561,l),
(303,509,l),
(314,710,l),
(184,710,l),
(195,510,l),
(255,561,l),
(70,630,l),
(35,504,l),
(225,456,l),
(188,525,l),
(70,375,l),
(177,301,l)
);
}
);
};
layerId = "66E383AE-0324-482F-BA05-BB2335E2BE22";
metricLeft = "=35";
shapes = (
{
closed = 1;
nodes = (
(278,464,l),
(220,464,l),
(321,301,l),
(428,375,l),
(310,525,l),
(273,456,l),
(463,504,l),
(428,630,l),
(243,561,l),
(303,509,l),
(314,710,l),
(184,710,l),
(195,510,l),
(255,561,l),
(70,630,l),
(35,504,l),
(225,456,l),
(188,525,l),
(70,375,l),
(177,301,l)
);
}
);
width = 498;
}
);
metricRight = "=|";
unicode = 42;
},
{
color = 7;
glyphname = quotesingle;
kernLeft = quotedbl;
kernRight = quotedbl;
lastChange = "2026-02-05 15:46:32 +0000";
layers = (
{
anchors = (
{
name = "#entry";
pos = (25,700);
},
{
name = "#exit";
pos = (135,700);
}
);
background = {
anchors = (
{
name = "#entry";
pos = (25,700);
},
{
name = "#exit";
pos = (135,700);
}
);
shapes = (
{
closed = 1;
nodes = (
(93,476,l),
(95,700,l),
(65,700,l),
(68,476,l)
);
}
);
};
color = 0;
layerId = "C7A94C11-E66D-4F8C-9A39-C72274EB09D4";
metricLeft = "=65";
shapes = (
{
closed = 1;
nodes = (
(92,476,l),
(95,700,l),
(65,700,l),
(68,476,l)
);
}
);
width = 160;
},
{
anchors = (
{
name = "#entry";
pos = (25,700);
},
{
name = "#exit";
pos = (175,700);
}
);
background = {
anchors = (
{
name = "#entry";
pos = (25,700);
},
{
name = "#exit";
pos = (175,700);
}
);
shapes = (
{
closed = 1;
nodes = (
(127,476,l),
(140,700,l),
(60,700,l),
(73,476,l)
);
}
);
};
layerId = "80E8E332-7B59-4055-8C08-04349B956208";
metricLeft = "=60";
shapes = (
{
closed = 1;
nodes = (
(127,476,l),
(140,700,l),
(60,700,l),
(73,476,l)
);
}
);
width = 200;
},
{
anchors = (
{
name = "#entry";
pos = (15,700);
},
{
name = "#exit";
pos = (270,700);
}
);
background = {
anchors = (
{
name = "#entry";
pos = (15,700);
},
{
name = "#exit";
pos = (270,700);
}
);
shapes = (
{
closed = 1;
nodes = (
(227,386,l),
(245,700,l),
(40,700,l),
(58,386,l)
);
}
);
};
layerId = "66E383AE-0324-482F-BA05-BB2335E2BE22";
metricLeft = "=40";
shapes = (
{
closed = 1;
nodes = (
(227,386,l),
(245,700,l),
(40,700,l),
(58,386,l)
);
}
);
width = 285;
}
);
metricRight = "=|";
unicode = 39;
},
{
color = 7;
glyphname = quotesinglbase;
kernLeft = comma;
kernRight = comma;
lastChange = "2026-02-05 15:46:32 +0000";
layers = (
{
anchors = (
{
name = "#entry";
},
{
name = "#exit";
pos = (165,0);
}
);
background = {
anchors = (
{
name = "#entry";
},
{
name = "#exit";
pos = (165,0);
}
);
shapes = (
{
closed = 1;
nodes = (
(36,-110,l),
(127,90,l),
(72,90,l),
(10,-110,l)
);
}
);
};
color = 0;
layerId = "C7A94C11-E66D-4F8C-9A39-C72274EB09D4";
shapes = (
{
closed = 1;
nodes = (
(36,-110,l),
(127,90,l),
(72,90,l),
(10,-110,l)
);
}
);
width = 190;
},
{
anchors = (
{
name = "#entry";
pos = (-13,0);
},
{
name = "#exit";
pos = (152,0);
}
);
background = {
shapes = (
{
pos = (-7,0);
ref = comma;
}
);
};
guides = (
{
angle = 90;
pos = (-12,-130);
}
);
layerId = "80E8E332-7B59-4055-8C08-04349B956208";
shapes = (
{
closed = 1;
nodes = (
(51,-110,l),
(154,90,l),
(59,90,l),
(-5,-110,l)
);
}
);
width = 202;
},
{
anchors = (
{
name = "#entry";
pos = (-33,0);
},
{
name = "#exit";
pos = (252,0);
}
);
background = {
shapes = (
{
closed = 1;
nodes = (
(141,-110,l),
(278,180,l),
(68,180,l),
(-25,-110,l)
);
}
);
};
layerId = "66E383AE-0324-482F-BA05-BB2335E2BE22";
shapes = (
{
closed = 1;
nodes = (
(141,-110,l),
(278,180,l),
(68,180,l),
(-25,-110,l)
);
}
);
width = 306;
}
);
metricLeft = "=comma";
metricRight = "=comma";
unicode = 8218;
},
{
color = 7;
glyphname = quoteleft;
kernLeft = quotedblleft;
kernRight = quotedblleft;
lastChange = "2026-02-08 11:01:20 +0000";
layers = (
{
anchors = (
{
name = "#entry";
pos = (5,590);
},
{
name = "#exit";
pos = (170,590);
}
);
background = {
anchors = (
{
name = "#entry";
pos = (5,590);
},
{
name = "#exit";
pos = (170,590);
}
);
shapes = (
{
closed = 1;
nodes = (
(98,500,l),
(160,700,l),
(134,700,l),
(43,500,l)
);
}
);
};
color = 0;
layerId = "C7A94C11-E66D-4F8C-9A39-C72274EB09D4";
shapes = (
{
closed = 1;
nodes = (
(98,500,l),
(160,700,l),
(134,700,l),
(43,500,l)
);
}
);
width = 190;
},
{
anchors = (
{
name = "#entry";
pos = (22,590);
},
{
name = "#exit";
pos = (187,590);
}
);
background = {
shapes = (
{
angle = 180;
pos = (181,567);
ref = quotesinglbase;
}
);
};
layerId = "80E8E332-7B59-4055-8C08-04349B956208";
shapes = (
{
closed = 1;
nodes = (
(123,500,l),
(187,700,l),
(131,700,l),
(28,500,l)
);
}
);
width = 202;
},
{
anchors = (
{
name = "#entry";
pos = (29,590);
},
{
name = "#exit";
pos = (314,590);
}
);
background = {
shapes = (
{
closed = 1;
nodes = (
(140,700,l),
(3,410,l),
(213,410,l),
(306,700,l)
);
}
);
};
layerId = "66E383AE-0324-482F-BA05-BB2335E2BE22";
shapes = (
{
closed = 1;
nodes = (
(213,410,l),
(306,700,l),
(140,700,l),
(3,410,l)
);
}
);
width = 331;
}
);
metricLeft = "=|quoteright";
metricRight = "=|quoteright";
unicode = 8216;
},
{
color = 7;
glyphname = quoteright;
kernLeft = quotedblright;
kernRight = quotedblright;
lastChange = "2026-02-06 22:26:54 +0000";
layers = (
{
anchors = (
{
name = "#entry";
pos = (20,590);
},
{
name = "#exit";
pos = (185,590);
}
);
background = {
anchors = (
{
name = "#entry";
pos = (20,590);
},
{
name = "#exit";
pos = (185,590);
}
);
shapes = (
{
closed = 1;
nodes = (
(56,500,l),
(147,700,l),
(92,700,l),
(30,500,l)
);
}
);
};
color = 0;
layerId = "C7A94C11-E66D-4F8C-9A39-C72274EB09D4";
metricLeft = "=quotesinglbase+20";
metricRight = "=quotesinglbase-20";
shapes = (
{
closed = 1;
nodes = (
(56,500,l),
(147,700,l),
(92,700,l),
(30,500,l)
);
}
);
width = 190;
},
{
anchors = (
{
name = "#entry";
pos = (13,590);
},
{
name = "#exit";
pos = (178,590);
}
);
background = {
shapes = (
{
pos = (19,609);
ref = quotesinglbase;
}
);
};
layerId = "80E8E332-7B59-4055-8C08-04349B956208";
metricLeft = "=quotesinglbase+20";
metricRight = "=quotesinglbase-20";
shapes = (
{
closed = 1;
nodes = (
(71,500,l),
(174,700,l),
(79,700,l),
(15,500,l)
);
}
);
width = 202;
},
{
anchors = (
{
name = "#entry";
pos = (17,590);
},
{
name = "#exit";
pos = (302,590);
}
);
background = {
shapes = (
{
pos = (50,518);
ref = quotesinglbase;
}
);
};
layerId = "66E383AE-0324-482F-BA05-BB2335E2BE22";
metricLeft = "=quotesinglbase+50";
metricRight = "=quotesinglbase-25";
shapes = (
{
closed = 1;
nodes = (
(191,410,l),
(328,700,l),
(118,700,l),
(25,410,l)
);
}
);
width = 331;
}
);
unicode = 8217;
},
{
color = 10;
glyphname = quotedblleft;
kernLeft = quotedblleft;
kernRight = quotedblleft;
lastChange = "2026-02-07 00:42:46 +0000";
layers = (
{
background = {
shapes = (
{
angle = 180;
pos = (170,591);
ref = quotesinglbase;
},
{
angle = 180;
pos = (335,591);
ref = quotesinglbase;
}
);
};
color = 10;
layerId = "C7A94C11-E66D-4F8C-9A39-C72274EB09D4";
shapes = (
{
alignment = 1;
ref = quoteleft;
},
{
alignment = 1;
pos = (165,0);
ref = quoteleft;
}
);
width = 355;
},
{
background = {
shapes = (
{
angle = 180;
pos = (189,567);
ref = quotesinglbase;
},
{
angle = 180;
pos = (354,567);
ref = quotesinglbase;
}
);
};
layerId = "80E8E332-7B59-4055-8C08-04349B956208";
shapes = (
{
alignment = 1;
ref = quoteleft;
},
{
alignment = 1;
pos = (165,0);
ref = quoteleft;
}
);
width = 367;
},
{
background = {
shapes = (
{
closed = 1;
nodes = (
(140,700,l),
(3,410,l),
(213,410,l),
(306,700,l)
);
},
{
closed = 1;
nodes = (
(425,700,l),
(288,410,l),
(498,410,l),
(591,700,l)
);
}
);
};
layerId = "66E383AE-0324-482F-BA05-BB2335E2BE22";
shapes = (
{
alignment = 1;
ref = quoteleft;
},
{
alignment = 1;
pos = (285,0);
ref = quoteleft;
}
);
width = 616;
}
);
unicode = 8220;
},
{
color = 10;
glyphname = quotedblright;
kernLeft = quotedblright;
kernRight = quotedblright;
lastChange = "2026-02-08 11:35:06 +0000";
layers = (
{
background = {
shapes = (
{
closed = 1;
nodes = (
(56,500,l),
(147,700,l),
(92,700,l),
(30,500,l)
);
},
{
closed = 1;
nodes = (
(221,500,l),
(312,700,l),
(257,700,l),
(195,500,l)
);
}
);
};
color = 10;
layerId = "C7A94C11-E66D-4F8C-9A39-C72274EB09D4";
shapes = (
{
alignment = 1;
ref = quoteright;
},
{
alignment = 1;
pos = (165,0);
ref = quoteright;
}
);
width = 355;
},
{
background = {
shapes = (
{
closed = 1;
nodes = (
(71,480,l),
(181,700,l),
(86,700,l),
(15,480,l)
);
},
{
closed = 1;
nodes = (
(236,480,l),
(346,700,l),
(251,700,l),
(180,480,l)
);
}
);
};
layerId = "80E8E332-7B59-4055-8C08-04349B956208";
shapes = (
{
alignment = 1;
ref = quoteright;
},
{
alignment = 1;
pos = (165,0);
ref = quoteright;
}
);
width = 367;
},
{
background = {
shapes = (
{
closed = 1;
nodes = (
(191,410,l),
(328,700,l),
(118,700,l),
(25,410,l)
);
},
{
closed = 1;
nodes = (
(476,410,l),
(613,700,l),
(403,700,l),
(310,410,l)
);
}
);
};
layerId = "66E383AE-0324-482F-BA05-BB2335E2BE22";
shapes = (
{
alignment = 1;
ref = quoteright;
},
{
alignment = 1;
pos = (285,0);
ref = quoteright;
}
);
width = 616;
}
);
unicode = 8221;
},
{
color = 7;
glyphname = guilsinglleft;
kernLeft = guillemetleft;
kernRight = guillemetleft;
lastChange = "2026-02-05 15:46:32 +0000";
layers = (
{
anchors = (
{
name = "#entry";
pos = (40,240);
},
{
name = "#exit";
pos = (214,240);
}
);
background = {
anchors = (
{
name = "#entry";
pos = (40,240);
},
{
name = "#exit";
pos = (214,240);
}
);
shapes = (
{
closed = 1;
nodes = (
(276,46,l),
(56,250,l),
(56,231,l),
(276,435,l),
(236,435,l),
(40,251,l),
(40,230,l),
(236,46,l)
);
}
);
};
color = 0;
layerId = "C7A94C11-E66D-4F8C-9A39-C72274EB09D4";
metricLeft = "=40";
metricRight = "=55";
shapes = (
{
closed = 1;
nodes = (
(276,46,l),
(56,250,l),
(56,231,l),
(276,435,l),
(236,435,l),
(40,251,l),
(40,230,l),
(236,46,l)
);
}
);
width = 331;
},
{
anchors = (
{
name = "#entry";
pos = (35,240);
},
{
name = "#exit";
pos = (250,240);
}
);
background = {
anchors = (
{
name = "#entry";
pos = (35,240);
},
{
name = "#exit";
pos = (250,240);
}
);
shapes = (
{
closed = 1;
nodes = (
(332,46,l),
(98,263,l),
(98,218,l),
(332,435,l),
(231,435,l),
(35,251,l),
(35,230,l),
(231,46,l)
);
}
);
};
layerId = "80E8E332-7B59-4055-8C08-04349B956208";
metricLeft = "=35";
metricRight = "=50";
shapes = (
{
closed = 1;
nodes = (
(332,46,l),
(98,263,l),
(98,218,l),
(332,435,l),
(231,435,l),
(35,251,l),
(35,230,l),
(231,46,l)
);
}
);
width = 382;
},
{
anchors = (
{
name = "#entry";
pos = (150,240);
},
{
name = "#exit";
pos = (485,240);
}
);
background = {
anchors = (
{
name = "#entry";
pos = (150,240);
},
{
name = "#exit";
pos = (485,240);
}
);
shapes = (
{
closed = 1;
nodes = (
(477,16,l),
(213,263,l),
(213,218,l),
(477,465,l),
(261,465,l),
(35,251,l),
(35,230,l),
(261,16,l)
);
}
);
};
layerId = "66E383AE-0324-482F-BA05-BB2335E2BE22";
metricLeft = "=35";
metricRight = "=50";
shapes = (
{
closed = 1;
nodes = (
(477,16,l),
(213,263,l),
(213,218,l),
(477,465,l),
(261,465,l),
(35,251,l),
(35,230,l),
(261,16,l)
);
}
);
width = 527;
}
);
unicode = 8249;
},
{
color = 7;
glyphname = guilsinglright;
kernLeft = guillemetright;
kernRight = guillemetright;
lastChange = "2026-02-05 15:46:32 +0000";
layers = (
{
anchors = (
{
name = "#entry";
pos = (117,240);
},
{
name = "#exit";
pos = (291,240);
}
);
background = {
anchors = (
{
name = "#entry";
pos = (117,240);
},
{
name = "#exit";
pos = (291,240);
}
);
shapes = (
{
closed = 1;
nodes = (
(95,46,l),
(291,230,l),
(291,251,l),
(95,435,l),
(55,435,l),
(275,231,l),
(275,250,l),
(55,46,l)
);
}
);
};
color = 0;
layerId = "C7A94C11-E66D-4F8C-9A39-C72274EB09D4";
shapes = (
{
closed = 1;
nodes = (
(95,46,l),
(291,230,l),
(291,251,l),
(95,435,l),
(55,435,l),
(275,231,l),
(275,250,l),
(55,46,l)
);
}
);
width = 331;
},
{
anchors = (
{
name = "#entry";
pos = (132,240);
},
{
name = "#exit";
pos = (347,240);
}
);
background = {
shapes = (
{
angle = 180;
pos = (382,480);
ref = guilsinglleft;
}
);
};
layerId = "80E8E332-7B59-4055-8C08-04349B956208";
shapes = (
{
closed = 1;
nodes = (
(151,46,l),
(347,230,l),
(347,251,l),
(151,435,l),
(50,435,l),
(284,218,l),
(284,263,l),
(50,46,l)
);
}
);
width = 382;
},
{
anchors = (
{
name = "#entry";
pos = (42,240);
},
{
name = "#exit";
pos = (377,240);
}
);
background = {
shapes = (
{
angle = 180;
pos = (527,480);
ref = guilsinglleft;
}
);
};
layerId = "66E383AE-0324-482F-BA05-BB2335E2BE22";
shapes = (
{
closed = 1;
nodes = (
(266,16,l),
(492,230,l),
(492,251,l),
(266,465,l),
(50,465,l),
(314,218,l),
(314,263,l),
(50,16,l)
);
}
);
width = 527;
}
);
metricLeft = "=|guilsinglleft";
metricRight = "=|guilsinglleft";
unicode = 8250;
},
{
color = 10;
glyphname = guillemetleft;
kernLeft = guillemetleft;
kernRight = guillemetleft;
lastChange = "2026-02-08 09:56:58 +0000";
layers = (
{
background = {
shapes = (
{
closed = 1;
nodes = (
(450,46,l),
(230,250,l),
(230,231,l),
(450,435,l),
(410,435,l),
(214,251,l),
(214,230,l),
(410,46,l)
);
},
{
closed = 1;
nodes = (
(276,46,l),
(56,250,l),
(56,231,l),
(276,435,l),
(236,435,l),
(40,251,l),
(40,230,l),
(236,46,l)
);
}
);
};
color = 10;
layerId = "C7A94C11-E66D-4F8C-9A39-C72274EB09D4";
shapes = (
{
alignment = 1;
ref = guilsinglleft;
},
{
alignment = 1;
pos = (174,0);
ref = guilsinglleft;
}
);
width = 505;
},
{
background = {
shapes = (
{
closed = 1;
nodes = (
(547,46,l),
(313,263,l),
(313,218,l),
(547,435,l),
(446,435,l),
(250,251,l),
(250,230,l),
(446,46,l)
);
},
{
closed = 1;
nodes = (
(332,46,l),
(98,263,l),
(98,218,l),
(332,435,l),
(231,435,l),
(35,251,l),
(35,230,l),
(231,46,l)
);
}
);
};
layerId = "80E8E332-7B59-4055-8C08-04349B956208";
shapes = (
{
alignment = 1;
ref = guilsinglleft;
},
{
alignment = 1;
pos = (215,0);
ref = guilsinglleft;
}
);
width = 597;
},
{
background = {
shapes = (
{
closed = 1;
nodes = (
(812,16,l),
(548,263,l),
(548,218,l),
(812,465,l),
(596,465,l),
(370,251,l),
(370,230,l),
(596,16,l)
);
},
{
closed = 1;
nodes = (
(477,16,l),
(213,263,l),
(213,218,l),
(477,465,l),
(261,465,l),
(35,251,l),
(35,230,l),
(261,16,l)
);
}
);
};
layerId = "66E383AE-0324-482F-BA05-BB2335E2BE22";
shapes = (
{
alignment = 1;
ref = guilsinglleft;
},
{
alignment = 1;
pos = (335,0);
ref = guilsinglleft;
}
);
width = 862;
}
);
unicode = 171;
},
{
color = 10;
glyphname = guillemetright;
kernLeft = guillemetright;
kernRight = guillemetright;
lastChange = "2026-02-06 15:08:23 +0000";
layers = (
{
background = {
anchors = (
{
name = "#entry";
pos = (291,240);
},
{
name = "#exit";
pos = (465,240);
}
);
shapes = (
{
closed = 1;
nodes = (
(269,46,l),
(465,230,l),
(465,251,l),
(269,435,l),
(229,435,l),
(449,231,l),
(449,250,l),
(229,46,l)
);
},
{
closed = 1;
nodes = (
(95,46,l),
(291,230,l),
(291,251,l),
(95,435,l),
(55,435,l),
(275,231,l),
(275,250,l),
(55,46,l)
);
}
);
};
color = 10;
layerId = "C7A94C11-E66D-4F8C-9A39-C72274EB09D4";
shapes = (
{
alignment = 1;
ref = guilsinglright;
},
{
alignment = 1;
pos = (174,0);
ref = guilsinglright;
}
);
width = 505;
},
{
background = {
anchors = (
{
name = "#entry";
pos = (347,240);
},
{
name = "#exit";
pos = (562,240);
}
);
shapes = (
{
closed = 1;
nodes = (
(366,46,l),
(562,230,l),
(562,251,l),
(366,435,l),
(265,435,l),
(499,218,l),
(499,263,l),
(265,46,l)
);
},
{
closed = 1;
nodes = (
(151,46,l),
(347,230,l),
(347,251,l),
(151,435,l),
(50,435,l),
(284,218,l),
(284,263,l),
(50,46,l)
);
}
);
};
layerId = "80E8E332-7B59-4055-8C08-04349B956208";
shapes = (
{
alignment = 1;
ref = guilsinglright;
},
{
alignment = 1;
pos = (215,0);
ref = guilsinglright;
}
);
width = 597;
},
{
background = {
anchors = (
{
name = "#entry";
pos = (377,240);
},
{
name = "#exit";
pos = (712,240);
}
);
shapes = (
{
closed = 1;
nodes = (
(601,16,l),
(827,230,l),
(827,251,l),
(601,465,l),
(385,465,l),
(649,218,l),
(649,263,l),
(385,16,l)
);
},
{
closed = 1;
nodes = (
(266,16,l),
(492,230,l),
(492,251,l),
(266,465,l),
(50,465,l),
(314,218,l),
(314,263,l),
(50,16,l)
);
}
);
};
layerId = "66E383AE-0324-482F-BA05-BB2335E2BE22";
shapes = (
{
alignment = 1;
ref = guilsinglright;
},
{
alignment = 1;
pos = (335,0);
ref = guilsinglright;
}
);
width = 862;
}
);
metricLeft = "=|guillemetleft";
metricRight = "=|guillemetleft";
unicode = 187;
},
{
glyphname = bullet;
lastChange = "2026-02-05 15:46:32 +0000";
layers = (
{
background = {
shapes = (
{
closed = 1;
nodes = (
(205,186,o),
(235,213,o),
(235,251,cs),
(235,289,o),
(205,316,o),
(170,316,cs),
(135,316,o),
(105,289,o),
(105,251,cs),
(105,213,o),
(135,186,o),
(170,186,cs)
);
}
);
};
layerId = "C7A94C11-E66D-4F8C-9A39-C72274EB09D4";
metricLeft = "=105";
shapes = (
{
closed = 1;
nodes = (
(205,185,o),
(235,212,o),
(235,250,cs),
(235,288,o),
(205,315,o),
(170,315,cs),
(135,315,o),
(105,288,o),
(105,250,cs),
(105,212,o),
(135,185,o),
(170,185,cs)
);
}
);
width = 340;
},
{
background = {
shapes = (
{
closed = 1;
nodes = (
(244,159,o),
(285,197,o),
(285,252,cs),
(285,306,o),
(244,344,o),
(193,344,cs),
(141,344,o),
(100,306,o),
(100,252,cs),
(100,197,o),
(141,159,o),
(193,159,cs)
);
}
);
};
layerId = "80E8E332-7B59-4055-8C08-04349B956208";
metricLeft = "=100";
shapes = (
{
closed = 1;
nodes = (
(244,158,o),
(285,196,o),
(285,251,cs),
(285,305,o),
(244,343,o),
(193,343,cs),
(141,343,o),
(100,305,o),
(100,251,cs),
(100,196,o),
(141,158,o),
(193,158,cs)
);
}
);
width = 385;
},
{
background = {
shapes = (
{
closed = 1;
nodes = (
(299,140,o),
(355,191,o),
(355,266,cs),
(355,339,o),
(299,390,o),
(228,390,cs),
(156,390,o),
(100,339,o),
(100,266,cs),
(100,191,o),
(156,140,o),
(228,140,cs)
);
}
);
};
layerId = "66E383AE-0324-482F-BA05-BB2335E2BE22";
metricLeft = "=100";
shapes = (
{
closed = 1;
nodes = (
(299,140,o),
(355,191,o),
(355,266,cs),
(355,339,o),
(299,390,o),
(228,390,cs),
(156,390,o),
(100,339,o),
(100,266,cs),
(100,191,o),
(156,140,o),
(228,140,cs)
);
}
);
width = 455;
}
);
metricRight = "=|";
unicode = 8226;
},
{
color = 10;
glyphname = hyphen;
kernLeft = hyphen;
kernRight = hyphen;
lastChange = "2026-02-06 15:09:11 +0000";
layers = (
{
background = {
shapes = (
{
closed = 1;
nodes = (
(285,238,l),
(285,263,l),
(30,263,l),
(30,238,l)
);
}
);
};
color = 10;
layerId = "C7A94C11-E66D-4F8C-9A39-C72274EB09D4";
metricLeft = "=30";
shapes = (
{
closed = 1;
nodes = (
(285,238,l),
(285,263,l),
(30,263,l),
(30,238,l)
);
}
);
width = 315;
},
{
background = {
shapes = (
{
closed = 1;
nodes = (
(285,213,l),
(285,288,l),
(30,288,l),
(30,213,l)
);
}
);
};
layerId = "80E8E332-7B59-4055-8C08-04349B956208";
metricLeft = "=30";
shapes = (
{
closed = 1;
nodes = (
(285,213,l),
(285,288,l),
(30,288,l),
(30,213,l)
);
}
);
width = 315;
},
{
background = {
shapes = (
{
closed = 1;
nodes = (
(360,188,l),
(360,343,l),
(30,343,l),
(30,188,l)
);
}
);
};
layerId = "66E383AE-0324-482F-BA05-BB2335E2BE22";
metricLeft = "=30";
shapes = (
{
closed = 1;
nodes = (
(360,188,l),
(360,343,l),
(30,343,l),
(30,188,l)
);
}
);
width = 390;
}
);
metricRight = "=|";
unicode = 45;
},
{
color = 7;
glyphname = endash;
kernLeft = hyphen;
kernRight = hyphen;
lastChange = "2026-02-05 15:46:32 +0000";
layers = (
{
background = {
shapes = (
{
closed = 1;
nodes = (
(525,238,l),
(525,263,l),
(30,263,l),
(30,238,l)
);
}
);
};
color = 0;
layerId = "C7A94C11-E66D-4F8C-9A39-C72274EB09D4";
shapes = (
{
closed = 1;
nodes = (
(525,238,l),
(525,263,l),
(30,263,l),
(30,238,l)
);
}
);
width = 555;
},
{
background = {
shapes = (
{
closed = 1;
nodes = (
(545,218,l),
(545,283,l),
(30,283,l),
(30,218,l)
);
}
);
};
layerId = "80E8E332-7B59-4055-8C08-04349B956208";
shapes = (
{
closed = 1;
nodes = (
(545,218,l),
(545,283,l),
(30,283,l),
(30,218,l)
);
}
);
width = 575;
},
{
background = {
shapes = (
{
closed = 1;
nodes = (
(545,210,l),
(545,320,l),
(30,320,l),
(30,210,l)
);
}
);
};
layerId = "66E383AE-0324-482F-BA05-BB2335E2BE22";
shapes = (
{
closed = 1;
nodes = (
(545,210,l),
(545,320,l),
(30,320,l),
(30,210,l)
);
}
);
width = 575;
}
);
metricLeft = "=hyphen";
metricRight = "=|";
unicode = 8211;
},
{
color = 7;
glyphname = emdash;
kernLeft = hyphen;
kernRight = hyphen;
lastChange = "2026-02-05 15:46:32 +0000";
layers = (
{
background = {
shapes = (
{
closed = 1;
nodes = (
(760,238,l),
(760,263,l),
(30,263,l),
(30,238,l)
);
}
);
};
color = 0;
layerId = "C7A94C11-E66D-4F8C-9A39-C72274EB09D4";
shapes = (
{
closed = 1;
nodes = (
(760,238,l),
(760,263,l),
(30,263,l),
(30,238,l)
);
}
);
width = 790;
},
{
background = {
shapes = (
{
closed = 1;
nodes = (
(780,218,l),
(780,283,l),
(30,283,l),
(30,218,l)
);
}
);
};
layerId = "80E8E332-7B59-4055-8C08-04349B956208";
shapes = (
{
closed = 1;
nodes = (
(780,218,l),
(780,283,l),
(30,283,l),
(30,218,l)
);
}
);
width = 810;
},
{
background = {
shapes = (
{
closed = 1;
nodes = (
(780,210,l),
(780,320,l),
(30,320,l),
(30,210,l)
);
}
);
};
layerId = "66E383AE-0324-482F-BA05-BB2335E2BE22";
shapes = (
{
closed = 1;
nodes = (
(780,210,l),
(780,320,l),
(30,320,l),
(30,210,l)
);
}
);
width = 810;
}
);
metricLeft = "=endash";
metricRight = "=|";
unicode = 8212;
},
{
color = 10;
glyphname = underscore;
kernLeft = underscore;
kernRight = underscore;
lastChange = "2026-02-08 09:36:51 +0000";
layers = (
{
background = {
shapes = (
{
closed = 1;
nodes = (
(365,-127,l),
(365,-100,l),
(-20,-100,l),
(-20,-127,l)
);
}
);
};
color = 10;
layerId = "C7A94C11-E66D-4F8C-9A39-C72274EB09D4";
metricLeft = "=-20";
shapes = (
{
closed = 1;
nodes = (
(365,-127,l),
(365,-100,l),
(-20,-100,l),
(-20,-127,l)
);
}
);
width = 345;
},
{
background = {
shapes = (
{
closed = 1;
nodes = (
(365,-170,l),
(365,-105,l),
(-20,-105,l),
(-20,-170,l)
);
}
);
};
layerId = "80E8E332-7B59-4055-8C08-04349B956208";
metricLeft = "=-20";
shapes = (
{
closed = 1;
nodes = (
(365,-165,l),
(365,-100,l),
(-20,-100,l),
(-20,-165,l)
);
}
);
width = 345;
},
{
background = {
shapes = (
{
closed = 1;
nodes = (
(435,-215,l),
(435,-105,l),
(-20,-105,l),
(-20,-215,l)
);
}
);
};
layerId = "66E383AE-0324-482F-BA05-BB2335E2BE22";
metricLeft = "=-20";
shapes = (
{
closed = 1;
nodes = (
(435,-210,l),
(435,-100,l),
(-20,-100,l),
(-20,-210,l)
);
}
);
width = 415;
}
);
metricRight = "=|";
unicode = 95;
},
{
color = 10;
glyphname = parenleft;
kernLeft = parenleft;
kernRight = parenleft;
lastChange = "2026-02-06 15:16:32 +0000";
layers = (
{
background = {
shapes = (
{
closed = 1;
nodes = (
(237,-200,l),
(176,-92,o),
(112,62,o),
(112,265,cs),
(112,468,o),
(176,622,o),
(237,730,c),
(207,730,l),
(144,622,o),
(80,479,o),
(80,265,cs),
(80,51,o),
(144,-92,o),
(207,-200,c)
);
}
);
};
color = 10;
layerId = "C7A94C11-E66D-4F8C-9A39-C72274EB09D4";
metricLeft = "=80";
metricRight = "=10";
shapes = (
{
closed = 1;
nodes = (
(237,-200,l),
(176,-92,o),
(112,62,o),
(112,265,cs),
(112,468,o),
(176,622,o),
(237,730,c),
(207,730,l),
(144,622,o),
(80,479,o),
(80,265,cs),
(80,51,o),
(144,-92,o),
(207,-200,c)
);
}
);
width = 247;
},
{
background = {
shapes = (
{
closed = 1;
nodes = (
(267,-200,l),
(206,-92,o),
(142,62,o),
(142,265,cs),
(142,468,o),
(206,622,o),
(267,730,c),
(197,730,l),
(134,622,o),
(70,479,o),
(70,265,cs),
(70,51,o),
(134,-92,o),
(197,-200,c)
);
}
);
};
layerId = "80E8E332-7B59-4055-8C08-04349B956208";
metricLeft = "=70";
metricRight = "=5";
shapes = (
{
closed = 1;
nodes = (
(267,-200,l),
(206,-92,o),
(142,62,o),
(142,265,cs),
(142,468,o),
(206,622,o),
(267,730,c),
(197,730,l),
(134,622,o),
(70,479,o),
(70,265,cs),
(70,51,o),
(134,-92,o),
(197,-200,c)
);
}
);
width = 272;
},
{
background = {
shapes = (
{
closed = 1;
nodes = (
(355,-200,l),
(294,-92,o),
(230,62,o),
(230,265,cs),
(230,468,o),
(294,622,o),
(355,730,c),
(197,730,l),
(134,622,o),
(70,474,o),
(70,265,cs),
(70,56,o),
(134,-92,o),
(197,-200,c)
);
}
);
};
layerId = "66E383AE-0324-482F-BA05-BB2335E2BE22";
metricLeft = "=70";
metricRight = "=5";
shapes = (
{
closed = 1;
nodes = (
(355,-200,l),
(294,-92,o),
(230,62,o),
(230,265,cs),
(230,468,o),
(294,622,o),
(355,730,c),
(197,730,l),
(134,622,o),
(70,474,o),
(70,265,cs),
(70,56,o),
(134,-92,o),
(197,-200,c)
);
}
);
width = 360;
}
);
unicode = 40;
},
{
color = 10;
glyphname = parenright;
kernLeft = parenright;
kernRight = parenright;
lastChange = "2026-02-06 15:13:56 +0000";
layers = (
{
background = {
shapes = (
{
closed = 1;
nodes = (
(40,-200,l),
(103,-92,o),
(167,51,o),
(167,265,cs),
(167,479,o),
(103,622,o),
(40,730,c),
(10,730,l),
(71,622,o),
(135,468,o),
(135,265,cs),
(135,62,o),
(71,-92,o),
(10,-200,c)
);
}
);
};
color = 10;
layerId = "C7A94C11-E66D-4F8C-9A39-C72274EB09D4";
shapes = (
{
closed = 1;
nodes = (
(40,-200,l),
(103,-92,o),
(167,51,o),
(167,265,cs),
(167,479,o),
(103,622,o),
(40,730,c),
(10,730,l),
(71,622,o),
(135,468,o),
(135,265,cs),
(135,62,o),
(71,-92,o),
(10,-200,c)
);
}
);
width = 247;
},
{
background = {
shapes = (
{
pos = (272,0);
ref = parenleft;
scale = (-1,1);
}
);
};
layerId = "80E8E332-7B59-4055-8C08-04349B956208";
shapes = (
{
closed = 1;
nodes = (
(75,-200,l),
(138,-92,o),
(202,51,o),
(202,265,cs),
(202,479,o),
(138,622,o),
(75,730,c),
(5,730,l),
(66,622,o),
(130,468,o),
(130,265,cs),
(130,62,o),
(66,-92,o),
(5,-200,c)
);
}
);
width = 272;
},
{
background = {
shapes = (
{
pos = (360,0);
ref = parenleft;
scale = (-1,1);
}
);
};
layerId = "66E383AE-0324-482F-BA05-BB2335E2BE22";
shapes = (
{
closed = 1;
nodes = (
(163,-200,l),
(226,-92,o),
(290,56,o),
(290,265,cs),
(290,474,o),
(226,622,o),
(163,730,c),
(5,730,l),
(66,622,o),
(130,468,o),
(130,265,cs),
(130,62,o),
(66,-92,o),
(5,-200,c)
);
}
);
width = 360;
}
);
metricLeft = "=|parenleft";
metricRight = "=|parenleft";
unicode = 41;
},
{
color = 10;
glyphname = bracketleft;
kernLeft = bracketleft;
kernRight = parenleft;
lastChange = "2026-02-06 14:07:02 +0000";
layers = (
{
background = {
shapes = (
{
closed = 1;
nodes = (
(290,-200,l),
(290,-173,l),
(135,-173,l),
(135,703,l),
(290,703,l),
(290,730,l),
(105,730,l),
(105,-200,l)
);
}
);
};
color = 0;
layerId = "C7A94C11-E66D-4F8C-9A39-C72274EB09D4";
metricLeft = "=105";
metricRight = "=25";
shapes = (
{
closed = 1;
nodes = (
(290,-200,l),
(290,-173,l),
(135,-173,l),
(135,703,l),
(290,703,l),
(290,730,l),
(105,730,l),
(105,-200,l)
);
}
);
width = 315;
},
{
background = {
shapes = (
{
closed = 1;
nodes = (
(280,-200,l),
(280,-135,l),
(165,-135,l),
(165,665,l),
(280,665,l),
(280,730,l),
(95,730,l),
(95,-200,l)
);
}
);
};
layerId = "80E8E332-7B59-4055-8C08-04349B956208";
metricLeft = "=95";
metricRight = "=20";
shapes = (
{
closed = 1;
nodes = (
(280,-200,l),
(280,-135,l),
(165,-135,l),
(165,665,l),
(280,665,l),
(280,730,l),
(95,730,l),
(95,-200,l)
);
}
);
width = 300;
},
{
background = {
shapes = (
{
closed = 1;
nodes = (
(365,-200,l),
(365,-65,l),
(250,-65,l),
(250,595,l),
(365,595,l),
(365,730,l),
(95,730,l),
(95,-200,l)
);
}
);
};
layerId = "66E383AE-0324-482F-BA05-BB2335E2BE22";
metricLeft = "=95";
metricRight = "=20";
shapes = (
{
closed = 1;
nodes = (
(365,-200,l),
(365,-65,l),
(250,-65,l),
(250,595,l),
(365,595,l),
(365,730,l),
(95,730,l),
(95,-200,l)
);
}
);
width = 385;
}
);
unicode = 91;
},
{
color = 7;
glyphname = bracketright;
kernLeft = parenright;
kernRight = bracketright;
lastChange = "2026-02-05 15:46:32 +0000";
layers = (
{
background = {
shapes = (
{
closed = 1;
nodes = (
(210,-200,l),
(210,730,l),
(25,730,l),
(25,703,l),
(180,703,l),
(180,-173,l),
(25,-173,l),
(25,-200,l)
);
}
);
};
color = 10;
layerId = "C7A94C11-E66D-4F8C-9A39-C72274EB09D4";
shapes = (
{
closed = 1;
nodes = (
(210,-200,l),
(210,730,l),
(25,730,l),
(25,703,l),
(180,703,l),
(180,-173,l),
(25,-173,l),
(25,-200,l)
);
}
);
width = 315;
},
{
background = {
shapes = (
{
pos = (300,0);
ref = bracketleft;
scale = (-1,1);
}
);
};
layerId = "80E8E332-7B59-4055-8C08-04349B956208";
shapes = (
{
closed = 1;
nodes = (
(205,-200,l),
(205,730,l),
(20,730,l),
(20,665,l),
(135,665,l),
(135,-135,l),
(20,-135,l),
(20,-200,l)
);
}
);
width = 300;
},
{
background = {
shapes = (
{
pos = (385,0);
ref = bracketleft;
scale = (-1,1);
}
);
};
layerId = "66E383AE-0324-482F-BA05-BB2335E2BE22";
shapes = (
{
closed = 1;
nodes = (
(290,-200,l),
(290,730,l),
(20,730,l),
(20,595,l),
(135,595,l),
(135,-65,l),
(20,-65,l),
(20,-200,l)
);
}
);
width = 385;
}
);
metricLeft = "=|bracketleft";
metricRight = "=|bracketleft";
unicode = 93;
},
{
color = 10;
glyphname = braceleft;
kernLeft = braceleft;
kernRight = parenleft;
lastChange = "2026-02-06 14:08:22 +0000";
layers = (
{
background = {
shapes = (
{
closed = 1;
nodes = (
(300,-200,l),
(300,-173,l),
(245,-173,ls),
(182,-173,o),
(145,-131,o),
(145,-60,cs),
(145,168,ls),
(145,239,o),
(117,262,o),
(76,271,c),
(76,259,l),
(117,268,o),
(145,291,o),
(145,362,cs),
(145,590,ls),
(145,661,o),
(182,703,o),
(245,703,cs),
(300,703,l),
(300,730,l),
(245,730,ls),
(164,730,o),
(115,677,o),
(115,590,cs),
(115,362,ls),
(115,301,o),
(91,279,o),
(45,279,cs),
(30,279,l),
(30,251,l),
(45,251,ls),
(91,251,o),
(115,229,o),
(115,168,cs),
(115,-60,ls),
(115,-147,o),
(164,-200,o),
(245,-200,cs)
);
}
);
};
color = 0;
layerId = "C7A94C11-E66D-4F8C-9A39-C72274EB09D4";
metricLeft = "=30";
shapes = (
{
closed = 1;
nodes = (
(300,-200,l),
(300,-173,l),
(245,-173,ls),
(182,-173,o),
(145,-131,o),
(145,-60,cs),
(145,168,ls),
(145,239,o),
(117,262,o),
(76,271,c),
(76,259,l),
(117,268,o),
(145,291,o),
(145,362,cs),
(145,590,ls),
(145,661,o),
(182,703,o),
(245,703,cs),
(300,703,l),
(300,730,l),
(245,730,ls),
(164,730,o),
(115,677,o),
(115,590,cs),
(115,362,ls),
(115,301,o),
(91,279,o),
(45,279,cs),
(30,279,l),
(30,251,l),
(45,251,ls),
(91,251,o),
(115,229,o),
(115,168,cs),
(115,-60,ls),
(115,-147,o),
(164,-200,o),
(245,-200,cs)
);
}
);
width = 325;
},
{
background = {
shapes = (
{
closed = 1;
nodes = (
(300,-200,l),
(300,-135,l),
(265,-135,ls),
(214,-135,o),
(185,-112,o),
(185,-45,cs),
(185,136,ls),
(185,229,o),
(149,270,o),
(76,281,c),
(76,249,l),
(149,260,o),
(185,301,o),
(185,394,cs),
(185,575,ls),
(185,642,o),
(214,665,o),
(265,665,cs),
(300,665,l),
(300,730,l),
(245,730,ls),
(161,730,o),
(115,674,o),
(115,590,cs),
(115,382,ls),
(115,321,o),
(91,300,o),
(44,300,cs),
(30,300,l),
(30,230,l),
(44,230,ls),
(91,230,o),
(115,209,o),
(115,148,cs),
(115,-60,ls),
(115,-144,o),
(161,-200,o),
(245,-200,cs)
);
}
);
};
layerId = "80E8E332-7B59-4055-8C08-04349B956208";
metricLeft = "=30";
shapes = (
{
closed = 1;
nodes = (
(300,-200,l),
(300,-135,l),
(265,-135,ls),
(214,-135,o),
(185,-112,o),
(185,-45,cs),
(185,136,ls),
(185,229,o),
(149,270,o),
(76,281,c),
(76,249,l),
(149,260,o),
(185,301,o),
(185,394,cs),
(185,575,ls),
(185,642,o),
(214,665,o),
(265,665,cs),
(300,665,l),
(300,730,l),
(245,730,ls),
(161,730,o),
(115,674,o),
(115,590,cs),
(115,382,ls),
(115,321,o),
(91,300,o),
(44,300,cs),
(30,300,l),
(30,230,l),
(44,230,ls),
(91,230,o),
(115,209,o),
(115,148,cs),
(115,-60,ls),
(115,-144,o),
(161,-200,o),
(245,-200,cs)
);
}
);
width = 320;
},
{
background = {
shapes = (
{
closed = 1;
nodes = (
(395,-200,l),
(395,-65,l),
(375,-65,ls),
(314,-65,o),
(280,-38,o),
(280,25,cs),
(280,136,ls),
(280,229,o),
(234,270,o),
(161,281,c),
(161,249,l),
(234,260,o),
(280,301,o),
(280,394,cs),
(280,505,ls),
(280,568,o),
(314,595,o),
(375,595,cs),
(395,595,l),
(395,730,l),
(295,730,ls),
(186,730,o),
(125,659,o),
(125,545,cs),
(125,417,ls),
(125,356,o),
(101,335,o),
(54,335,cs),
(30,335,l),
(30,195,l),
(54,195,ls),
(101,195,o),
(125,174,o),
(125,113,cs),
(125,-15,ls),
(125,-129,o),
(186,-200,o),
(295,-200,cs)
);
}
);
};
layerId = "66E383AE-0324-482F-BA05-BB2335E2BE22";
metricLeft = "=30";
shapes = (
{
closed = 1;
nodes = (
(395,-200,l),
(395,-65,l),
(375,-65,ls),
(314,-65,o),
(280,-38,o),
(280,25,cs),
(280,136,ls),
(280,229,o),
(234,270,o),
(161,281,c),
(161,249,l),
(234,260,o),
(280,301,o),
(280,394,cs),
(280,505,ls),
(280,568,o),
(314,595,o),
(375,595,cs),
(395,595,l),
(395,730,l),
(295,730,ls),
(186,730,o),
(125,659,o),
(125,545,cs),
(125,417,ls),
(125,356,o),
(101,335,o),
(54,335,cs),
(30,335,l),
(30,195,l),
(54,195,ls),
(101,195,o),
(125,174,o),
(125,113,cs),
(125,-15,ls),
(125,-129,o),
(186,-200,o),
(295,-200,cs)
);
}
);
width = 415;
}
);
metricRight = "=bracketleft";
unicode = 123;
},
{
color = 7;
glyphname = braceright;
kernLeft = parenright;
kernRight = braceright;
lastChange = "2026-02-05 15:46:32 +0000";
layers = (
{
background = {
shapes = (
{
closed = 1;
nodes = (
(80,-200,ls),
(161,-200,o),
(210,-147,o),
(210,-60,cs),
(210,168,ls),
(210,229,o),
(234,251,o),
(280,251,cs),
(295,251,l),
(295,279,l),
(280,279,ls),
(234,279,o),
(210,301,o),
(210,362,cs),
(210,590,ls),
(210,677,o),
(161,730,o),
(80,730,cs),
(25,730,l),
(25,703,l),
(80,703,ls),
(143,703,o),
(180,661,o),
(180,590,cs),
(180,362,ls),
(180,291,o),
(208,268,o),
(249,259,c),
(249,271,l),
(208,262,o),
(180,239,o),
(180,168,cs),
(180,-60,ls),
(180,-131,o),
(143,-173,o),
(80,-173,cs),
(25,-173,l),
(25,-200,l)
);
}
);
};
color = 10;
layerId = "C7A94C11-E66D-4F8C-9A39-C72274EB09D4";
shapes = (
{
closed = 1;
nodes = (
(80,-200,ls),
(161,-200,o),
(210,-147,o),
(210,-60,cs),
(210,168,ls),
(210,229,o),
(234,251,o),
(280,251,cs),
(295,251,l),
(295,279,l),
(280,279,ls),
(234,279,o),
(210,301,o),
(210,362,cs),
(210,590,ls),
(210,677,o),
(161,730,o),
(80,730,cs),
(25,730,l),
(25,703,l),
(80,703,ls),
(143,703,o),
(180,661,o),
(180,590,cs),
(180,362,ls),
(180,291,o),
(208,268,o),
(249,259,c),
(249,271,l),
(208,262,o),
(180,239,o),
(180,168,cs),
(180,-60,ls),
(180,-131,o),
(143,-173,o),
(80,-173,cs),
(25,-173,l),
(25,-200,l)
);
}
);
width = 325;
},
{
background = {
shapes = (
{
pos = (320,0);
ref = braceleft;
scale = (-1,1);
}
);
};
layerId = "80E8E332-7B59-4055-8C08-04349B956208";
shapes = (
{
closed = 1;
nodes = (
(75,-200,ls),
(159,-200,o),
(205,-144,o),
(205,-60,cs),
(205,148,ls),
(205,209,o),
(229,230,o),
(276,230,cs),
(290,230,l),
(290,300,l),
(276,300,ls),
(229,300,o),
(205,321,o),
(205,382,cs),
(205,590,ls),
(205,674,o),
(159,730,o),
(75,730,cs),
(20,730,l),
(20,665,l),
(55,665,ls),
(106,665,o),
(135,642,o),
(135,575,cs),
(135,394,ls),
(135,301,o),
(171,260,o),
(244,249,c),
(244,281,l),
(171,270,o),
(135,229,o),
(135,136,cs),
(135,-45,ls),
(135,-112,o),
(106,-135,o),
(55,-135,cs),
(20,-135,l),
(20,-200,l)
);
}
);
width = 320;
},
{
background = {
shapes = (
{
pos = (415,0);
ref = braceleft;
scale = (-1,1);
}
);
};
layerId = "66E383AE-0324-482F-BA05-BB2335E2BE22";
shapes = (
{
closed = 1;
nodes = (
(120,-200,ls),
(229,-200,o),
(290,-129,o),
(290,-15,cs),
(290,113,ls),
(290,174,o),
(314,195,o),
(361,195,cs),
(385,195,l),
(385,335,l),
(361,335,ls),
(314,335,o),
(290,356,o),
(290,417,cs),
(290,545,ls),
(290,659,o),
(229,730,o),
(120,730,cs),
(20,730,l),
(20,595,l),
(40,595,ls),
(101,595,o),
(135,568,o),
(135,505,cs),
(135,394,ls),
(135,301,o),
(181,260,o),
(254,249,c),
(254,281,l),
(181,270,o),
(135,229,o),
(135,136,cs),
(135,25,ls),
(135,-38,o),
(101,-65,o),
(40,-65,cs),
(20,-65,l),
(20,-200,l)
);
}
);
width = 415;
}
);
metricLeft = "=|braceleft";
metricRight = "=|braceleft";
unicode = 125;
},
{
glyphname = bar;
lastChange = "2026-02-05 15:46:32 +0000";
layers = (
{
background = {
shapes = (
{
closed = 1;
nodes = (
(148,-180,l),
(148,700,l),
(120,700,l),
(120,-180,l)
);
}
);
};
layerId = "C7A94C11-E66D-4F8C-9A39-C72274EB09D4";
metricLeft = "=120";
shapes = (
{
closed = 1;
nodes = (
(148,-180,l),
(148,700,l),
(120,700,l),
(120,-180,l)
);
}
);
width = 268;
},
{
background = {
shapes = (
{
closed = 1;
nodes = (
(185,-180,l),
(185,700,l),
(120,700,l),
(120,-180,l)
);
}
);
};
layerId = "80E8E332-7B59-4055-8C08-04349B956208";
metricLeft = "=120";
shapes = (
{
closed = 1;
nodes = (
(185,-180,l),
(185,700,l),
(120,700,l),
(120,-180,l)
);
}
);
width = 305;
},
{
background = {
shapes = (
{
closed = 1;
nodes = (
(290,-180,l),
(290,700,l),
(120,700,l),
(120,-180,l)
);
}
);
};
layerId = "66E383AE-0324-482F-BA05-BB2335E2BE22";
metricLeft = "=120";
shapes = (
{
closed = 1;
nodes = (
(290,-180,l),
(290,700,l),
(120,700,l),
(120,-180,l)
);
}
);
width = 410;
}
);
metricRight = "=|";
unicode = 124;
},
{
glyphname = brokenbar;
lastChange = "2026-02-05 15:46:32 +0000";
layers = (
{
background = {
shapes = (
{
closed = 1;
nodes = (
(148,325,l),
(148,700,l),
(120,700,l),
(120,325,l)
);
},
{
closed = 1;
nodes = (
(148,-180,l),
(148,195,l),
(120,195,l),
(120,-180,l)
);
}
);
};
layerId = "C7A94C11-E66D-4F8C-9A39-C72274EB09D4";
shapes = (
{
closed = 1;
nodes = (
(148,325,l),
(148,700,l),
(120,700,l),
(120,325,l)
);
},
{
closed = 1;
nodes = (
(148,-180,l),
(148,195,l),
(120,195,l),
(120,-180,l)
);
}
);
width = 268;
},
{
background = {
shapes = (
{
closed = 1;
nodes = (
(185,325,l),
(185,700,l),
(120,700,l),
(120,325,l)
);
},
{
closed = 1;
nodes = (
(185,-180,l),
(185,195,l),
(120,195,l),
(120,-180,l)
);
}
);
};
layerId = "80E8E332-7B59-4055-8C08-04349B956208";
shapes = (
{
closed = 1;
nodes = (
(185,325,l),
(185,700,l),
(120,700,l),
(120,325,l)
);
},
{
closed = 1;
nodes = (
(185,-180,l),
(185,195,l),
(120,195,l),
(120,-180,l)
);
}
);
width = 305;
},
{
background = {
shapes = (
{
closed = 1;
nodes = (
(290,325,l),
(290,700,l),
(120,700,l),
(120,325,l)
);
},
{
closed = 1;
nodes = (
(290,-180,l),
(290,195,l),
(120,195,l),
(120,-180,l)
);
}
);
};
layerId = "66E383AE-0324-482F-BA05-BB2335E2BE22";
shapes = (
{
closed = 1;
nodes = (
(290,325,l),
(290,700,l),
(120,700,l),
(120,325,l)
);
},
{
closed = 1;
nodes = (
(290,-180,l),
(290,195,l),
(120,195,l),
(120,-180,l)
);
}
);
width = 410;
}
);
metricLeft = "=bar";
metricRight = "=|";
unicode = 166;
},
{
glyphname = dagger;
lastChange = "2026-02-05 15:46:32 +0000";
layers = (
{
background = {
shapes = (
{
closed = 1;
nodes = (
(221,185,l),
(221,700,l),
(193,700,l),
(193,185,l)
);
},
{
closed = 1;
nodes = (
(360,522,l),
(360,549,l),
(55,549,l),
(55,522,l)
);
}
);
};
layerId = "C7A94C11-E66D-4F8C-9A39-C72274EB09D4";
metricLeft = "=55";
shapes = (
{
closed = 1;
nodes = (
(221,185,l),
(221,700,l),
(193,700,l),
(193,185,l)
);
},
{
closed = 1;
nodes = (
(360,522,l),
(360,549,l),
(55,549,l),
(55,522,l)
);
}
);
width = 415;
},
{
background = {
shapes = (
{
closed = 1;
nodes = (
(235,185,l),
(235,700,l),
(170,700,l),
(170,185,l)
);
},
{
closed = 1;
nodes = (
(360,505,l),
(360,565,l),
(45,565,l),
(45,505,l)
);
}
);
};
layerId = "80E8E332-7B59-4055-8C08-04349B956208";
metricLeft = "=45";
shapes = (
{
closed = 1;
nodes = (
(235,185,l),
(235,700,l),
(170,700,l),
(170,185,l)
);
},
{
closed = 1;
nodes = (
(360,505,l),
(360,565,l),
(45,565,l),
(45,505,l)
);
}
);
width = 405;
},
{
background = {
shapes = (
{
closed = 1;
nodes = (
(270,185,l),
(270,700,l),
(160,700,l),
(160,185,l)
);
},
{
closed = 1;
nodes = (
(385,460,l),
(385,565,l),
(45,565,l),
(45,460,l)
);
}
);
};
layerId = "66E383AE-0324-482F-BA05-BB2335E2BE22";
metricLeft = "=45";
shapes = (
{
closed = 1;
nodes = (
(270,185,l),
(270,700,l),
(160,700,l),
(160,185,l)
);
},
{
closed = 1;
nodes = (
(385,460,l),
(385,565,l),
(45,565,l),
(45,460,l)
);
}
);
width = 430;
}
);
metricRight = "=|";
unicode = 8224;
},
{
glyphname = daggerdbl;
lastChange = "2026-02-05 15:46:32 +0000";
layers = (
{
background = {
shapes = (
{
closed = 1;
nodes = (
(221,185,l),
(221,700,l),
(193,700,l),
(193,185,l)
);
},
{
closed = 1;
nodes = (
(360,336,l),
(360,363,l),
(55,363,l),
(55,336,l)
);
},
{
closed = 1;
nodes = (
(360,522,l),
(360,549,l),
(55,549,l),
(55,522,l)
);
}
);
};
layerId = "C7A94C11-E66D-4F8C-9A39-C72274EB09D4";
shapes = (
{
closed = 1;
nodes = (
(221,185,l),
(221,700,l),
(193,700,l),
(193,185,l)
);
},
{
closed = 1;
nodes = (
(360,336,l),
(360,363,l),
(55,363,l),
(55,336,l)
);
},
{
closed = 1;
nodes = (
(360,522,l),
(360,549,l),
(55,549,l),
(55,522,l)
);
}
);
width = 415;
},
{
background = {
shapes = (
{
closed = 1;
nodes = (
(235,185,l),
(235,700,l),
(170,700,l),
(170,185,l)
);
},
{
closed = 1;
nodes = (
(360,320,l),
(360,380,l),
(45,380,l),
(45,320,l)
);
},
{
closed = 1;
nodes = (
(360,505,l),
(360,565,l),
(45,565,l),
(45,505,l)
);
}
);
};
layerId = "80E8E332-7B59-4055-8C08-04349B956208";
shapes = (
{
closed = 1;
nodes = (
(235,185,l),
(235,700,l),
(170,700,l),
(170,185,l)
);
},
{
closed = 1;
nodes = (
(360,320,l),
(360,380,l),
(45,380,l),
(45,320,l)
);
},
{
closed = 1;
nodes = (
(360,505,l),
(360,565,l),
(45,565,l),
(45,505,l)
);
}
);
width = 405;
},
{
background = {
shapes = (
{
closed = 1;
nodes = (
(270,185,l),
(270,700,l),
(160,700,l),
(160,185,l)
);
},
{
closed = 1;
nodes = (
(385,295,l),
(385,400,l),
(45,400,l),
(45,295,l)
);
},
{
closed = 1;
nodes = (
(385,485,l),
(385,590,l),
(45,590,l),
(45,485,l)
);
}
);
};
layerId = "66E383AE-0324-482F-BA05-BB2335E2BE22";
shapes = (
{
closed = 1;
nodes = (
(270,185,l),
(270,700,l),
(160,700,l),
(160,185,l)
);
},
{
closed = 1;
nodes = (
(385,295,l),
(385,400,l),
(45,400,l),
(45,295,l)
);
},
{
closed = 1;
nodes = (
(385,485,l),
(385,590,l),
(45,590,l),
(45,485,l)
);
}
);
width = 430;
}
);
metricLeft = "=dagger";
metricRight = "=|";
unicode = 8225;
},
{
glyphname = slash;
kernLeft = slash;
kernRight = slash;
lastChange = "2026-02-05 15:46:32 +0000";
layers = (
{
background = {
shapes = (
{
closed = 1;
nodes = (
(29,-210,l),
(321,730,l),
(292,730,l),
(0,-210,l)
);
}
);
};
layerId = "C7A94C11-E66D-4F8C-9A39-C72274EB09D4";
shapes = (
{
closed = 1;
nodes = (
(29,-210,l),
(321,730,l),
(292,730,l),
(0,-210,l)
);
}
);
width = 321;
},
{
background = {
shapes = (
{
closed = 1;
nodes = (
(74,-210,l),
(366,730,l),
(292,730,l),
(0,-210,l)
);
}
);
};
layerId = "80E8E332-7B59-4055-8C08-04349B956208";
shapes = (
{
closed = 1;
nodes = (
(74,-210,l),
(366,730,l),
(292,730,l),
(0,-210,l)
);
}
);
width = 366;
},
{
background = {
shapes = (
{
closed = 1;
nodes = (
(158,-210,l),
(450,730,l),
(282,730,l),
(-10,-210,l)
);
}
);
};
layerId = "66E383AE-0324-482F-BA05-BB2335E2BE22";
shapes = (
{
closed = 1;
nodes = (
(158,-210,l),
(450,730,l),
(282,730,l),
(-10,-210,l)
);
}
);
width = 440;
}
);
metricRight = "=|";
unicode = 47;
},
{
glyphname = backslash;
kernLeft = backslash;
kernRight = backslash;
lastChange = "2026-02-05 15:46:32 +0000";
layers = (
{
background = {
shapes = (
{
closed = 1;
nodes = (
(322,-210,l),
(30,730,l),
(0,730,l),
(292,-210,l)
);
}
);
};
layerId = "C7A94C11-E66D-4F8C-9A39-C72274EB09D4";
shapes = (
{
closed = 1;
nodes = (
(322,-210,l),
(30,730,l),
(0,730,l),
(292,-210,l)
);
}
);
width = 322;
},
{
background = {
shapes = (
{
closed = 1;
nodes = (
(366,-210,l),
(74,730,l),
(0,730,l),
(292,-210,l)
);
}
);
};
layerId = "80E8E332-7B59-4055-8C08-04349B956208";
shapes = (
{
closed = 1;
nodes = (
(366,-210,l),
(74,730,l),
(0,730,l),
(292,-210,l)
);
}
);
width = 366;
},
{
background = {
shapes = (
{
closed = 1;
nodes = (
(450,-210,l),
(158,730,l),
(-10,730,l),
(282,-210,l)
);
}
);
};
layerId = "66E383AE-0324-482F-BA05-BB2335E2BE22";
shapes = (
{
closed = 1;
nodes = (
(450,-210,l),
(158,730,l),
(-10,730,l),
(282,-210,l)
);
}
);
width = 440;
}
);
metricRight = "=|";
unicode = 92;
},
{
glyphname = numbersign;
lastChange = "2026-02-05 15:46:32 +0000";
layers = (
{
background = {
shapes = (
{
closed = 1;
nodes = (
(373,0,l),
(580,700,l),
(550,700,l),
(343,0,l)
);
},
{
closed = 1;
nodes = (
(569,200,l),
(577,227,l),
(23,227,l),
(15,200,l)
);
},
{
closed = 1;
nodes = (
(123,0,l),
(330,700,l),
(300,700,l),
(93,0,l)
);
},
{
closed = 1;
nodes = (
(650,474,l),
(658,501,l),
(104,501,l),
(96,474,l)
);
}
);
};
layerId = "C7A94C11-E66D-4F8C-9A39-C72274EB09D4";
metricLeft = "=15";
metricRight = "=15";
shapes = (
{
closed = 1;
nodes = (
(373,0,l),
(580,700,l),
(550,700,l),
(343,0,l)
);
},
{
closed = 1;
nodes = (
(569,200,l),
(577,227,l),
(23,227,l),
(15,200,l)
);
},
{
closed = 1;
nodes = (
(123,0,l),
(330,700,l),
(300,700,l),
(93,0,l)
);
},
{
closed = 1;
nodes = (
(650,474,l),
(658,501,l),
(104,501,l),
(96,474,l)
);
}
);
width = 673;
},
{
background = {
shapes = (
{
closed = 1;
nodes = (
(401,0,l),
(608,700,l),
(534,700,l),
(327,0,l)
);
},
{
closed = 1;
nodes = (
(574,179,l),
(594,247,l),
(30,247,l),
(10,179,l)
);
},
{
closed = 1;
nodes = (
(151,0,l),
(358,700,l),
(284,700,l),
(77,0,l)
);
},
{
closed = 1;
nodes = (
(655,453,l),
(675,521,l),
(111,521,l),
(91,453,l)
);
}
);
};
layerId = "80E8E332-7B59-4055-8C08-04349B956208";
metricLeft = "=10";
metricRight = "=10";
shapes = (
{
closed = 1;
nodes = (
(401,0,l),
(608,700,l),
(534,700,l),
(327,0,l)
);
},
{
closed = 1;
nodes = (
(574,179,l),
(594,247,l),
(30,247,l),
(10,179,l)
);
},
{
closed = 1;
nodes = (
(151,0,l),
(358,700,l),
(284,700,l),
(77,0,l)
);
},
{
closed = 1;
nodes = (
(655,453,l),
(675,521,l),
(111,521,l),
(91,453,l)
);
}
);
width = 685;
},
{
background = {
shapes = (
{
closed = 1;
nodes = (
(469,0,l),
(676,700,l),
(540,700,l),
(333,0,l)
);
},
{
closed = 1;
nodes = (
(635,154,l),
(670,274,l),
(45,274,l),
(10,154,l)
);
},
{
closed = 1;
nodes = (
(220,0,l),
(427,700,l),
(291,700,l),
(84,0,l)
);
},
{
closed = 1;
nodes = (
(715,426,l),
(750,546,l),
(125,546,l),
(90,426,l)
);
}
);
};
layerId = "66E383AE-0324-482F-BA05-BB2335E2BE22";
metricLeft = "=10";
metricRight = "=10";
shapes = (
{
closed = 1;
nodes = (
(469,0,l),
(676,700,l),
(540,700,l),
(333,0,l)
);
},
{
closed = 1;
nodes = (
(635,154,l),
(670,274,l),
(45,274,l),
(10,154,l)
);
},
{
closed = 1;
nodes = (
(220,0,l),
(427,700,l),
(291,700,l),
(84,0,l)
);
},
{
closed = 1;
nodes = (
(715,426,l),
(750,546,l),
(125,546,l),
(90,426,l)
);
}
);
width = 760;
}
);
unicode = 35;
},
{
glyphname = numbersign.sc;
lastChange = "2026-02-05 15:46:32 +0000";
layers = (
{
background = {
shapes = (
{
closed = 1;
nodes = (
(313,0,l),
(489,560,l),
(459,560,l),
(283,0,l)
);
},
{
closed = 1;
nodes = (
(477,157,l),
(485,184,l),
(13,184,l),
(5,157,l)
);
},
{
closed = 1;
nodes = (
(100,0,l),
(276,560,l),
(246,560,l),
(70,0,l)
);
},
{
closed = 1;
nodes = (
(546,376,l),
(554,403,l),
(82,403,l),
(74,376,l)
);
}
);
};
layerId = "C7A94C11-E66D-4F8C-9A39-C72274EB09D4";
metricLeft = "=numbersign-10";
metricRight = "=numbersign-10";
shapes = (
{
closed = 1;
nodes = (
(313,0,l),
(489,560,l),
(459,560,l),
(283,0,l)
);
},
{
closed = 1;
nodes = (
(477,157,l),
(485,184,l),
(13,184,l),
(5,157,l)
);
},
{
closed = 1;
nodes = (
(100,0,l),
(276,560,l),
(246,560,l),
(70,0,l)
);
},
{
closed = 1;
nodes = (
(546,376,l),
(554,403,l),
(82,403,l),
(74,376,l)
);
}
);
userData = {
RMXScaler = {
adjustSpace = 8;
height = 80;
width = 85;
};
};
width = 559;
},
{
background = {
shapes = (
{
closed = 1;
nodes = (
(337,0,l),
(513,560,l),
(446,560,l),
(270,0,l)
);
},
{
closed = 1;
nodes = (
(484,141,l),
(502,200,l),
(18,200,l),
(0,141,l)
);
},
{
closed = 1;
nodes = (
(125,0,l),
(301,560,l),
(234,560,l),
(58,0,l)
);
},
{
closed = 1;
nodes = (
(553,360,l),
(571,419,l),
(87,419,l),
(69,360,l)
);
}
);
};
layerId = "80E8E332-7B59-4055-8C08-04349B956208";
metricLeft = "=numbersign-10";
metricRight = "=numbersign-10";
shapes = (
{
closed = 1;
nodes = (
(337,0,l),
(513,560,l),
(446,560,l),
(270,0,l)
);
},
{
closed = 1;
nodes = (
(484,141,l),
(502,200,l),
(18,200,l),
(0,141,l)
);
},
{
closed = 1;
nodes = (
(125,0,l),
(301,560,l),
(234,560,l),
(58,0,l)
);
},
{
closed = 1;
nodes = (
(553,360,l),
(571,419,l),
(87,419,l),
(69,360,l)
);
}
);
userData = {
RMXScaler = {
adjustSpace = 12;
height = 80;
weight = -2;
width = 85;
};
};
width = 571;
},
{
background = {
shapes = (
{
closed = 1;
nodes = (
(423,0,l),
(609,610,l),
(482,610,l),
(295,0,l)
);
},
{
closed = 1;
nodes = (
(571,131,l),
(604,243,l),
(38,243,l),
(5,131,l)
);
},
{
closed = 1;
nodes = (
(199,0,l),
(385,610,l),
(258,610,l),
(71,0,l)
);
},
{
closed = 1;
nodes = (
(643,368,l),
(676,480,l),
(110,480,l),
(77,368,l)
);
}
);
};
layerId = "66E383AE-0324-482F-BA05-BB2335E2BE22";
metricLeft = "=numbersign-5";
metricRight = "=numbersign-5";
shapes = (
{
closed = 1;
nodes = (
(423,0,l),
(609,610,l),
(482,610,l),
(295,0,l)
);
},
{
closed = 1;
nodes = (
(571,131,l),
(604,243,l),
(38,243,l),
(5,131,l)
);
},
{
closed = 1;
nodes = (
(199,0,l),
(385,610,l),
(258,610,l),
(71,0,l)
);
},
{
closed = 1;
nodes = (
(643,368,l),
(676,480,l),
(110,480,l),
(77,368,l)
);
}
);
userData = {
RMXScaler = {
adjustSpace = 10;
height = 87.2;
weight = -12;
width = 90;
};
};
width = 681;
}
);
userData = {
RMXScaler = {
source = numbersign;
};
};
},
{
glyphname = numero;
lastChange = "2026-02-05 15:46:32 +0000";
layers = (
{
background = {
shapes = (
{
closed = 1;
nodes = (
(297,0,l),
(297,22,l),
(212,27,l),
(212,667,l),
(199,665,l),
(622,0,l),
(652,0,l),
(652,673,l),
(737,678,l),
(737,700,l),
(537,700,l),
(537,678,l),
(622,673,l),
(622,33,l),
(635,35,l),
(212,700,l),
(97,700,l),
(97,678,l),
(182,673,l),
(182,27,l),
(97,22,l),
(97,0,l)
);
},
{
closed = 1;
nodes = (
(1069,0,l),
(1069,27,l),
(767,27,l),
(767,0,l)
);
},
{
closed = 1;
nodes = (
(1006,141,o),
(1079,209,o),
(1079,301,cs),
(1079,393,o),
(1006,461,o),
(918,461,cs),
(830,461,o),
(757,393,o),
(757,301,cs),
(757,209,o),
(830,141,o),
(918,141,cs)
);
},
{
closed = 1;
nodes = (
(843,169,o),
(785,226,o),
(785,301,cs),
(785,376,o),
(843,433,o),
(918,433,cs),
(993,433,o),
(1051,376,o),
(1051,301,cs),
(1051,226,o),
(993,169,o),
(918,169,cs)
);
}
);
};
layerId = "C7A94C11-E66D-4F8C-9A39-C72274EB09D4";
metricRight = "=45";
shapes = (
{
closed = 1;
nodes = (
(258,0,l),
(258,22,l),
(173,27,l),
(173,667,l),
(178,667,l),
(605,0,l),
(652,0,l),
(652,673,l),
(737,678,l),
(737,700,l),
(539,700,l),
(539,678,l),
(624,673,l),
(624,33,l),
(619,33,l),
(192,700,l),
(60,700,l),
(60,678,l),
(145,673,l),
(145,27,l),
(60,22,l),
(60,0,l)
);
},
{
closed = 1;
nodes = (
(1059,0,l),
(1059,27,l),
(767,27,l),
(767,0,l)
);
},
{
closed = 1;
nodes = (
(1003,141,o),
(1069,209,o),
(1069,301,cs),
(1069,393,o),
(1003,461,o),
(913,461,cs),
(823,461,o),
(757,393,o),
(757,301,cs),
(757,209,o),
(823,141,o),
(913,141,cs)
);
},
{
closed = 1;
nodes = (
(836,169,o),
(785,226,o),
(785,301,cs),
(785,376,o),
(836,433,o),
(913,433,cs),
(990,433,o),
(1041,376,o),
(1041,301,cs),
(1041,226,o),
(990,169,o),
(913,169,cs)
);
}
);
width = 1114;
},
{
background = {
shapes = (
{
closed = 1;
nodes = (
(313,0,l),
(313,50,l),
(228,65,l),
(228,592,l),
(215,590,l),
(578,0,l),
(653,0,l),
(653,635,l),
(738,650,l),
(738,700,l),
(493,700,l),
(493,650,l),
(578,635,l),
(578,108,l),
(591,110,l),
(228,700,l),
(68,700,l),
(68,650,l),
(153,635,l),
(153,65,l),
(68,50,l),
(68,0,l)
);
},
{
closed = 1;
nodes = (
(1050,0,l),
(1050,65,l),
(748,65,l),
(748,0,l)
);
},
{
closed = 1;
nodes = (
(987,140,o),
(1060,208,o),
(1060,300,cs),
(1060,392,o),
(987,460,o),
(899,460,cs),
(811,460,o),
(738,392,o),
(738,300,cs),
(738,208,o),
(811,140,o),
(899,140,cs)
);
},
{
closed = 1;
nodes = (
(845,200,o),
(803,239,o),
(803,300,cs),
(803,361,o),
(845,400,o),
(899,400,cs),
(953,400,o),
(995,361,o),
(995,300,cs),
(995,239,o),
(953,200,o),
(899,200,cs)
);
}
);
};
layerId = "80E8E332-7B59-4055-8C08-04349B956208";
metricRight = "=35";
shapes = (
{
closed = 1;
nodes = (
(290,0,l),
(290,50,l),
(205,65,l),
(205,576,l),
(215,576,l),
(573,0,l),
(655,0,l),
(655,635,l),
(740,650,l),
(740,700,l),
(500,700,l),
(500,650,l),
(585,635,l),
(585,124,l),
(575,124,l),
(217,700,l),
(50,700,l),
(50,650,l),
(135,635,l),
(135,65,l),
(50,50,l),
(50,0,l)
);
},
{
closed = 1;
nodes = (
(1040,0,l),
(1040,65,l),
(748,65,l),
(748,0,l)
);
},
{
closed = 1;
nodes = (
(985,140,o),
(1050,209,o),
(1050,300,cs),
(1050,391,o),
(985,460,o),
(894,460,cs),
(803,460,o),
(738,391,o),
(738,300,cs),
(738,209,o),
(803,140,o),
(894,140,cs)
);
},
{
closed = 1;
nodes = (
(837,200,o),
(803,240,o),
(803,300,cs),
(803,360,o),
(837,400,o),
(894,400,cs),
(950,400,o),
(985,359,o),
(985,300,cs),
(985,241,o),
(950,200,o),
(894,200,cs)
);
}
);
width = 1085;
},
{
background = {
shapes = (
{
closed = 1;
nodes = (
(385,0,l),
(385,105,l),
(305,120,l),
(305,412,l),
(292,410,l),
(545,0,l),
(710,0,l),
(710,580,l),
(790,595,l),
(790,700,l),
(460,700,l),
(460,595,l),
(540,580,l),
(540,288,l),
(553,290,l),
(300,700,l),
(55,700,l),
(55,595,l),
(135,580,l),
(135,120,l),
(55,105,l),
(55,0,l)
);
},
{
closed = 1;
nodes = (
(1117,0,l),
(1117,130,l),
(795,130,l),
(795,0,l)
);
},
{
closed = 1;
nodes = (
(1059,175,o),
(1137,253,o),
(1137,347,cs),
(1137,442,o),
(1059,520,o),
(956,520,cs),
(853,520,o),
(775,442,o),
(775,347,cs),
(775,253,o),
(853,175,o),
(956,175,cs)
);
},
{
closed = 1;
nodes = (
(918,280,o),
(890,310,o),
(890,347,cs),
(890,385,o),
(918,415,o),
(956,415,cs),
(994,415,o),
(1022,385,o),
(1022,347,cs),
(1022,310,o),
(994,280,o),
(956,280,cs)
);
}
);
};
layerId = "66E383AE-0324-482F-BA05-BB2335E2BE22";
metricRight = "=25";
shapes = (
{
closed = 1;
nodes = (
(345,0,l),
(345,105,l),
(265,120,l),
(265,408,l),
(275,408,l),
(540,0,l),
(710,0,l),
(710,580,l),
(790,595,l),
(790,700,l),
(470,700,l),
(470,595,l),
(550,580,l),
(550,292,l),
(540,292,l),
(275,700,l),
(25,700,l),
(25,595,l),
(105,580,l),
(105,120,l),
(25,105,l),
(25,0,l)
);
},
{
closed = 1;
nodes = (
(1105,0,l),
(1105,130,l),
(795,130,l),
(795,0,l)
);
},
{
closed = 1;
nodes = (
(1053,175,o),
(1125,253,o),
(1125,347,cs),
(1125,442,o),
(1053,520,o),
(950,520,cs),
(847,520,o),
(775,442,o),
(775,347,cs),
(775,253,o),
(847,175,o),
(950,175,cs)
);
},
{
closed = 1;
nodes = (
(912,280,o),
(890,310,o),
(890,347,cs),
(890,385,o),
(912,415,o),
(950,415,cs),
(988,415,o),
(1010,385,o),
(1010,347,cs),
(1010,310,o),
(988,280,o),
(950,280,cs)
);
}
);
width = 1150;
}
);
metricLeft = "=N";
unicode = 8470;
},
{
glyphname = numero.sc;
lastChange = "2026-02-05 15:46:32 +0000";
layers = (
{
background = {
shapes = (
{
closed = 1;
nodes = (
(264,0,l),
(264,22,l),
(179,27,l),
(179,524,l),
(168,522,l),
(521,0,l),
(551,0,l),
(551,533,l),
(636,538,l),
(636,560,l),
(436,560,l),
(436,538,l),
(521,533,l),
(521,36,l),
(533,38,l),
(179,560,l),
(64,560,l),
(64,538,l),
(149,533,l),
(149,27,l),
(64,22,l),
(64,0,l)
);
},
{
closed = 1;
nodes = (
(905,0,l),
(905,27,l),
(647,27,l),
(647,0,l)
);
},
{
closed = 1;
nodes = (
(853,113,o),
(913,169,o),
(913,241,cs),
(913,313,o),
(853,369,o),
(776,369,cs),
(699,369,o),
(639,313,o),
(639,241,cs),
(639,169,o),
(699,113,o),
(776,113,cs)
);
},
{
closed = 1;
nodes = (
(713,141,o),
(667,184,o),
(667,241,cs),
(667,298,o),
(713,341,o),
(776,341,cs),
(839,341,o),
(885,298,o),
(885,241,cs),
(885,184,o),
(839,141,o),
(776,141,cs)
);
}
);
};
layerId = "C7A94C11-E66D-4F8C-9A39-C72274EB09D4";
metricLeft = "=numero-10";
metricRight = "=numero-10";
shapes = (
{
closed = 1;
nodes = (
(248,0,l),
(248,22,l),
(163,27,l),
(163,521,l),
(168,521,l),
(518,0,l),
(561,0,l),
(561,533,l),
(646,538,l),
(646,560,l),
(448,560,l),
(448,538,l),
(533,533,l),
(533,39,l),
(528,39,l),
(178,560,l),
(50,560,l),
(50,538,l),
(135,533,l),
(135,27,l),
(50,22,l),
(50,0,l)
);
},
{
closed = 1;
nodes = (
(905,0,l),
(905,27,l),
(657,27,l),
(657,0,l)
);
},
{
closed = 1;
nodes = (
(857,113,o),
(914,168,o),
(914,241,cs),
(914,314,o),
(857,369,o),
(781,369,cs),
(705,369,o),
(648,314,o),
(648,241,cs),
(648,168,o),
(705,113,o),
(781,113,cs)
);
},
{
closed = 1;
nodes = (
(718,141,o),
(676,184,o),
(676,241,cs),
(676,298,o),
(718,341,o),
(781,341,cs),
(844,341,o),
(886,298,o),
(886,241,cs),
(886,184,o),
(844,141,o),
(781,141,cs)
);
}
);
userData = {
RMXScaler = {
adjustSpace = 8;
height = 80;
width = 85;
};
};
width = 949;
},
{
background = {
shapes = (
{
closed = 1;
nodes = (
(280,0,l),
(280,50,l),
(195,65,l),
(195,455,l),
(184,454,l),
(486,0,l),
(555,0,l),
(555,495,l),
(640,510,l),
(640,560,l),
(400,560,l),
(400,510,l),
(485,495,l),
(485,105,l),
(496,106,l),
(195,560,l),
(40,560,l),
(40,510,l),
(125,495,l),
(125,65,l),
(40,50,l),
(40,0,l)
);
},
{
closed = 1;
nodes = (
(896,0,l),
(896,59,l),
(636,59,l),
(636,0,l)
);
},
{
closed = 1;
nodes = (
(843,116,o),
(905,173,o),
(905,247,cs),
(905,321,o),
(843,378,o),
(766,378,cs),
(689,378,o),
(627,321,o),
(627,247,cs),
(627,173,o),
(689,116,o),
(766,116,cs)
);
},
{
closed = 1;
nodes = (
(720,168,o),
(685,201,o),
(685,247,cs),
(685,293,o),
(720,326,o),
(766,326,cs),
(812,326,o),
(847,293,o),
(847,247,cs),
(847,201,o),
(812,168,o),
(766,168,cs)
);
}
);
};
layerId = "80E8E332-7B59-4055-8C08-04349B956208";
metricLeft = "=numero-10";
metricRight = "=numero-10";
shapes = (
{
closed = 1;
nodes = (
(275,0,l),
(275,50,l),
(190,65,l),
(190,445,l),
(200,445,l),
(500,0,l),
(575,0,l),
(575,495,l),
(660,510,l),
(660,560,l),
(425,560,l),
(425,510,l),
(510,495,l),
(510,115,l),
(500,115,l),
(200,560,l),
(40,560,l),
(40,510,l),
(125,495,l),
(125,65,l),
(40,50,l),
(40,0,l)
);
},
{
closed = 1;
nodes = (
(901,0,l),
(901,59,l),
(655,59,l),
(655,0,l)
);
},
{
closed = 1;
nodes = (
(856,113,o),
(911,169,o),
(911,241,cs),
(911,313,o),
(856,369,o),
(778,369,cs),
(700,369,o),
(645,313,o),
(645,241,cs),
(645,169,o),
(700,113,o),
(778,113,cs)
);
},
{
closed = 1;
nodes = (
(735,171,o),
(708,199,o),
(708,241,cs),
(708,283,o),
(735,311,o),
(778,311,cs),
(821,311,o),
(848,283,o),
(848,241,cs),
(848,199,o),
(821,171,o),
(778,171,cs)
);
}
);
userData = {
RMXScaler = {
adjustSpace = 12;
height = 80;
weight = -2;
width = 85;
};
};
width = 936;
},
{
background = {
shapes = (
{
closed = 1;
nodes = (
(365,0,l),
(365,105,l),
(285,120,l),
(285,339,l),
(273,337,l),
(492,0,l),
(650,0,l),
(650,490,l),
(730,505,l),
(730,610,l),
(408,610,l),
(408,505,l),
(488,490,l),
(488,271,l),
(499,273,l),
(280,610,l),
(43,610,l),
(43,505,l),
(123,490,l),
(123,120,l),
(43,105,l),
(43,0,l)
);
},
{
closed = 1;
nodes = (
(1013,0,l),
(1013,122,l),
(723,122,l),
(723,0,l)
);
},
{
closed = 1;
nodes = (
(958,154,o),
(1032,222,o),
(1032,306,cs),
(1032,390,o),
(958,458,o),
(868,458,cs),
(778,458,o),
(704,390,o),
(704,306,cs),
(704,222,o),
(778,154,o),
(868,154,cs)
);
},
{
closed = 1;
nodes = (
(836,252,o),
(812,276,o),
(812,306,cs),
(812,336,o),
(836,360,o),
(868,360,cs),
(900,360,o),
(924,336,o),
(924,306,cs),
(924,276,o),
(900,252,o),
(868,252,cs)
);
}
);
};
layerId = "66E383AE-0324-482F-BA05-BB2335E2BE22";
metricLeft = "=numero-5";
metricRight = "=numero-5";
shapes = (
{
closed = 1;
nodes = (
(332,0,l),
(332,105,l),
(252,120,l),
(252,353,l),
(262,353,l),
(480,0,l),
(650,0,l),
(650,490,l),
(730,505,l),
(730,610,l),
(418,610,l),
(418,505,l),
(498,490,l),
(498,256,l),
(488,256,l),
(270,610,l),
(20,610,l),
(20,505,l),
(100,490,l),
(100,120,l),
(20,105,l),
(20,0,l)
);
},
{
closed = 1;
nodes = (
(1001,0,l),
(1001,122,l),
(723,122,l),
(723,0,l)
);
},
{
closed = 1;
nodes = (
(952,154,o),
(1020,222,o),
(1020,306,cs),
(1020,390,o),
(952,458,o),
(862,458,cs),
(772,458,o),
(704,390,o),
(704,306,cs),
(704,222,o),
(772,154,o),
(862,154,cs)
);
},
{
closed = 1;
nodes = (
(830,252,o),
(812,276,o),
(812,306,cs),
(812,336,o),
(830,360,o),
(862,360,cs),
(894,360,o),
(912,336,o),
(912,306,cs),
(912,276,o),
(894,252,o),
(862,252,cs)
);
}
);
userData = {
RMXScaler = {
adjustSpace = 10;
height = 87.2;
weight = -12;
width = 90;
};
};
width = 1040;
}
);
userData = {
RMXScaler = {
source = numero;
};
};
},
{
glyphname = ampersand;
lastChange = "2026-02-05 15:46:32 +0000";
layers = (
{
background = {
shapes = (
{
closed = 1;
nodes = (
(423,-10,o),
(498,41,o),
(521,125,c),
(510,122,l),
(519,44,o),
(577,-5,o),
(658,-5,cs),
(669,-5,l),
(669,23,l),
(658,23,ls),
(576,23,o),
(533,77,o),
(533,182,cs),
(533,352,l),
(503,352,l),
(503,187,ls),
(503,85,o),
(431,18,o),
(316,18,cs),
(207,18,o),
(122,78,o),
(122,186,cs),
(122,285,o),
(191,344,o),
(307,344,cs),
(669,344,l),
(669,371,l),
(312,371,ls),
(210,371,o),
(141,433,o),
(141,524,cs),
(141,618,o),
(217,682,o),
(324,682,cs),
(440,682,o),
(503,624,o),
(503,520,c),
(533,520,l),
(533,640,o),
(457,710,o),
(324,710,cs),
(200,710,o),
(109,632,o),
(109,524,cs),
(109,441,o),
(162,374,o),
(246,354,c),
(247,367,l),
(150,349,o),
(90,277,o),
(90,185,cs),
(90,63,o),
(189,-10,o),
(316,-10,cs)
);
}
);
};
layerId = "C7A94C11-E66D-4F8C-9A39-C72274EB09D4";
metricLeft = "=80";
metricRight = "=45";
shapes = (
{
closed = 1;
nodes = (
(423,-10,o),
(498,41,o),
(521,125,c),
(510,122,l),
(519,44,o),
(577,-5,o),
(658,-5,cs),
(669,-5,l),
(669,23,l),
(658,23,ls),
(576,23,o),
(533,77,o),
(533,182,cs),
(533,352,l),
(503,352,l),
(503,187,ls),
(503,85,o),
(431,18,o),
(311,18,cs),
(197,18,o),
(112,78,o),
(112,186,cs),
(112,285,o),
(181,344,o),
(307,344,cs),
(669,344,l),
(669,371,l),
(312,371,ls),
(200,371,o),
(131,433,o),
(131,524,cs),
(131,618,o),
(207,682,o),
(319,682,cs),
(440,682,o),
(503,624,o),
(503,520,c),
(533,520,l),
(533,640,o),
(457,710,o),
(319,710,cs),
(190,710,o),
(99,632,o),
(99,524,cs),
(99,441,o),
(152,374,o),
(236,354,c),
(237,367,l),
(140,349,o),
(80,277,o),
(80,185,cs),
(80,63,o),
(179,-10,o),
(311,-10,cs)
);
}
);
width = 714;
},
{
background = {
shapes = (
{
closed = 1;
nodes = (
(375,-10,o),
(468,16,o),
(507,87,c),
(476,87,l),
(508,13,o),
(576,-5,o),
(637,-5,cs),
(653,-5,l),
(653,65,l),
(637,65,ls),
(590,65,o),
(535,76,o),
(535,195,cs),
(535,357,l),
(460,357,l),
(460,200,ls),
(460,92,o),
(380,60,o),
(312,60,cs),
(210,60,o),
(146,115,o),
(146,195,cs),
(146,267,o),
(195,322,o),
(303,322,cs),
(653,322,l),
(653,392,l),
(308,392,ls),
(220,392,o),
(165,437,o),
(165,518,cs),
(165,597,o),
(227,640,o),
(319,640,cs),
(388,640,o),
(460,614,o),
(460,520,c),
(535,520,l),
(536,639,o),
(452,710,o),
(310,710,cs),
(171,710,o),
(89,620,o),
(89,523,cs),
(89,429,o),
(154,374,o),
(201,356,c),
(208,370,l),
(127,352,o),
(70,273,o),
(70,195,cs),
(70,75,o),
(169,-10,o),
(307,-10,cs)
);
}
);
};
layerId = "80E8E332-7B59-4055-8C08-04349B956208";
metricLeft = "=70";
metricRight = "=40";
shapes = (
{
closed = 1;
nodes = (
(375,-10,o),
(468,16,o),
(507,87,c),
(476,87,l),
(508,13,o),
(576,-5,o),
(637,-5,cs),
(653,-5,l),
(653,65,l),
(637,65,ls),
(590,65,o),
(535,76,o),
(535,195,cs),
(535,357,l),
(460,357,l),
(460,200,ls),
(460,92,o),
(380,60,o),
(312,60,cs),
(210,60,o),
(146,115,o),
(146,195,cs),
(146,267,o),
(195,322,o),
(303,322,cs),
(653,322,l),
(653,392,l),
(308,392,ls),
(220,392,o),
(165,437,o),
(165,518,cs),
(165,597,o),
(227,640,o),
(319,640,cs),
(388,640,o),
(460,614,o),
(460,520,c),
(535,520,l),
(535,639,o),
(452,710,o),
(310,710,cs),
(171,710,o),
(89,620,o),
(89,523,cs),
(89,429,o),
(154,374,o),
(201,356,c),
(208,370,l),
(127,352,o),
(70,273,o),
(70,195,cs),
(70,75,o),
(169,-10,o),
(307,-10,cs)
);
}
);
width = 693;
},
{
background = {
shapes = (
{
closed = 1;
nodes = (
(466,-15,o),
(538,26,o),
(580,67,c),
(538,67,l),
(560,23,o),
(620,-10,o),
(701,-10,cs),
(732,-10,l),
(732,145,l),
(701,145,ls),
(650,145,o),
(617,176,o),
(617,230,cs),
(617,355,l),
(447,355,l),
(447,230,ls),
(447,162,o),
(401,140,o),
(353,140,cs),
(292,140,o),
(260,172,o),
(260,213,cs),
(260,263,o),
(294,285,o),
(349,285,cs),
(732,285,l),
(732,425,l),
(349,425,ls),
(301,425,o),
(273,453,o),
(273,493,cs),
(273,533,o),
(305,565,o),
(359,565,cs),
(408,565,o),
(447,539,o),
(447,485,c),
(617,485,l),
(617,639,o),
(512,715,o),
(340,715,cs),
(200,715,o),
(78,640,o),
(78,516,cs),
(78,431,o),
(133,378,o),
(191,360,c),
(191,378,l),
(107,357,o),
(55,281,o),
(55,209,cs),
(55,83,o),
(151,-15,o),
(346,-15,cs)
);
}
);
};
layerId = "66E383AE-0324-482F-BA05-BB2335E2BE22";
metricLeft = "=55";
metricRight = "=40";
shapes = (
{
closed = 1;
nodes = (
(466,-15,o),
(538,26,o),
(580,67,c),
(538,67,l),
(560,23,o),
(620,-10,o),
(701,-10,cs),
(732,-10,l),
(732,145,l),
(701,145,ls),
(650,145,o),
(617,176,o),
(617,230,cs),
(617,355,l),
(447,355,l),
(447,230,ls),
(447,162,o),
(401,140,o),
(353,140,cs),
(292,140,o),
(260,172,o),
(260,213,cs),
(260,263,o),
(294,285,o),
(349,285,cs),
(732,285,l),
(732,425,l),
(349,425,ls),
(301,425,o),
(273,453,o),
(273,493,cs),
(273,533,o),
(305,565,o),
(359,565,cs),
(408,565,o),
(447,539,o),
(447,485,c),
(617,485,l),
(617,639,o),
(512,715,o),
(340,715,cs),
(200,715,o),
(78,640,o),
(78,516,cs),
(78,431,o),
(133,378,o),
(191,360,c),
(191,378,l),
(107,357,o),
(55,281,o),
(55,209,cs),
(55,83,o),
(151,-15,o),
(346,-15,cs)
);
}
);
width = 772;
}
);
unicode = 38;
},
{
glyphname = ampersand.sc;
lastChange = "2026-02-05 15:46:32 +0000";
layers = (
{
background = {
shapes = (
{
closed = 1;
nodes = (
(346,-10,o),
(411,29,o),
(433,95,c),
(422,93,l),
(432,30,o),
(483,-5,o),
(549,-5,cs),
(559,-5,l),
(559,23,l),
(549,23,ls),
(483,23,o),
(445,61,o),
(445,148,cs),
(445,274,l),
(559,274,l),
(559,301,l),
(260,301,ls),
(175,301,o),
(118,349,o),
(118,420,cs),
(118,493,o),
(181,542,o),
(270,542,cs),
(360,542,o),
(415,500,o),
(415,418,c),
(445,418,l),
(445,514,o),
(379,570,o),
(270,570,cs),
(163,570,o),
(86,506,o),
(86,421,cs),
(86,351,o),
(134,300,o),
(200,285,c),
(202,295,l),
(123,281,o),
(70,224,o),
(70,150,cs),
(70,51,o),
(154,-10,o),
(267,-10,cs)
);
},
{
closed = 1;
nodes = (
(172,18,o),
(102,66,o),
(102,151,cs),
(102,226,o),
(158,274,o),
(256,274,cs),
(415,274,l),
(415,152,ls),
(415,70,o),
(353,18,o),
(267,18,cs)
);
}
);
};
layerId = "C7A94C11-E66D-4F8C-9A39-C72274EB09D4";
metricLeft = "=ampersand-10";
metricRight = "=ampersand-10";
shapes = (
{
closed = 1;
nodes = (
(346,-10,o),
(411,29,o),
(433,95,c),
(422,93,l),
(432,30,o),
(483,-5,o),
(549,-5,cs),
(559,-5,l),
(559,23,l),
(549,23,ls),
(483,23,o),
(445,61,o),
(445,148,cs),
(445,274,l),
(559,274,l),
(559,301,l),
(260,301,ls),
(175,301,o),
(118,349,o),
(118,420,cs),
(118,493,o),
(181,542,o),
(270,542,cs),
(360,542,o),
(415,500,o),
(415,418,c),
(445,418,l),
(445,514,o),
(379,570,o),
(270,570,cs),
(163,570,o),
(86,506,o),
(86,421,cs),
(86,351,o),
(134,300,o),
(200,285,c),
(202,295,l),
(123,281,o),
(70,224,o),
(70,150,cs),
(70,51,o),
(154,-10,o),
(267,-10,cs)
);
},
{
closed = 1;
nodes = (
(172,18,o),
(102,66,o),
(102,151,cs),
(102,226,o),
(158,274,o),
(256,274,cs),
(415,274,l),
(415,152,ls),
(415,70,o),
(353,18,o),
(267,18,cs)
);
}
);
userData = {
RMXScaler = {
adjustSpace = 8;
height = 80.3;
width = 85;
};
};
width = 594;
},
{
background = {
shapes = (
{
closed = 1;
nodes = (
(329,-10,o),
(399,12,o),
(436,65,c),
(414,68,l),
(440,11,o),
(498,-5,o),
(550,-5,cs),
(564,-5,l),
(564,60,l),
(550,60,ls),
(498,60,o),
(464,82,o),
(464,160,cs),
(464,255,l),
(564,255,l),
(564,317,l),
(267,317,ls),
(196,317,o),
(150,352,o),
(150,413,cs),
(150,472,o),
(201,506,o),
(276,506,cs),
(334,506,o),
(392,484,o),
(392,413,c),
(464,413,l),
(464,512,o),
(391,570,o),
(268,570,cs),
(151,570,o),
(76,500,o),
(76,419,cs),
(76,346,o),
(130,301,o),
(172,286,c),
(178,298,l),
(108,283,o),
(60,219,o),
(60,158,cs),
(60,61,o),
(144,-10,o),
(266,-10,cs)
);
},
{
closed = 1;
nodes = (
(188,54,o),
(134,97,o),
(134,158,cs),
(134,214,o),
(175,255,o),
(263,255,cs),
(392,255,l),
(392,163,ls),
(392,82,o),
(328,54,o),
(270,54,cs)
);
}
);
};
layerId = "80E8E332-7B59-4055-8C08-04349B956208";
metricLeft = "=ampersand-10";
metricRight = "=ampersand-10";
shapes = (
{
closed = 1;
nodes = (
(329,-10,o),
(399,12,o),
(436,65,c),
(414,68,l),
(440,11,o),
(498,-5,o),
(550,-5,cs),
(564,-5,l),
(564,60,l),
(550,60,ls),
(498,60,o),
(464,82,o),
(464,160,cs),
(464,255,l),
(564,255,l),
(564,317,l),
(267,317,ls),
(196,317,o),
(150,352,o),
(150,413,cs),
(150,472,o),
(201,506,o),
(276,506,cs),
(334,506,o),
(392,484,o),
(392,413,c),
(464,413,l),
(464,512,o),
(391,570,o),
(268,570,cs),
(151,570,o),
(76,500,o),
(76,419,cs),
(76,346,o),
(130,301,o),
(172,286,c),
(178,298,l),
(108,283,o),
(60,219,o),
(60,158,cs),
(60,61,o),
(144,-10,o),
(266,-10,cs)
);
},
{
closed = 1;
nodes = (
(188,54,o),
(134,97,o),
(134,158,cs),
(134,214,o),
(175,255,o),
(263,255,cs),
(392,255,l),
(392,163,ls),
(392,82,o),
(328,54,o),
(270,54,cs)
);
}
);
userData = {
RMXScaler = {
adjustSpace = 12;
height = 80.2;
weight = -2;
width = 85;
};
};
width = 594;
},
{
background = {
shapes = (
{
closed = 1;
nodes = (
(412,-10,o),
(474,16,o),
(514,43,c),
(491,50,l),
(516,19,o),
(569,-5,o),
(635,-5,cs),
(664,-5,l),
(664,141,l),
(635,141,ls),
(591,141,o),
(562,167,o),
(562,209,cs),
(562,241,l),
(664,241,l),
(664,373,l),
(318,373,ls),
(278,373,o),
(254,395,o),
(254,425,cs),
(254,455,o),
(282,480,o),
(327,480,cs),
(367,480,o),
(402,460,o),
(402,417,c),
(562,417,l),
(562,554,o),
(465,620,o),
(309,620,cs),
(183,620,o),
(70,556,o),
(70,447,cs),
(70,375,o),
(117,332,o),
(165,315,c),
(169,329,l),
(98,311,o),
(50,247,o),
(50,181,cs),
(50,76,o),
(136,-10,o),
(315,-10,cs)
);
},
{
closed = 1;
nodes = (
(272,136,o),
(243,156,o),
(243,190,cs),
(243,224,o),
(268,241,o),
(318,241,cs),
(402,241,l),
(402,205,ls),
(402,149,o),
(361,136,o),
(322,136,cs)
);
}
);
};
layerId = "66E383AE-0324-482F-BA05-BB2335E2BE22";
metricLeft = "=ampersand-5";
metricRight = "=ampersand-5";
shapes = (
{
closed = 1;
nodes = (
(412,-10,o),
(474,16,o),
(514,43,c),
(491,50,l),
(516,19,o),
(569,-5,o),
(635,-5,cs),
(664,-5,l),
(664,141,l),
(635,141,ls),
(591,141,o),
(562,167,o),
(562,209,cs),
(562,241,l),
(664,241,l),
(664,373,l),
(318,373,ls),
(278,373,o),
(254,395,o),
(254,425,cs),
(254,455,o),
(282,480,o),
(327,480,cs),
(367,480,o),
(402,460,o),
(402,417,c),
(562,417,l),
(562,554,o),
(465,620,o),
(309,620,cs),
(183,620,o),
(70,556,o),
(70,447,cs),
(70,375,o),
(117,332,o),
(165,315,c),
(169,329,l),
(98,311,o),
(50,247,o),
(50,181,cs),
(50,76,o),
(136,-10,o),
(315,-10,cs)
);
},
{
closed = 1;
nodes = (
(272,136,o),
(243,156,o),
(243,190,cs),
(243,224,o),
(268,241,o),
(318,241,cs),
(402,241,l),
(402,205,ls),
(402,149,o),
(361,136,o),
(322,136,cs)
);
}
);
userData = {
RMXScaler = {
adjustSpace = 10;
height = 86.7;
weight = -12;
width = 90;
};
};
width = 699;
}
);
userData = {
RMXScaler = {
source = ampersand;
};
};
},
{
glyphname = ampersand.ss02;
lastChange = "2026-02-05 15:46:32 +0000";
layers = (
{
background = {
shapes = (
{
closed = 1;
nodes = (
(708,0,l),
(708,22,l),
(591,27,l),
(630,11,l),
(221,412,ls),
(178,454,o),
(156,500,o),
(156,547,cs),
(156,632,o),
(216,682,o),
(320,682,cs),
(417,682,o),
(482,621,o),
(482,520,c),
(511,520,l),
(511,639,o),
(437,710,o),
(320,710,cs),
(198,710,o),
(124,645,o),
(124,547,cs),
(124,488,o),
(155,438,o),
(194,399,cs),
(599,0,l)
);
},
{
closed = 1;
nodes = (
(476,-10,o),
(600,152,o),
(601,374,c),
(584,356,l),
(698,361,l),
(698,383,l),
(569,383,l),
(573,164,o),
(456,18,o),
(292,18,cs),
(165,18,o),
(87,86,o),
(87,195,cs),
(87,287,o),
(153,356,o),
(245,362,c),
(219,386,l),
(124,370,o),
(55,294,o),
(55,195,cs),
(55,75,o),
(144,-10,o),
(292,-10,cs)
);
}
);
};
layerId = "C7A94C11-E66D-4F8C-9A39-C72274EB09D4";
metricLeft = "=55";
metricRight = "=45";
shapes = (
{
closed = 1;
nodes = (
(708,0,l),
(708,22,l),
(591,27,l),
(630,11,l),
(221,412,ls),
(178,454,o),
(156,500,o),
(156,547,cs),
(156,632,o),
(216,682,o),
(320,682,cs),
(417,682,o),
(482,621,o),
(482,520,c),
(511,520,l),
(511,639,o),
(437,710,o),
(320,710,cs),
(198,710,o),
(124,645,o),
(124,547,cs),
(124,488,o),
(155,438,o),
(194,399,cs),
(599,0,l)
);
},
{
closed = 1;
nodes = (
(476,-10,o),
(601,152,o),
(601,374,c),
(584,356,l),
(698,361,l),
(698,383,l),
(569,383,l),
(573,164,o),
(456,18,o),
(292,18,cs),
(165,18,o),
(87,86,o),
(87,195,cs),
(87,287,o),
(153,356,o),
(245,362,c),
(219,386,l),
(124,370,o),
(55,294,o),
(55,195,cs),
(55,75,o),
(144,-10,o),
(292,-10,cs)
);
}
);
width = 753;
},
{
background = {
shapes = (
{
closed = 1;
nodes = (
(693,0,l),
(693,50,l),
(572,75,l),
(629,45,l),
(246,423,ls),
(208,460,o),
(185,496,o),
(185,542,cs),
(185,601,o),
(231,640,o),
(310,640,cs),
(373,640,o),
(435,614,o),
(435,520,c),
(511,520,l),
(511,639,o),
(437,710,o),
(310,710,cs),
(171,710,o),
(109,625,o),
(109,538,cs),
(109,462,o),
(149,411,o),
(201,359,cs),
(564,0,l)
);
},
{
closed = 1;
nodes = (
(480,-10,o),
(595,158,o),
(614,340,c),
(579,313,l),
(683,333,l),
(683,383,l),
(544,383,l),
(544,207,o),
(437,60,o),
(287,60,cs),
(190,60,o),
(121,116,o),
(121,195,cs),
(121,298,o),
(195,352,o),
(293,352,c),
(205,401,l),
(121,382,o),
(45,307,o),
(45,195,cs),
(45,75,o),
(139,-10,o),
(287,-10,cs)
);
}
);
};
layerId = "80E8E332-7B59-4055-8C08-04349B956208";
metricLeft = "=45";
metricRight = "=40";
shapes = (
{
closed = 1;
nodes = (
(693,0,l),
(693,50,l),
(572,75,l),
(629,45,l),
(246,423,ls),
(208,460,o),
(185,496,o),
(185,542,cs),
(185,601,o),
(231,640,o),
(310,640,cs),
(373,640,o),
(435,614,o),
(435,520,c),
(511,520,l),
(511,639,o),
(437,710,o),
(310,710,cs),
(171,710,o),
(109,625,o),
(109,538,cs),
(109,462,o),
(149,411,o),
(201,359,cs),
(564,0,l)
);
},
{
closed = 1;
nodes = (
(480,-10,o),
(595,158,o),
(614,340,c),
(579,313,l),
(683,333,l),
(683,383,l),
(544,383,l),
(544,207,o),
(437,60,o),
(287,60,cs),
(190,60,o),
(121,116,o),
(121,195,cs),
(121,298,o),
(195,352,o),
(293,352,c),
(205,401,l),
(121,382,o),
(45,307,o),
(45,195,cs),
(45,75,o),
(139,-10,o),
(287,-10,cs)
);
}
);
width = 733;
},
{
background = {
shapes = (
{
closed = 1;
nodes = (
(757,0,l),
(757,105,l),
(574,141,l),
(743,45,l),
(360,423,ls),
(322,460,o),
(308,483,o),
(308,510,cs),
(308,539,o),
(330,565,o),
(369,565,cs),
(413,565,o),
(437,543,o),
(437,485,c),
(607,485,l),
(607,639,o),
(512,715,o),
(345,715,cs),
(215,715,o),
(103,640,o),
(103,526,cs),
(103,462,o),
(143,411,o),
(195,359,cs),
(558,0,l)
);
},
{
closed = 1;
nodes = (
(544,-15,o),
(673,178,o),
(673,360,c),
(582,267,l),
(752,298,l),
(752,403,l),
(507,403,l),
(502,271,o),
(421,140,o),
(308,140,cs),
(266,140,o),
(240,167,o),
(240,202,cs),
(240,247,o),
(274,285,o),
(329,285,c),
(199,401,l),
(115,382,o),
(35,307,o),
(35,195,cs),
(35,70,o),
(143,-15,o),
(307,-15,cs)
);
}
);
};
layerId = "66E383AE-0324-482F-BA05-BB2335E2BE22";
metricLeft = "=35";
metricRight = "=40";
shapes = (
{
closed = 1;
nodes = (
(757,0,l),
(757,105,l),
(574,141,l),
(743,45,l),
(360,423,ls),
(322,460,o),
(308,483,o),
(308,510,cs),
(308,539,o),
(330,565,o),
(369,565,cs),
(413,565,o),
(437,543,o),
(437,485,c),
(607,485,l),
(607,639,o),
(512,715,o),
(345,715,cs),
(215,715,o),
(103,640,o),
(103,526,cs),
(103,462,o),
(143,411,o),
(195,359,cs),
(558,0,l)
);
},
{
closed = 1;
nodes = (
(544,-15,o),
(673,178,o),
(673,360,c),
(582,267,l),
(752,298,l),
(752,403,l),
(507,403,l),
(502,271,o),
(421,140,o),
(308,140,cs),
(266,140,o),
(240,167,o),
(240,202,cs),
(240,247,o),
(274,285,o),
(329,285,c),
(199,401,l),
(115,382,o),
(35,307,o),
(35,195,cs),
(35,70,o),
(143,-15,o),
(307,-15,cs)
);
}
);
width = 797;
}
);
note = "верхний овал поуже";
},
{
glyphname = ampersand.sc.ss02;
lastChange = "2026-02-05 15:46:32 +0000";
layers = (
{
background = {
shapes = (
{
closed = 1;
nodes = (
(602,0,l),
(602,21,l),
(500,28,l),
(535,13,l),
(190,332,ls),
(157,363,o),
(131,395,o),
(131,442,cs),
(131,501,o),
(184,542,o),
(267,542,cs),
(349,542,o),
(404,498,o),
(404,418,c),
(434,418,l),
(434,513,o),
(370,570,o),
(267,570,cs),
(165,570,o),
(99,515,o),
(99,441,cs),
(99,387,o),
(126,351,o),
(165,315,cs),
(505,0,l)
);
},
{
closed = 1;
nodes = (
(402,-10,o),
(509,123,o),
(511,296,c),
(495,280,l),
(593,286,l),
(593,308,l),
(480,308,l),
(480,139,o),
(385,18,o),
(247,18,cs),
(142,18,o),
(77,71,o),
(77,157,cs),
(77,234,o),
(137,286,o),
(212,289,c),
(184,312,l),
(102,299,o),
(45,238,o),
(45,157,cs),
(45,59,o),
(121,-10,o),
(247,-10,cs)
);
}
);
};
layerId = "C7A94C11-E66D-4F8C-9A39-C72274EB09D4";
metricLeft = "=ampersand.ss02-10";
metricRight = "=ampersand.ss02-10";
shapes = (
{
closed = 1;
nodes = (
(602,0,l),
(602,21,l),
(500,28,l),
(535,13,l),
(190,332,ls),
(157,363,o),
(131,395,o),
(131,442,cs),
(131,501,o),
(184,542,o),
(267,542,cs),
(349,542,o),
(404,498,o),
(404,418,c),
(434,418,l),
(434,513,o),
(370,570,o),
(267,570,cs),
(165,570,o),
(99,515,o),
(99,441,cs),
(99,387,o),
(126,351,o),
(165,315,cs),
(505,0,l)
);
},
{
closed = 1;
nodes = (
(402,-10,o),
(511,123,o),
(511,296,c),
(495,280,l),
(593,286,l),
(593,308,l),
(480,308,l),
(480,139,o),
(385,18,o),
(247,18,cs),
(142,18,o),
(77,71,o),
(77,157,cs),
(77,234,o),
(137,286,o),
(212,289,c),
(184,312,l),
(102,299,o),
(45,238,o),
(45,157,cs),
(45,59,o),
(121,-10,o),
(247,-10,cs)
);
}
);
userData = {
RMXScaler = {
adjustSpace = 8;
height = 80.3;
width = 85;
};
};
width = 637;
},
{
background = {
shapes = (
{
closed = 1;
nodes = (
(607,0,l),
(607,45,l),
(484,66,l),
(542,35,l),
(215,339,ls),
(183,369,o),
(164,396,o),
(164,431,cs),
(164,476,o),
(202,506,o),
(266,506,cs),
(320,506,o),
(368,484,o),
(368,413,c),
(442,413,l),
(442,512,o),
(375,570,o),
(266,570,cs),
(148,570,o),
(90,504,o),
(90,431,cs),
(90,372,o),
(123,331,o),
(167,290,cs),
(478,0,l)
);
},
{
closed = 1;
nodes = (
(411,-10,o),
(510,129,o),
(524,277,c),
(490,247,l),
(599,264,l),
(599,310,l),
(458,310,l),
(457,172,o),
(369,54,o),
(244,54,cs),
(165,54,o),
(109,98,o),
(109,158,cs),
(109,233,o),
(169,275,o),
(247,275,c),
(172,321,l),
(100,306,o),
(35,246,o),
(35,156,cs),
(35,60,o),
(116,-10,o),
(243,-10,cs)
);
}
);
};
layerId = "80E8E332-7B59-4055-8C08-04349B956208";
metricLeft = "=ampersand.ss02-10";
metricRight = "=ampersand.ss02-10";
shapes = (
{
closed = 1;
nodes = (
(607,0,l),
(607,45,l),
(484,66,l),
(542,35,l),
(215,339,ls),
(183,369,o),
(164,396,o),
(164,431,cs),
(164,476,o),
(202,506,o),
(266,506,cs),
(320,506,o),
(368,484,o),
(368,413,c),
(442,413,l),
(442,512,o),
(375,570,o),
(266,570,cs),
(148,570,o),
(90,504,o),
(90,431,cs),
(90,372,o),
(123,331,o),
(167,290,cs),
(478,0,l)
);
},
{
closed = 1;
nodes = (
(411,-10,o),
(510,129,o),
(524,277,c),
(490,247,l),
(599,264,l),
(599,310,l),
(458,310,l),
(458,172,o),
(369,54,o),
(244,54,cs),
(165,54,o),
(109,98,o),
(109,158,cs),
(109,233,o),
(169,275,o),
(247,275,c),
(172,321,l),
(100,306,o),
(35,246,o),
(35,156,cs),
(35,60,o),
(116,-10,o),
(243,-10,cs)
);
}
);
userData = {
RMXScaler = {
adjustSpace = 12;
height = 80.2;
weight = -2;
width = 85;
};
};
width = 637;
},
{
background = {
shapes = (
{
closed = 1;
nodes = (
(683,0,l),
(683,105,l),
(515,139,l),
(673,44,l),
(330,370,ls),
(300,399,o),
(284,417,o),
(284,440,cs),
(284,459,o),
(303,479,o),
(335,479,cs),
(368,479,o),
(390,459,o),
(390,419,c),
(550,419,l),
(550,554,o),
(463,620,o),
(322,620,cs),
(193,620,o),
(91,554,o),
(91,455,cs),
(91,397,o),
(131,352,o),
(175,310,cs),
(499,0,l)
);
},
{
closed = 1;
nodes = (
(492,-10,o),
(608,158,o),
(609,313,c),
(523,219,l),
(679,248,l),
(679,353,l),
(457,353,l),
(453,246,o),
(385,134,o),
(290,134,cs),
(249,134,o),
(224,155,o),
(224,185,cs),
(224,217,o),
(252,243,o),
(300,242,c),
(178,351,l),
(103,334,o),
(30,269,o),
(30,172,cs),
(30,63,o),
(128,-10,o),
(276,-10,cs)
);
}
);
};
layerId = "66E383AE-0324-482F-BA05-BB2335E2BE22";
metricLeft = "=ampersand.ss02-5";
metricRight = "=ampersand.ss02-5";
shapes = (
{
closed = 1;
nodes = (
(683,0,l),
(683,105,l),
(515,139,l),
(673,44,l),
(330,370,ls),
(300,399,o),
(284,417,o),
(284,440,cs),
(284,459,o),
(303,479,o),
(335,479,cs),
(368,479,o),
(390,459,o),
(390,419,c),
(550,419,l),
(550,554,o),
(463,620,o),
(322,620,cs),
(193,620,o),
(91,554,o),
(91,455,cs),
(91,397,o),
(131,352,o),
(175,310,cs),
(499,0,l)
);
},
{
closed = 1;
nodes = (
(492,-10,o),
(609,158,o),
(609,313,c),
(523,219,l),
(679,248,l),
(679,353,l),
(457,353,l),
(453,246,o),
(385,134,o),
(290,134,cs),
(249,134,o),
(224,155,o),
(224,185,cs),
(224,217,o),
(252,242,o),
(300,242,c),
(178,351,l),
(103,334,o),
(30,269,o),
(30,172,cs),
(30,63,o),
(128,-10,o),
(276,-10,cs)
);
}
);
userData = {
RMXScaler = {
adjustSpace = 10;
height = 86.7;
weight = -12;
width = 90;
};
};
width = 718;
}
);
userData = {
RMXScaler = {
source = ampersand.ss01;
};
};
},
{
glyphname = section;
lastChange = "2026-02-05 15:46:32 +0000";
layers = (
{
background = {
shapes = (
{
closed = 1;
nodes = (
(358,-70,o),
(405,-5,o),
(405,62,cs),
(405,132,o),
(360,165,o),
(311,187,c),
(300,177,l),
(372,189,o),
(410,241,o),
(410,300,cs),
(410,485,o),
(107,415,o),
(107,578,cs),
(107,650,o),
(159,682,o),
(225,682,cs),
(291,682,o),
(360,654,o),
(378,550,c),
(398,550,l),
(398,695,l),
(375,695,l),
(370,617,l),
(385,604,l),
(379,656,o),
(318,710,o),
(228,710,cs),
(126,710,o),
(79,645,o),
(79,578,cs),
(79,508,o),
(124,475,o),
(164,453,c),
(175,463,l),
(103,451,o),
(65,399,o),
(65,340,cs),
(65,155,o),
(377,225,o),
(377,62,cs),
(377,-8,o),
(325,-42,o),
(250,-42,cs),
(174,-42,o),
(111,-5,o),
(97,90,c),
(77,90,l),
(77,-60,l),
(100,-60,l),
(105,23,l),
(90,36,l),
(105,-19,o),
(157,-70,o),
(247,-70,cs)
);
},
{
closed = 1;
nodes = (
(164,236,o),
(93,256,o),
(93,340,cs),
(93,400,o),
(131,432,o),
(191,440,c),
(311,404,o),
(382,384,o),
(382,300,cs),
(382,240,o),
(343,208,o),
(284,200,c)
);
}
);
};
layerId = "C7A94C11-E66D-4F8C-9A39-C72274EB09D4";
metricLeft = "=55";
shapes = (
{
closed = 1;
nodes = (
(373,-70,o),
(415,5,o),
(415,62,cs),
(415,132,o),
(370,165,o),
(321,187,c),
(310,177,l),
(382,189,o),
(420,241,o),
(420,300,cs),
(420,485,o),
(97,405,o),
(97,568,cs),
(97,640,o),
(149,682,o),
(225,682,cs),
(301,682,o),
(370,654,o),
(388,550,c),
(408,550,l),
(408,695,l),
(385,695,l),
(380,617,l),
(395,604,l),
(389,656,o),
(328,710,o),
(228,710,cs),
(116,710,o),
(69,640,o),
(69,573,cs),
(69,503,o),
(114,471,o),
(154,453,c),
(175,463,l),
(90,453,o),
(55,399,o),
(55,340,cs),
(55,155,o),
(387,225,o),
(387,62,cs),
(387,2,o),
(340,-42,o),
(255,-42,cs),
(169,-42,o),
(101,-5,o),
(87,90,c),
(67,90,l),
(67,-60,l),
(90,-60,l),
(95,23,l),
(80,36,l),
(95,-19,o),
(152,-70,o),
(252,-70,cs)
);
},
{
closed = 1;
nodes = (
(164,236,o),
(83,256,o),
(83,340,cs),
(83,400,o),
(121,432,o),
(181,440,c),
(311,404,o),
(392,384,o),
(392,300,cs),
(392,240,o),
(353,208,o),
(294,200,c)
);
}
);
width = 475;
},
{
background = {
shapes = (
{
closed = 1;
nodes = (
(358,-10,o),
(422,50,o),
(422,130,cs),
(422,193,o),
(376,228,o),
(343,245,c),
(299,217,l),
(392,233,o),
(432,289,o),
(432,349,cs),
(432,528,o),
(145,460,o),
(145,570,cs),
(145,614,o),
(179,643,o),
(244,643,cs),
(306,643,o),
(356,615,o),
(374,550,c),
(424,550,l),
(424,695,l),
(379,695,l),
(360,614,l),
(378,641,l),
(356,682,o),
(311,710,o),
(239,710,cs),
(137,710,o),
(73,650,o),
(73,570,cs),
(73,507,o),
(126,455,o),
(181,446,c),
(188,483,l),
(96,467,o),
(55,411,o),
(55,351,cs),
(55,172,o),
(350,240,o),
(350,130,cs),
(350,86,o),
(314,57,o),
(244,57,cs),
(181,57,o),
(131,85,o),
(113,155,c),
(63,155,l),
(63,0,l),
(108,0,l),
(127,81,l),
(109,58,l),
(131,18,o),
(178,-10,o),
(253,-10,cs)
);
},
{
closed = 1;
nodes = (
(175,288,o),
(127,301,o),
(127,360,cs),
(127,387,o),
(149,429,o),
(202,435,c),
(312,412,o),
(360,399,o),
(360,340,cs),
(360,313,o),
(342,274,o),
(285,265,c)
);
}
);
};
layerId = "80E8E332-7B59-4055-8C08-04349B956208";
metricLeft = "=45";
shapes = (
{
closed = 1;
nodes = (
(368,-70,o),
(432,-10,o),
(432,80,cs),
(432,153,o),
(386,188,o),
(353,205,c),
(309,177,l),
(402,193,o),
(442,249,o),
(442,319,cs),
(442,508,o),
(135,440,o),
(135,560,cs),
(135,614,o),
(169,643,o),
(244,643,cs),
(316,643,o),
(366,615,o),
(384,550,c),
(434,550,l),
(434,695,l),
(389,695,l),
(370,614,l),
(388,641,l),
(366,682,o),
(321,710,o),
(239,710,cs),
(127,710,o),
(63,650,o),
(63,560,cs),
(63,487,o),
(116,435,o),
(171,426,c),
(178,463,l),
(86,447,o),
(45,391,o),
(45,321,cs),
(45,132,o),
(360,200,o),
(360,80,cs),
(360,26,o),
(324,-3,o),
(244,-3,cs),
(171,-3,o),
(121,25,o),
(103,95,c),
(53,95,l),
(53,-60,l),
(98,-60,l),
(117,21,l),
(99,-2,l),
(121,-42,o),
(168,-70,o),
(253,-70,cs)
);
},
{
closed = 1;
nodes = (
(175,248,o),
(117,261,o),
(117,330,cs),
(117,367,o),
(139,409,o),
(192,415,c),
(312,392,o),
(370,379,o),
(370,310,cs),
(370,273,o),
(352,234,o),
(295,225,c)
);
}
);
width = 487;
},
{
background = {
shapes = (
{
closed = 1;
nodes = (
(443,-80,o),
(507,-15,o),
(507,75,cs),
(507,148,o),
(455,190,o),
(428,200,c),
(384,172,l),
(477,188,o),
(522,244,o),
(522,314,cs),
(522,503,o),
(235,465,o),
(235,555,cs),
(235,589,o),
(255,602,o),
(283,602,cs),
(331,602,o),
(364,570,o),
(369,525,c),
(509,525,l),
(509,695,l),
(404,695,l),
(385,614,l),
(413,636,l),
(398,677,o),
(336,710,o),
(259,710,cs),
(127,710,o),
(63,645,o),
(63,555,cs),
(63,482,o),
(116,430,o),
(171,421,c),
(178,458,l),
(86,442,o),
(45,386,o),
(45,316,cs),
(45,127,o),
(335,165,o),
(335,75,cs),
(335,47,o),
(321,32,o),
(286,32,cs),
(222,32,o),
(196,75,o),
(188,115,c),
(48,115,l),
(48,-65,l),
(153,-65,l),
(172,16,l),
(144,-2,l),
(166,-47,o),
(229,-80,o),
(308,-80,cs)
);
},
{
closed = 1;
nodes = (
(211,275,o),
(184,294,o),
(184,335,cs),
(184,362,o),
(197,375,o),
(219,380,c),
(330,355,o),
(357,336,o),
(357,295,cs),
(357,268,o),
(344,255,o),
(322,250,c)
);
}
);
};
layerId = "66E383AE-0324-482F-BA05-BB2335E2BE22";
metricLeft = "=45";
shapes = (
{
closed = 1;
nodes = (
(443,-80,o),
(507,-15,o),
(507,75,cs),
(507,148,o),
(455,190,o),
(428,200,c),
(384,172,l),
(477,188,o),
(522,244,o),
(522,314,cs),
(522,503,o),
(235,465,o),
(235,555,cs),
(235,589,o),
(255,602,o),
(283,602,cs),
(331,602,o),
(364,570,o),
(369,525,c),
(509,525,l),
(509,695,l),
(404,695,l),
(385,614,l),
(413,636,l),
(398,677,o),
(336,710,o),
(259,710,cs),
(127,710,o),
(63,645,o),
(63,555,cs),
(63,482,o),
(116,430,o),
(171,421,c),
(178,458,l),
(86,442,o),
(45,386,o),
(45,316,cs),
(45,127,o),
(335,165,o),
(335,75,cs),
(335,47,o),
(321,32,o),
(286,32,cs),
(222,32,o),
(196,75,o),
(188,115,c),
(48,115,l),
(48,-65,l),
(153,-65,l),
(172,16,l),
(144,-2,l),
(166,-47,o),
(229,-80,o),
(308,-80,cs)
);
},
{
closed = 1;
nodes = (
(211,275,o),
(184,294,o),
(184,335,cs),
(184,362,o),
(197,375,o),
(219,380,c),
(330,355,o),
(357,336,o),
(357,295,cs),
(357,268,o),
(344,255,o),
(322,250,c)
);
}
);
width = 567;
}
);
metricRight = "=|";
unicode = 167;
},
{
glyphname = section.sc;
lastChange = "2026-02-05 15:46:32 +0000";
layers = (
{
background = {
shapes = (
{
closed = 1;
nodes = (
(304,-70,o),
(357,-23,o),
(357,43,cs),
(357,102,o),
(317,128,o),
(279,147,c),
(266,134,l),
(326,146,o),
(361,188,o),
(361,237,cs),
(361,389,o),
(96,336,o),
(96,457,cs),
(96,512,o),
(137,542,o),
(206,542,cs),
(277,542,o),
(319,507,o),
(332,442,c),
(352,442,l),
(352,555,l),
(330,555,l),
(324,496,l),
(337,490,l),
(330,534,o),
(272,570,o),
(202,570,cs),
(122,570,o),
(68,528,o),
(68,455,cs),
(68,404,o),
(103,376,o),
(146,355,c),
(151,368,l),
(96,362,o),
(55,320,o),
(55,264,cs),
(55,114,o),
(329,165,o),
(329,43,cs),
(329,-8,o),
(289,-42,o),
(217,-42,cs),
(141,-42,o),
(97,-5,o),
(85,61,c),
(65,61,l),
(65,-60,l),
(87,-60,l),
(92,6,l),
(79,12,l),
(87,-32,o),
(141,-70,o),
(220,-70,cs)
);
},
{
closed = 1;
nodes = (
(113,191,o),
(83,213,o),
(83,265,cs),
(83,313,o),
(117,342,o),
(169,346,c),
(303,311,o),
(333,289,o),
(333,237,cs),
(333,189,o),
(298,159,o),
(247,156,c)
);
}
);
};
layerId = "C7A94C11-E66D-4F8C-9A39-C72274EB09D4";
metricLeft = "=section-10";
metricRight = "=section-10";
shapes = (
{
closed = 1;
nodes = (
(314,-70,o),
(367,-23,o),
(367,43,cs),
(367,102,o),
(327,128,o),
(289,147,c),
(276,134,l),
(336,146,o),
(371,188,o),
(371,237,cs),
(371,389,o),
(86,326,o),
(86,457,cs),
(86,502,o),
(122,542,o),
(200,542,cs),
(282,542,o),
(329,497,o),
(342,432,c),
(362,432,l),
(362,545,l),
(340,545,l),
(334,486,l),
(347,480,l),
(340,524,o),
(282,570,o),
(201,570,cs),
(112,570,o),
(58,521,o),
(58,458,cs),
(58,399,o),
(93,376,o),
(136,355,c),
(141,368,l),
(90,362,o),
(45,320,o),
(45,264,cs),
(45,114,o),
(339,165,o),
(339,43,cs),
(339,-8,o),
(299,-42,o),
(217,-42,cs),
(131,-42,o),
(87,-5,o),
(75,61,c),
(55,61,l),
(55,-60,l),
(77,-60,l),
(82,6,l),
(69,12,l),
(77,-32,o),
(131,-70,o),
(220,-70,cs)
);
},
{
closed = 1;
nodes = (
(113,184,o),
(73,213,o),
(73,265,cs),
(73,313,o),
(107,344,o),
(153,348,c),
(313,313,o),
(343,289,o),
(343,237,cs),
(343,189,o),
(308,159,o),
(263,151,c)
);
}
);
userData = {
RMXScaler = {
adjustSpace = 8;
height = 80.3;
width = 85;
};
};
width = 416;
},
{
background = {
shapes = (
{
closed = 1;
nodes = (
(327,-70,o),
(377,-20,o),
(377,52,cs),
(377,112,o),
(337,142,o),
(309,155,c),
(274,134,l),
(354,147,o),
(386,194,o),
(386,249,cs),
(386,402,o),
(131,348,o),
(131,448,cs),
(131,492,o),
(161,513,o),
(217,513,cs),
(271,513,o),
(312,490,o),
(326,439,c),
(376,439,l),
(376,555,l),
(333,555,l),
(317,495,l),
(333,512,l),
(316,546,o),
(270,570,o),
(206,570,cs),
(117,570,o),
(63,521,o),
(63,448,cs),
(63,388,o),
(107,347,o),
(154,339,c),
(160,367,l),
(83,355,o),
(45,309,o),
(45,252,cs),
(45,99,o),
(309,150,o),
(309,54,cs),
(309,8,o),
(279,-13,o),
(221,-13,cs),
(161,-13,o),
(119,10,o),
(104,67,c),
(55,67,l),
(55,-60,l),
(97,-60,l),
(113,5,l),
(97,-11,l),
(115,-44,o),
(157,-70,o),
(229,-70,cs)
);
},
{
closed = 1;
nodes = (
(153,194,o),
(113,206,o),
(113,260,cs),
(113,291,o),
(129,320,o),
(179,326,c),
(278,307,o),
(318,295,o),
(318,241,cs),
(318,210,o),
(302,181,o),
(252,175,c)
);
}
);
};
layerId = "80E8E332-7B59-4055-8C08-04349B956208";
metricLeft = "=section-10";
metricRight = "=section-10";
shapes = (
{
closed = 1;
nodes = (
(327,-70,o),
(387,-20,o),
(387,52,cs),
(387,112,o),
(347,142,o),
(319,155,c),
(284,134,l),
(364,147,o),
(396,194,o),
(396,249,cs),
(396,402,o),
(121,338,o),
(121,438,cs),
(121,492,o),
(151,513,o),
(217,513,cs),
(281,513,o),
(322,490,o),
(336,439,c),
(386,439,l),
(386,555,l),
(343,555,l),
(327,495,l),
(343,512,l),
(326,546,o),
(280,570,o),
(206,570,cs),
(117,570,o),
(53,521,o),
(53,448,cs),
(53,388,o),
(97,347,o),
(144,339,c),
(150,367,l),
(73,355,o),
(35,309,o),
(35,252,cs),
(35,99,o),
(319,160,o),
(319,64,cs),
(319,8,o),
(289,-13,o),
(221,-13,cs),
(151,-13,o),
(109,10,o),
(94,67,c),
(45,67,l),
(45,-60,l),
(87,-60,l),
(103,5,l),
(87,-11,l),
(105,-44,o),
(147,-70,o),
(229,-70,cs)
);
},
{
closed = 1;
nodes = (
(153,194,o),
(103,206,o),
(103,260,cs),
(103,291,o),
(119,320,o),
(169,326,c),
(278,307,o),
(328,295,o),
(328,241,cs),
(328,210,o),
(312,181,o),
(262,175,c)
);
}
);
userData = {
RMXScaler = {
adjustSpace = 12;
height = 80.2;
weight = -2;
width = 85;
};
};
width = 431;
},
{
background = {
shapes = (
{
closed = 1;
nodes = (
(403,-10,o),
(463,45,o),
(463,115,cs),
(463,171,o),
(414,208,o),
(391,216,c),
(350,190,l),
(427,203,o),
(475,247,o),
(475,305,cs),
(475,458,o),
(218,427,o),
(218,493,cs),
(218,509,o),
(233,520,o),
(258,520,cs),
(300,520,o),
(328,492,o),
(332,458,c),
(464,458,l),
(464,606,l),
(364,606,l),
(346,537,l),
(373,559,l),
(360,592,o),
(306,620,o),
(235,620,cs),
(116,620,o),
(55,564,o),
(55,495,cs),
(55,440,o),
(103,392,o),
(155,385,c),
(161,419,l),
(87,407,o),
(40,362,o),
(40,303,cs),
(40,149,o),
(300,180,o),
(300,115,cs),
(300,105,o),
(290,93,o),
(260,93,cs),
(205,93,o),
(181,129,o),
(174,161,c),
(42,161,l),
(42,2,l),
(142,2,l),
(160,72,l),
(133,54,l),
(155,13,o),
(214,-10,o),
(283,-10,cs)
);
},
{
closed = 1;
nodes = (
(193,283,o),
(171,300,o),
(171,322,cs),
(171,334,o),
(183,343,o),
(199,347,c),
(296,326,o),
(320,310,o),
(320,287,cs),
(320,275,o),
(308,266,o),
(292,262,c)
);
}
);
};
layerId = "66E383AE-0324-482F-BA05-BB2335E2BE22";
metricLeft = "=section-5";
metricRight = "=section-5";
shapes = (
{
closed = 1;
nodes = (
(403,-70,o),
(463,-15,o),
(463,65,cs),
(463,121,o),
(414,168,o),
(391,176,c),
(350,150,l),
(427,163,o),
(475,207,o),
(475,275,cs),
(475,438,o),
(218,407,o),
(218,483,cs),
(218,509,o),
(233,520,o),
(258,520,cs),
(300,520,o),
(328,492,o),
(332,458,c),
(464,458,l),
(464,606,l),
(364,606,l),
(346,537,l),
(373,559,l),
(360,592,o),
(306,620,o),
(235,620,cs),
(116,620,o),
(55,564,o),
(55,485,cs),
(55,420,o),
(103,372,o),
(155,365,c),
(161,399,l),
(87,387,o),
(40,342,o),
(40,273,cs),
(40,109,o),
(300,140,o),
(300,65,cs),
(300,45,o),
(290,33,o),
(260,33,cs),
(205,33,o),
(181,69,o),
(174,101,c),
(42,101,l),
(42,-58,l),
(142,-58,l),
(160,12,l),
(133,-6,l),
(155,-47,o),
(214,-70,o),
(283,-70,cs)
);
},
{
closed = 1;
nodes = (
(193,243,o),
(171,260,o),
(171,292,cs),
(171,314,o),
(183,323,o),
(199,327,c),
(296,306,o),
(320,290,o),
(320,257,cs),
(320,235,o),
(308,226,o),
(292,222,c)
);
}
);
userData = {
RMXScaler = {
adjustSpace = 10;
height = 86.7;
weight = -12;
width = 90;
};
};
width = 515;
}
);
note = "Маловата, сделала шире. Нижняя засечка на бэйзлайн";
userData = {
RMXScaler = {
source = section;
};
};
},
{
glyphname = paragraph;
lastChange = "2026-02-05 15:46:32 +0000";
layers = (
{
background = {
shapes = (
{
closed = 1;
nodes = (
(321,-80,l),
(321,673,l),
(441,673,l),
(441,-80,l),
(471,-80,l),
(471,700,l),
(250,700,ls),
(128,700,o),
(40,608,o),
(40,505,cs),
(40,402,o),
(128,310,o),
(250,310,cs),
(291,310,l),
(291,-80,l)
);
}
);
};
layerId = "C7A94C11-E66D-4F8C-9A39-C72274EB09D4";
metricLeft = "=40";
metricRight = "=80";
shapes = (
{
closed = 1;
nodes = (
(321,-80,l),
(321,673,l),
(441,673,l),
(441,-80,l),
(471,-80,l),
(471,700,l),
(250,700,ls),
(128,700,o),
(40,608,o),
(40,505,cs),
(40,402,o),
(128,310,o),
(250,310,cs),
(291,310,l),
(291,-80,l)
);
}
);
width = 551;
},
{
background = {
shapes = (
{
closed = 1;
nodes = (
(341,-80,l),
(341,635,l),
(421,635,l),
(421,-80,l),
(491,-80,l),
(491,700,l),
(240,700,ls),
(118,700,o),
(30,608,o),
(30,500,cs),
(30,392,o),
(118,300,o),
(240,300,cs),
(271,300,l),
(271,-80,l)
);
}
);
};
layerId = "80E8E332-7B59-4055-8C08-04349B956208";
metricLeft = "=30";
metricRight = "=70";
shapes = (
{
closed = 1;
nodes = (
(341,-80,l),
(341,635,l),
(421,635,l),
(421,-80,l),
(491,-80,l),
(491,700,l),
(240,700,ls),
(118,700,o),
(30,608,o),
(30,500,cs),
(30,392,o),
(118,300,o),
(240,300,cs),
(271,300,l),
(271,-80,l)
);
}
);
width = 561;
},
{
background = {
shapes = (
{
closed = 1;
nodes = (
(401,-80,l),
(401,585,l),
(481,585,l),
(481,-80,l),
(601,-80,l),
(601,700,l),
(265,700,ls),
(128,700,o),
(30,608,o),
(30,470,cs),
(30,332,o),
(128,240,o),
(265,240,cs),
(281,240,l),
(281,-80,l)
);
}
);
};
layerId = "66E383AE-0324-482F-BA05-BB2335E2BE22";
metricLeft = "=30";
metricRight = "=70";
shapes = (
{
closed = 1;
nodes = (
(401,-80,l),
(401,585,l),
(481,585,l),
(481,-80,l),
(601,-80,l),
(601,700,l),
(265,700,ls),
(128,700,o),
(30,608,o),
(30,470,cs),
(30,332,o),
(128,240,o),
(265,240,cs),
(281,240,l),
(281,-80,l)
);
}
);
width = 671;
}
);
unicode = 182;
},
{
glyphname = copyright;
lastChange = "2026-02-05 15:46:32 +0000";
layers = (
{
background = {
shapes = (
{
closed = 1;
nodes = (
(612,-10,o),
(768,145,o),
(768,350,cs),
(768,555,o),
(612,710,o),
(414,710,cs),
(216,710,o),
(60,555,o),
(60,350,cs),
(60,145,o),
(216,-10,o),
(414,-10,cs)
);
},
{
closed = 1;
nodes = (
(499,165,o),
(562,229,o),
(580,291,c),
(552,291,l),
(532,235,o),
(472,193,o),
(410,193,cs),
(329,193,o),
(261,263,o),
(261,350,cs),
(261,436,o),
(329,507,o),
(410,507,cs),
(468,507,o),
(526,470,o),
(546,395,c),
(566,395,l),
(566,527,l),
(543,527,l),
(538,452,l),
(546,452,l),
(527,493,o),
(475,535,o),
(410,535,cs),
(313,535,o),
(233,451,o),
(233,350,cs),
(233,250,o),
(312,165,o),
(410,165,cs)
);
},
{
closed = 1;
nodes = (
(228,18,o),
(88,164,o),
(88,350,cs),
(88,536,o),
(228,682,o),
(414,682,cs),
(600,682,o),
(740,536,o),
(740,350,cs),
(740,164,o),
(600,18,o),
(414,18,cs)
);
}
);
};
layerId = "C7A94C11-E66D-4F8C-9A39-C72274EB09D4";
metricLeft = "=60";
shapes = (
{
closed = 1;
nodes = (
(612,-10,o),
(768,145,o),
(768,350,cs),
(768,555,o),
(612,710,o),
(414,710,cs),
(216,710,o),
(60,555,o),
(60,350,cs),
(60,145,o),
(216,-10,o),
(414,-10,cs)
);
},
{
closed = 1;
nodes = (
(499,165,o),
(562,229,o),
(580,291,c),
(552,291,l),
(532,235,o),
(472,193,o),
(410,193,cs),
(329,193,o),
(261,263,o),
(261,350,cs),
(261,436,o),
(329,507,o),
(410,507,cs),
(468,507,o),
(526,470,o),
(546,395,c),
(566,395,l),
(566,527,l),
(543,527,l),
(538,452,l),
(546,452,l),
(527,493,o),
(475,535,o),
(410,535,cs),
(313,535,o),
(233,451,o),
(233,350,cs),
(233,250,o),
(312,165,o),
(410,165,cs)
);
},
{
closed = 1;
nodes = (
(228,18,o),
(88,164,o),
(88,350,cs),
(88,536,o),
(228,682,o),
(414,682,cs),
(600,682,o),
(740,536,o),
(740,350,cs),
(740,164,o),
(600,18,o),
(414,18,cs)
);
}
);
width = 828;
},
{
background = {
shapes = (
{
closed = 1;
nodes = (
(612,-10,o),
(773,145,o),
(773,350,cs),
(773,555,o),
(612,710,o),
(414,710,cs),
(216,710,o),
(55,555,o),
(55,350,cs),
(55,145,o),
(216,-10,o),
(414,-10,cs)
);
},
{
closed = 1;
nodes = (
(499,165,o),
(562,229,o),
(580,291,c),
(523,291,l),
(501,256,o),
(470,222,o),
(413,222,cs),
(347,222,o),
(294,278,o),
(294,350,cs),
(294,422,o),
(347,478,o),
(415,478,cs),
(470,478,o),
(508,442,o),
(523,395,c),
(571,395,l),
(571,527,l),
(531,527,l),
(515,455,l),
(535,466,l),
(516,504,o),
(467,535,o),
(410,535,cs),
(314,535,o),
(233,450,o),
(233,350,cs),
(233,250,o),
(312,165,o),
(413,165,cs)
);
},
{
closed = 1;
nodes = (
(260,50,o),
(121,167,o),
(121,350,cs),
(121,533,o),
(260,650,o),
(414,650,cs),
(568,650,o),
(707,533,o),
(707,350,cs),
(707,167,o),
(568,50,o),
(414,50,cs)
);
}
);
};
layerId = "80E8E332-7B59-4055-8C08-04349B956208";
metricLeft = "=55";
shapes = (
{
closed = 1;
nodes = (
(612,-10,o),
(773,145,o),
(773,350,cs),
(773,555,o),
(612,710,o),
(414,710,cs),
(216,710,o),
(55,555,o),
(55,350,cs),
(55,145,o),
(216,-10,o),
(414,-10,cs)
);
},
{
closed = 1;
nodes = (
(499,165,o),
(562,229,o),
(580,291,c),
(523,291,l),
(501,256,o),
(470,222,o),
(413,222,cs),
(347,222,o),
(294,278,o),
(294,350,cs),
(294,422,o),
(347,478,o),
(415,478,cs),
(470,478,o),
(508,442,o),
(523,395,c),
(571,395,l),
(571,527,l),
(531,527,l),
(515,455,l),
(535,466,l),
(516,504,o),
(467,535,o),
(410,535,cs),
(314,535,o),
(233,450,o),
(233,350,cs),
(233,250,o),
(312,165,o),
(413,165,cs)
);
},
{
closed = 1;
nodes = (
(260,50,o),
(121,167,o),
(121,350,cs),
(121,533,o),
(260,650,o),
(414,650,cs),
(568,650,o),
(707,533,o),
(707,350,cs),
(707,167,o),
(568,50,o),
(414,50,cs)
);
}
);
width = 828;
},
{
background = {
shapes = (
{
closed = 1;
nodes = (
(644,-20,o),
(815,143,o),
(815,350,cs),
(815,562,o),
(644,725,o),
(430,725,cs),
(216,725,o),
(45,562,o),
(45,350,cs),
(45,143,o),
(216,-20,o),
(430,-20,cs)
);
},
{
closed = 1;
nodes = (
(541,150,o),
(607,230,o),
(622,301,c),
(513,301,l),
(500,273,o),
(470,245,o),
(428,245,cs),
(379,245,o),
(333,291,o),
(333,349,cs),
(333,409,o),
(379,455,o),
(431,455,cs),
(474,455,o),
(507,426,o),
(518,389,c),
(616,389,l),
(616,541,l),
(536,541,l),
(520,459,l),
(556,464,l),
(542,516,o),
(488,550,o),
(425,550,cs),
(311,550,o),
(228,461,o),
(228,349,cs),
(228,239,o),
(311,150,o),
(428,150,cs)
);
},
{
closed = 1;
nodes = (
(263,75,o),
(148,197,o),
(148,350,cs),
(148,503,o),
(263,625,o),
(430,625,cs),
(597,625,o),
(712,503,o),
(712,350,cs),
(712,197,o),
(597,75,o),
(430,75,cs)
);
}
);
};
layerId = "66E383AE-0324-482F-BA05-BB2335E2BE22";
metricLeft = "=45";
shapes = (
{
closed = 1;
nodes = (
(644,-20,o),
(815,143,o),
(815,350,cs),
(815,562,o),
(644,725,o),
(430,725,cs),
(216,725,o),
(45,562,o),
(45,350,cs),
(45,143,o),
(216,-20,o),
(430,-20,cs)
);
},
{
closed = 1;
nodes = (
(541,150,o),
(607,230,o),
(622,301,c),
(513,301,l),
(500,273,o),
(470,245,o),
(428,245,cs),
(379,245,o),
(333,291,o),
(333,349,cs),
(333,409,o),
(379,455,o),
(431,455,cs),
(474,455,o),
(507,426,o),
(518,389,c),
(616,389,l),
(616,541,l),
(536,541,l),
(520,459,l),
(556,464,l),
(542,516,o),
(488,550,o),
(425,550,cs),
(311,550,o),
(228,461,o),
(228,349,cs),
(228,239,o),
(311,150,o),
(428,150,cs)
);
},
{
closed = 1;
nodes = (
(263,75,o),
(148,197,o),
(148,350,cs),
(148,503,o),
(263,625,o),
(430,625,cs),
(597,625,o),
(712,503,o),
(712,350,cs),
(712,197,o),
(597,75,o),
(430,75,cs)
);
}
);
width = 860;
}
);
metricRight = "=|";
unicode = 169;
},
{
color = 7;
glyphname = registered;
kernLeft = quotedbl;
kernRight = quotedbl;
lastChange = "2026-02-05 15:46:32 +0000";
layers = (
{
background = {
shapes = (
{
closed = 1;
nodes = (
(325,355,o),
(407,434,o),
(407,540,cs),
(407,646,o),
(325,725,o),
(221,725,cs),
(117,725,o),
(35,646,o),
(35,540,cs),
(35,434,o),
(117,355,o),
(221,355,cs)
);
},
{
closed = 1;
nodes = (
(131,383,o),
(63,450,o),
(63,540,cs),
(63,630,o),
(131,697,o),
(221,697,cs),
(311,697,o),
(379,630,o),
(379,540,cs),
(379,450,o),
(311,383,o),
(221,383,cs)
);
},
{
closed = 1;
nodes = (
(216,458,l),
(216,473,l),
(193,477,l),
(193,614,l),
(229,614,ls),
(255,614,o),
(270,598,o),
(270,582,cs),
(270,560,o),
(255,550,o),
(229,550,cs),
(178,550,l),
(178,530,l),
(232,530,ls),
(272,530,o),
(295,548,o),
(295,582,cs),
(295,610,o),
(272,634,o),
(232,634,cs),
(142,634,l),
(142,619,l),
(168,615,l),
(168,477,l),
(142,473,l),
(142,458,l)
);
},
{
closed = 1;
nodes = (
(313,458,l),
(313,473,l),
(290,478,l),
(246,539,l),
(221,535,l),
(262,477,l),
(240,473,l),
(240,458,l)
);
}
);
};
color = 0;
layerId = "C7A94C11-E66D-4F8C-9A39-C72274EB09D4";
metricLeft = "=35";
shapes = (
{
closed = 1;
nodes = (
(325,355,o),
(407,434,o),
(407,540,cs),
(407,646,o),
(325,725,o),
(221,725,cs),
(117,725,o),
(35,646,o),
(35,540,cs),
(35,434,o),
(117,355,o),
(221,355,cs)
);
},
{
closed = 1;
nodes = (
(131,383,o),
(63,450,o),
(63,540,cs),
(63,630,o),
(131,697,o),
(221,697,cs),
(311,697,o),
(379,630,o),
(379,540,cs),
(379,450,o),
(311,383,o),
(221,383,cs)
);
},
{
closed = 1;
nodes = (
(295,457,o),
(300,458,o),
(304,460,c),
(304,474,l),
(301,474,ls),
(294,474,o),
(290,477,o),
(283,487,cs),
(258,523,ls),
(256,526,o),
(253,529,o),
(250,532,c),
(279,537,o),
(295,556,o),
(295,582,cs),
(295,613,o),
(272,634,o),
(232,634,cs),
(142,634,l),
(142,619,l),
(168,615,l),
(168,477,l),
(142,473,l),
(142,458,l),
(216,458,l),
(216,473,l),
(193,477,l),
(193,614,l),
(229,614,ls),
(254,614,o),
(270,602,o),
(270,582,cs),
(270,560,o),
(255,550,o),
(229,550,cs),
(178,550,l),
(178,530,l),
(204,530,ls),
(221,530,o),
(228,526,o),
(237,513,cs),
(244,502,o),
(252,492,o),
(259,481,cs),
(270,465,o),
(276,457,o),
(290,457,cs)
);
}
);
width = 442;
},
{
background = {
shapes = (
{
closed = 1;
nodes = (
(322,355,o),
(406,434,o),
(406,540,cs),
(406,646,o),
(322,725,o),
(218,725,cs),
(114,725,o),
(30,646,o),
(30,540,cs),
(30,434,o),
(114,355,o),
(218,355,cs)
);
},
{
closed = 1;
nodes = (
(144,400,o),
(78,454,o),
(78,540,cs),
(78,626,o),
(144,680,o),
(218,680,cs),
(292,680,o),
(358,626,o),
(358,540,cs),
(358,454,o),
(292,400,o),
(218,400,cs)
);
},
{
closed = 1;
nodes = (
(312,458,l),
(312,483,l),
(279,489,l),
(303,467,l),
(251,539,l),
(213,535,l),
(261,467,l),
(262,488,l),
(229,483,l),
(229,458,l)
);
},
{
closed = 1;
nodes = (
(219,458,l),
(219,483,l),
(198,487,l),
(198,604,l),
(221,604,ls),
(244,604,o),
(253,594,o),
(253,579,cs),
(253,564,o),
(244,554,o),
(221,554,cs),
(191,554,l),
(191,524,l),
(224,524,ls),
(271,524,o),
(294,548,o),
(294,579,cs),
(294,610,o),
(271,634,o),
(224,634,cs),
(136,634,l),
(136,609,l),
(161,605,l),
(161,487,l),
(136,483,l),
(136,458,l)
);
}
);
};
layerId = "80E8E332-7B59-4055-8C08-04349B956208";
metricLeft = "=30";
shapes = (
{
closed = 1;
nodes = (
(322,355,o),
(406,434,o),
(406,540,cs),
(406,646,o),
(322,725,o),
(218,725,cs),
(114,725,o),
(30,646,o),
(30,540,cs),
(30,434,o),
(114,355,o),
(218,355,cs)
);
},
{
closed = 1;
nodes = (
(144,400,o),
(78,454,o),
(78,540,cs),
(78,626,o),
(144,680,o),
(218,680,cs),
(292,680,o),
(358,626,o),
(358,540,cs),
(358,454,o),
(292,400,o),
(218,400,cs)
);
},
{
closed = 1;
nodes = (
(291,455,o),
(298,456,o),
(304,459,c),
(304,488,l),
(298,488,ls),
(286,488,o),
(284,489,o),
(275,504,cs),
(272,509,ls),
(268,516,o),
(263,523,o),
(258,529,c),
(282,538,o),
(294,557,o),
(294,579,cs),
(294,610,o),
(271,634,o),
(224,634,cs),
(136,634,l),
(136,609,l),
(161,605,l),
(161,487,l),
(136,483,l),
(136,458,l),
(219,458,l),
(219,483,l),
(198,487,l),
(198,604,l),
(222,604,ls),
(245,604,o),
(254,594,o),
(254,579,cs),
(254,564,o),
(245,554,o),
(222,554,cs),
(171,554,l),
(171,524,l),
(209,524,ls),
(218,524,o),
(224,520,o),
(230,510,cs),
(236,501,o),
(239,495,o),
(244,487,cs),
(259,463,o),
(268,455,o),
(285,455,cs)
);
}
);
width = 436;
},
{
background = {
shapes = (
{
closed = 1;
nodes = (
(385,280,o),
(487,380,o),
(487,505,cs),
(487,630,o),
(385,730,o),
(257,730,cs),
(127,730,o),
(25,630,o),
(25,505,cs),
(25,380,o),
(127,280,o),
(257,280,cs)
);
},
{
closed = 1;
nodes = (
(166,350,o),
(98,415,o),
(98,505,cs),
(98,595,o),
(165,660,o),
(257,660,cs),
(347,660,o),
(414,595,o),
(414,505,cs),
(414,415,o),
(347,350,o),
(257,350,cs)
);
},
{
closed = 1;
nodes = (
(255,394,l),
(255,429,l),
(230,434,l),
(230,564,l),
(264,564,ls),
(275,564,o),
(285,559,o),
(285,546,cs),
(285,533,o),
(275,528,o),
(264,528,cs),
(217,528,l),
(217,475,l),
(276,475,ls),
(324,475,o),
(355,510,o),
(355,546,cs),
(355,582,o),
(324,617,o),
(276,617,cs),
(150,617,l),
(150,571,l),
(165,566,l),
(165,434,l),
(150,429,l),
(150,394,l)
);
},
{
closed = 1;
nodes = (
(363,394,l),
(363,429,l),
(348,432,l),
(304,493,l),
(236,488,l),
(278,431,l),
(267,429,l),
(267,394,l)
);
}
);
};
layerId = "66E383AE-0324-482F-BA05-BB2335E2BE22";
metricLeft = "=25";
shapes = (
{
closed = 1;
nodes = (
(385,280,o),
(487,380,o),
(487,505,cs),
(487,630,o),
(385,730,o),
(257,730,cs),
(127,730,o),
(25,630,o),
(25,505,cs),
(25,380,o),
(127,280,o),
(257,280,cs)
);
},
{
closed = 1;
nodes = (
(166,350,o),
(98,415,o),
(98,505,cs),
(98,595,o),
(165,660,o),
(257,660,cs),
(347,660,o),
(414,595,o),
(414,505,cs),
(414,415,o),
(347,350,o),
(257,350,cs)
);
},
{
closed = 1;
nodes = (
(337,391,o),
(348,392,o),
(357,394,c),
(357,443,l),
(354,443,ls),
(349,443,o),
(338,444,o),
(329,456,cs),
(324,463,ls),
(319,471,o),
(317,474,o),
(311,482,c),
(338,494,o),
(355,520,o),
(355,546,cs),
(355,582,o),
(324,617,o),
(278,617,cs),
(150,617,l),
(150,571,l),
(165,566,l),
(165,434,l),
(150,429,l),
(150,394,l),
(255,394,l),
(255,429,l),
(230,434,l),
(230,564,l),
(264,564,ls),
(275,564,o),
(285,559,o),
(285,546,cs),
(285,533,o),
(275,528,o),
(264,528,cs),
(207,528,l),
(207,475,l),
(235,475,ls),
(244,475,o),
(253,471,o),
(258,462,cs),
(265,450,o),
(271,438,o),
(278,426,cs),
(290,404,o),
(310,391,o),
(331,391,cs)
);
}
);
width = 512;
}
);
metricRight = "=|";
note = "Посадка?";
unicode = 174;
},
{
color = 7;
glyphname = trademark;
kernLeft = quotedbl;
kernRight = quotedbl;
lastChange = "2026-02-05 15:46:32 +0000";
layers = (
{
background = {
shapes = (
{
closed = 1;
nodes = (
(503,375,l),
(503,397,l),
(437,402,l),
(437,675,l),
(426,682,l),
(556,402,l),
(578,402,l),
(706,677,l),
(697,675,l),
(697,402,l),
(631,397,l),
(631,375,l),
(778,375,l),
(778,397,l),
(722,402,l),
(722,673,l),
(778,678,l),
(778,700,l),
(689,700,l),
(561,425,l),
(573,425,l),
(445,700,l),
(356,700,l),
(356,678,l),
(412,673,l),
(412,402,l),
(356,397,l),
(356,375,l)
);
},
{
closed = 1;
nodes = (
(257,375,l),
(257,397,l),
(191,402,l),
(191,675,l),
(292,675,l),
(299,578,l),
(322,578,l),
(322,700,l),
(35,700,l),
(35,578,l),
(58,578,l),
(65,675,l),
(166,675,l),
(166,402,l),
(100,397,l),
(100,375,l)
);
}
);
};
color = 0;
layerId = "C7A94C11-E66D-4F8C-9A39-C72274EB09D4";
metricLeft = "=35";
metricRight = "=40";
shapes = (
{
closed = 1;
nodes = (
(503,375,l),
(503,397,l),
(437,402,l),
(437,675,l),
(426,682,l),
(556,402,l),
(578,402,l),
(706,677,l),
(697,675,l),
(697,402,l),
(631,397,l),
(631,375,l),
(778,375,l),
(778,397,l),
(722,402,l),
(722,673,l),
(778,678,l),
(778,700,l),
(689,700,l),
(561,425,l),
(573,425,l),
(445,700,l),
(356,700,l),
(356,678,l),
(412,673,l),
(412,402,l),
(356,397,l),
(356,375,l)
);
},
{
closed = 1;
nodes = (
(257,375,l),
(257,397,l),
(191,402,l),
(191,675,l),
(292,675,l),
(299,578,l),
(322,578,l),
(322,700,l),
(35,700,l),
(35,578,l),
(58,578,l),
(65,675,l),
(166,675,l),
(166,402,l),
(100,397,l),
(100,375,l)
);
}
);
width = 818;
},
{
background = {
shapes = (
{
closed = 1;
nodes = (
(513,375,l),
(513,415,l),
(467,425,l),
(467,647,l),
(451,647,l),
(557,402,l),
(597,402,l),
(703,647,l),
(687,647,l),
(687,425,l),
(641,415,l),
(641,375,l),
(792,375,l),
(792,415,l),
(742,425,l),
(742,648,l),
(792,658,l),
(792,700,l),
(676,700,l),
(562,438,l),
(594,438,l),
(480,700,l),
(362,700,l),
(362,658,l),
(412,648,l),
(412,425,l),
(362,415,l),
(362,375,l)
);
},
{
closed = 1;
nodes = (
(261,375,l),
(261,415,l),
(206,425,l),
(206,647,l),
(280,647,l),
(289,577,l),
(332,577,l),
(332,700,l),
(25,700,l),
(25,577,l),
(68,577,l),
(77,647,l),
(151,647,l),
(151,425,l),
(96,415,l),
(96,375,l)
);
}
);
};
layerId = "80E8E332-7B59-4055-8C08-04349B956208";
metricLeft = "=25";
metricRight = "=35";
shapes = (
{
closed = 1;
nodes = (
(513,375,l),
(513,415,l),
(467,425,l),
(467,647,l),
(451,647,l),
(557,402,l),
(597,402,l),
(703,647,l),
(687,647,l),
(687,425,l),
(641,415,l),
(641,375,l),
(792,375,l),
(792,415,l),
(742,425,l),
(742,648,l),
(792,658,l),
(792,700,l),
(676,700,l),
(562,438,l),
(594,438,l),
(480,700,l),
(362,700,l),
(362,658,l),
(412,648,l),
(412,425,l),
(362,415,l),
(362,375,l)
);
},
{
closed = 1;
nodes = (
(261,375,l),
(261,415,l),
(206,425,l),
(206,647,l),
(280,647,l),
(289,577,l),
(332,577,l),
(332,700,l),
(25,700,l),
(25,577,l),
(68,577,l),
(77,647,l),
(151,647,l),
(151,425,l),
(96,415,l),
(96,375,l)
);
}
);
width = 827;
},
{
background = {
shapes = (
{
closed = 1;
nodes = (
(628,345,l),
(628,420,l),
(587,430,l),
(587,647,l),
(576,577,l),
(672,382,l),
(722,382,l),
(818,577,l),
(807,647,l),
(807,430,l),
(766,420,l),
(766,345,l),
(967,345,l),
(967,420,l),
(917,430,l),
(917,615,l),
(967,625,l),
(967,700,l),
(776,700,l),
(672,488,l),
(724,488,l),
(620,700,l),
(427,700,l),
(427,625,l),
(477,615,l),
(477,430,l),
(427,420,l),
(427,345,l)
);
},
{
closed = 1;
nodes = (
(326,345,l),
(326,420,l),
(271,430,l),
(271,601,l),
(313,601,l),
(322,531,l),
(402,531,l),
(402,700,l),
(25,700,l),
(25,531,l),
(105,531,l),
(114,601,l),
(156,601,l),
(156,430,l),
(101,420,l),
(101,345,l)
);
}
);
};
layerId = "66E383AE-0324-482F-BA05-BB2335E2BE22";
metricLeft = "=25";
metricRight = "=35";
shapes = (
{
closed = 1;
nodes = (
(628,345,l),
(628,420,l),
(587,430,l),
(587,647,l),
(576,577,l),
(672,382,l),
(722,382,l),
(818,577,l),
(807,647,l),
(807,430,l),
(766,420,l),
(766,345,l),
(967,345,l),
(967,420,l),
(917,430,l),
(917,615,l),
(967,625,l),
(967,700,l),
(776,700,l),
(672,488,l),
(724,488,l),
(620,700,l),
(427,700,l),
(427,625,l),
(477,615,l),
(477,430,l),
(427,420,l),
(427,345,l)
);
},
{
closed = 1;
nodes = (
(326,345,l),
(326,420,l),
(271,430,l),
(271,601,l),
(313,601,l),
(322,531,l),
(402,531,l),
(402,700,l),
(25,700,l),
(25,531,l),
(105,531,l),
(114,601,l),
(156,601,l),
(156,430,l),
(101,420,l),
(101,345,l)
);
}
);
width = 1002;
}
);
unicode = 8482;
},
{
glyphname = at;
lastChange = "2026-02-05 15:46:32 +0000";
layers = (
{
background = {
shapes = (
{
closed = 1;
nodes = (
(472,-125,o),
(523,-116,o),
(569,-100,c),
(559,-73,l),
(518,-88,o),
(470,-97,o),
(419,-97,cs),
(211,-97,o),
(63,46,o),
(63,245,cs),
(63,444,o),
(212,587,o),
(419,587,cs),
(625,587,o),
(765,457,o),
(765,265,cs),
(765,156,o),
(708,86,o),
(643,86,cs),
(606,86,o),
(584,108,o),
(584,145,cs),
(584,435,l),
(554,435,l),
(554,318,l),
(568,318,l),
(547,391,o),
(481,440,o),
(405,440,cs),
(308,440,o),
(225,355,o),
(225,245,cs),
(225,135,o),
(308,51,o),
(405,51,cs),
(481,51,o),
(544,99,o),
(571,178,c),
(556,160,l),
(551,98,o),
(585,58,o),
(643,58,cs),
(738,58,o),
(793,156,o),
(793,265,cs),
(793,472,o),
(640,615,o),
(419,615,cs),
(196,615,o),
(35,460,o),
(35,245,cs),
(35,30,o),
(196,-125,o),
(419,-125,cs)
);
},
{
closed = 1;
nodes = (
(321,78,o),
(253,152,o),
(253,245,cs),
(253,339,o),
(321,412,o),
(405,412,cs),
(489,412,o),
(557,339,o),
(557,245,cs),
(557,152,o),
(489,78,o),
(405,78,cs)
);
}
);
};
layerId = "C7A94C11-E66D-4F8C-9A39-C72274EB09D4";
metricLeft = "=35";
shapes = (
{
closed = 1;
nodes = (
(472,-125,o),
(523,-116,o),
(569,-100,c),
(559,-73,l),
(518,-88,o),
(470,-97,o),
(419,-97,cs),
(211,-97,o),
(63,46,o),
(63,245,cs),
(63,444,o),
(212,587,o),
(419,587,cs),
(625,587,o),
(765,457,o),
(765,265,cs),
(765,156,o),
(708,86,o),
(643,86,cs),
(606,86,o),
(584,108,o),
(584,145,cs),
(584,435,l),
(554,435,l),
(554,318,l),
(568,318,l),
(547,391,o),
(481,440,o),
(405,440,cs),
(308,440,o),
(225,355,o),
(225,245,cs),
(225,135,o),
(308,51,o),
(405,51,cs),
(481,51,o),
(544,99,o),
(571,178,c),
(556,160,l),
(551,98,o),
(585,58,o),
(643,58,cs),
(738,58,o),
(793,156,o),
(793,265,cs),
(793,472,o),
(640,615,o),
(419,615,cs),
(196,615,o),
(35,460,o),
(35,245,cs),
(35,30,o),
(196,-125,o),
(419,-125,cs)
);
},
{
closed = 1;
nodes = (
(321,78,o),
(253,152,o),
(253,245,cs),
(253,339,o),
(321,412,o),
(405,412,cs),
(489,412,o),
(557,339,o),
(557,245,cs),
(557,152,o),
(489,78,o),
(405,78,cs)
);
}
);
width = 828;
},
{
background = {
shapes = (
{
closed = 1;
nodes = (
(468,-125,o),
(519,-116,o),
(564,-100,c),
(543,-43,l),
(504,-58,o),
(460,-65,o),
(414,-65,cs),
(234,-65,o),
(95,52,o),
(95,245,cs),
(95,438,o),
(234,555,o),
(414,555,cs),
(604,555,o),
(723,438,o),
(723,265,cs),
(723,164,o),
(679,115,o),
(632,115,cs),
(602,115,o),
(584,130,o),
(584,166,cs),
(584,435,l),
(527,435,l),
(527,348,l),
(544,347,l),
(517,402,o),
(459,440,o),
(396,440,cs),
(298,440,o),
(215,355,o),
(215,245,cs),
(215,136,o),
(298,51,o),
(396,51,cs),
(459,51,o),
(517,89,o),
(544,145,c),
(527,136,l),
(527,98,o),
(569,58,o),
(632,58,cs),
(733,58,o),
(788,156,o),
(788,265,cs),
(788,460,o),
(647,615,o),
(414,615,cs),
(191,615,o),
(30,460,o),
(30,245,cs),
(30,30,o),
(191,-125,o),
(414,-125,cs)
);
},
{
closed = 1;
nodes = (
(330,108,o),
(275,164,o),
(275,245,cs),
(275,327,o),
(330,383,o),
(400,383,cs),
(470,383,o),
(524,327,o),
(524,245,cs),
(524,164,o),
(470,108,o),
(400,108,cs)
);
}
);
};
layerId = "80E8E332-7B59-4055-8C08-04349B956208";
metricLeft = "=30";
shapes = (
{
closed = 1;
nodes = (
(468,-125,o),
(519,-116,o),
(564,-100,c),
(543,-43,l),
(504,-58,o),
(460,-65,o),
(414,-65,cs),
(234,-65,o),
(95,52,o),
(95,245,cs),
(95,438,o),
(234,555,o),
(414,555,cs),
(604,555,o),
(723,438,o),
(723,265,cs),
(723,164,o),
(679,115,o),
(632,115,cs),
(602,115,o),
(584,130,o),
(584,166,cs),
(584,435,l),
(527,435,l),
(527,348,l),
(544,347,l),
(517,402,o),
(459,440,o),
(396,440,cs),
(298,440,o),
(215,355,o),
(215,245,cs),
(215,136,o),
(298,51,o),
(396,51,cs),
(459,51,o),
(517,89,o),
(544,145,c),
(527,136,l),
(527,98,o),
(569,58,o),
(632,58,cs),
(733,58,o),
(788,156,o),
(788,265,cs),
(788,460,o),
(647,615,o),
(414,615,cs),
(191,615,o),
(30,460,o),
(30,245,cs),
(30,30,o),
(191,-125,o),
(414,-125,cs)
);
},
{
closed = 1;
nodes = (
(330,108,o),
(275,164,o),
(275,245,cs),
(275,327,o),
(330,383,o),
(400,383,cs),
(470,383,o),
(524,327,o),
(524,245,cs),
(524,164,o),
(470,108,o),
(400,108,cs)
);
}
);
width = 818;
},
{
background = {
shapes = (
{
closed = 1;
nodes = (
(512,-140,o),
(559,-131,o),
(604,-115,c),
(583,-18,l),
(544,-32,o),
(500,-40,o),
(449,-40,cs),
(265,-40,o),
(140,77,o),
(140,245,cs),
(140,413,o),
(265,530,o),
(444,530,cs),
(648,530,o),
(738,403,o),
(738,265,cs),
(738,202,o),
(718,153,o),
(672,153,cs),
(632,153,o),
(622,188,o),
(622,214,cs),
(622,435,l),
(537,435,l),
(537,348,l),
(564,347,l),
(542,402,o),
(482,440,o),
(416,440,cs),
(313,440,o),
(230,355,o),
(230,245,cs),
(230,136,o),
(313,51,o),
(416,51,cs),
(482,51,o),
(542,89,o),
(564,143,c),
(547,136,l),
(557,98,o),
(599,58,o),
(672,58,cs),
(793,58,o),
(848,156,o),
(848,265,cs),
(848,460,o),
(702,630,o),
(444,630,cs),
(196,630,o),
(30,460,o),
(30,245,cs),
(30,30,o),
(196,-140,o),
(439,-140,cs)
);
},
{
closed = 1;
nodes = (
(374,146,o),
(335,186,o),
(335,245,cs),
(335,304,o),
(374,344,o),
(427,344,cs),
(478,344,o),
(517,304,o),
(517,245,cs),
(517,186,o),
(478,146,o),
(427,146,cs)
);
}
);
};
layerId = "66E383AE-0324-482F-BA05-BB2335E2BE22";
metricLeft = "=30";
shapes = (
{
closed = 1;
nodes = (
(508,-140,o),
(574,-128,o),
(627,-106,c),
(592,-11,l),
(549,-29,o),
(503,-40,o),
(448,-40,cs),
(266,-40,o),
(140,77,o),
(140,245,cs),
(140,413,o),
(265,530,o),
(444,530,cs),
(648,530,o),
(738,403,o),
(738,265,cs),
(738,202,o),
(718,153,o),
(672,153,cs),
(632,153,o),
(622,188,o),
(622,214,cs),
(622,435,l),
(537,435,l),
(537,348,l),
(564,347,l),
(542,402,o),
(482,440,o),
(416,440,cs),
(313,440,o),
(230,355,o),
(230,245,cs),
(230,136,o),
(313,51,o),
(416,51,cs),
(482,51,o),
(542,89,o),
(564,143,c),
(547,136,l),
(557,98,o),
(599,58,o),
(672,58,cs),
(793,58,o),
(848,156,o),
(848,265,cs),
(848,460,o),
(702,630,o),
(444,630,cs),
(196,630,o),
(30,460,o),
(30,245,cs),
(30,30,o),
(194,-140,o),
(439,-140,cs)
);
},
{
closed = 1;
nodes = (
(374,146,o),
(335,186,o),
(335,245,cs),
(335,304,o),
(374,344,o),
(427,344,cs),
(478,344,o),
(517,304,o),
(517,245,cs),
(517,186,o),
(478,146,o),
(427,146,cs)
);
}
);
width = 878;
}
);
metricRight = "=|";
unicode = 64;
},
{
color = 10;
glyphname = A;
kernLeft = A;
kernRight = A;
lastChange = "2026-02-06 15:20:16 +0000";
layers = (
{
anchors = (
{
name = ogonek;
pos = (625,0);
},
{
name = top;
pos = (345,700);
}
);
background = {
anchors = (
{
name = ogonek;
pos = (625,0);
},
{
name = top;
pos = (345,700);
}
);
shapes = (
{
closed = 1;
nodes = (
(210,0,l),
(210,22,l),
(107,27,l),
(118,14,l),
(197,226,l),
(200,234,l),
(369,688,l),
(345,688,l),
(513,235,l),
(516,227,l),
(596,11,l),
(616,27,l),
(516,22,l),
(516,0,l),
(696,0,l),
(696,22,l),
(599,27,l),
(627,14,l),
(371,700,l),
(228,700,l),
(228,678,l),
(343,673,l),
(340,686,l),
(88,14,l),
(104,27,l),
(20,22,l),
(20,0,l)
);
},
{
closed = 1;
nodes = (
(535,215,l),
(521,242,l),
(195,242,l),
(182,215,l)
);
}
);
};
color = 10;
layerId = "C7A94C11-E66D-4F8C-9A39-C72274EB09D4";
metricLeft = "=20";
metricRight = "=|-25";
shapes = (
{
closed = 1;
nodes = (
(210,0,l),
(210,22,l),
(123,26,l),
(197,226,l),
(200,234,l),
(355,650,l),
(360,650,l),
(513,235,l),
(516,227,l),
(591,26,l),
(516,22,l),
(516,0,l),
(696,0,l),
(696,22,l),
(623,26,l),
(372,700,l),
(228,700,l),
(228,678,l),
(335,673,l),
(93,26,l),
(20,22,l),
(20,0,l)
);
},
{
closed = 1;
nodes = (
(535,215,l),
(521,242,l),
(195,242,l),
(182,215,l)
);
}
);
width = 691;
},
{
anchors = (
{
name = ogonek;
pos = (630,0);
},
{
name = top;
pos = (340,700);
}
);
background = {
shapes = (
{
closed = 1;
nodes = (
(235,0,l),
(235,50,l),
(161,65,l),
(207,195,l),
(510,195,l),
(484,265,l),
(232,265,l),
(350,589,l),
(360,589,l),
(542,64,l),
(471,50,l),
(471,0,l),
(701,0,l),
(701,50,l),
(623,65,l),
(396,700,l),
(203,700,l),
(203,650,l),
(296,635,l),
(83,65,l),
(5,50,l),
(5,0,l)
);
}
);
};
layerId = "80E8E332-7B59-4055-8C08-04349B956208";
metricLeft = "=5";
metricRight = "=|-15";
shapes = (
{
closed = 1;
nodes = (
(235,0,l),
(235,50,l),
(161,65,l),
(222,235,l),
(225,244,l),
(350,589,l),
(360,589,l),
(480,244,l),
(483,235,l),
(542,64,l),
(471,50,l),
(471,0,l),
(701,0,l),
(701,50,l),
(623,65,l),
(396,700,l),
(203,700,l),
(203,650,l),
(296,635,l),
(83,65,l),
(5,50,l),
(5,0,l)
);
},
{
closed = 1;
nodes = (
(520,195,l),
(494,260,l),
(206,260,l),
(181,195,l)
);
}
);
width = 691;
},
{
anchors = (
{
name = ogonek;
pos = (660,0);
},
{
name = top;
pos = (362,700);
}
);
layerId = "66E383AE-0324-482F-BA05-BB2335E2BE22";
metricLeft = "=5";
metricRight = "=|";
shapes = (
{
closed = 1;
nodes = (
(335,0,l),
(335,105,l),
(265,121,l),
(287,200,l),
(298,310,l),
(372,545,l),
(382,545,l),
(448,310,l),
(456,200,l),
(479,119,l),
(415,105,l),
(415,0,l),
(745,0,l),
(745,105,l),
(675,118,l),
(495,700,l),
(123,700,l),
(123,595,l),
(226,579,l),
(75,118,l),
(5,105,l),
(5,0,l)
);
},
{
closed = 1;
nodes = (
(526,185,l),
(510,325,l),
(237,325,l),
(217,185,l)
);
}
);
width = 750;
}
);
unicode = 65;
},
{
color = 7;
glyphname = B;
kernLeft = H;
kernRight = B;
lastChange = "2026-02-05 15:46:32 +0000";
layers = (
{
background = {
shapes = (
{
closed = 1;
nodes = (
(373,0,ls),
(530,0,o),
(605,90,o),
(605,189,cs),
(605,275,o),
(549,355,o),
(430,373,c),
(430,358,l),
(512,375,o),
(581,427,o),
(581,526,cs),
(581,624,o),
(507,700,o),
(365,700,cs),
(70,700,l),
(70,678,l),
(155,673,l),
(155,27,l),
(70,22,l),
(70,0,l)
);
},
{
closed = 1;
nodes = (
(185,673,l),
(365,673,ls),
(471,673,o),
(549,624,o),
(549,525,cs),
(549,427,o),
(471,378,o),
(365,378,cs),
(175,378,l),
(175,351,l),
(373,351,ls),
(504,351,o),
(573,282,o),
(573,189,cs),
(573,96,o),
(504,27,o),
(373,27,cs),
(185,27,l)
);
}
);
};
color = 10;
layerId = "C7A94C11-E66D-4F8C-9A39-C72274EB09D4";
metricRight = "=70";
shapes = (
{
closed = 1;
nodes = (
(373,0,ls),
(530,0,o),
(605,90,o),
(605,189,cs),
(605,265,o),
(562,336,o),
(470,364,c),
(470,368,l),
(535,392,o),
(585,442,o),
(585,526,cs),
(585,624,o),
(511,700,o),
(369,700,cs),
(60,700,l),
(60,678,l),
(145,673,l),
(145,27,l),
(60,22,l),
(60,0,l)
);
},
{
closed = 1;
nodes = (
(175,673,l),
(369,673,ls),
(475,673,o),
(553,624,o),
(553,525,cs),
(553,427,o),
(475,378,o),
(369,378,cs),
(165,378,l),
(165,351,l),
(373,351,ls),
(504,351,o),
(573,282,o),
(573,189,cs),
(573,96,o),
(504,27,o),
(373,27,cs),
(175,27,l)
);
}
);
width = 675;
},
{
background = {
shapes = (
{
closed = 1;
nodes = (
(395,0,ls),
(527,0,o),
(620,65,o),
(620,200,cs),
(620,304,o),
(559,354,o),
(470,379,c),
(470,359,l),
(514,366,o),
(596,408,o),
(596,526,cs),
(596,635,o),
(512,700,o),
(390,700,cs),
(45,700,l),
(45,650,l),
(130,635,l),
(130,65,l),
(45,50,l),
(45,0,l)
);
},
{
closed = 1;
nodes = (
(205,630,l),
(383,630,ls),
(446,630,o),
(520,595,o),
(520,515,cs),
(520,425,o),
(446,400,o),
(383,400,cs),
(189,400,l),
(189,330,l),
(387,330,ls),
(464,330,o),
(544,295,o),
(544,200,cs),
(544,105,o),
(464,70,o),
(387,70,cs),
(205,70,l)
);
}
);
};
layerId = "80E8E332-7B59-4055-8C08-04349B956208";
metricRight = "=50";
shapes = (
{
closed = 1;
nodes = (
(392,0,ls),
(527,0,o),
(620,65,o),
(620,190,cs),
(620,290,o),
(562,341,o),
(491,361,c),
(491,366,l),
(564,393,o),
(600,445,o),
(600,521,cs),
(600,635,o),
(516,700,o),
(392,700,cs),
(50,700,l),
(50,650,l),
(135,635,l),
(135,65,l),
(50,50,l),
(50,0,l)
);
},
{
closed = 1;
nodes = (
(210,630,l),
(392,630,ls),
(460,630,o),
(524,595,o),
(524,515,cs),
(524,420,o),
(460,395,o),
(392,395,cs),
(174,395,l),
(174,330,l),
(392,330,ls),
(474,330,o),
(544,290,o),
(544,200,cs),
(544,105,o),
(474,70,o),
(392,70,cs),
(210,70,l)
);
}
);
width = 670;
},
{
background = {
shapes = (
{
closed = 1;
nodes = (
(440,0,ls),
(602,0,o),
(685,95,o),
(685,205,cs),
(685,294,o),
(629,363,o),
(540,379,c),
(545,359,l),
(596,371,o),
(663,433,o),
(663,526,cs),
(663,630,o),
(579,700,o),
(440,700,cs),
(25,700,l),
(25,595,l),
(105,580,l),
(105,120,l),
(25,105,l),
(25,0,l)
);
},
{
closed = 1;
nodes = (
(295,560,l),
(404,560,ls),
(440,560,o),
(468,542,o),
(468,498,cs),
(468,453,o),
(440,435,o),
(404,435,cs),
(269,435,l),
(269,295,l),
(401,295,ls),
(446,295,o),
(480,273,o),
(480,218,cs),
(480,162,o),
(446,140,o),
(401,140,cs),
(295,140,l)
);
}
);
};
layerId = "66E383AE-0324-482F-BA05-BB2335E2BE22";
metricRight = "=45";
shapes = (
{
closed = 1;
nodes = (
(440,0,ls),
(602,0,o),
(685,96,o),
(685,205,cs),
(685,285,o),
(636,342,o),
(567,362,c),
(567,372,l),
(624,397,o),
(663,447,o),
(663,526,cs),
(663,632,o),
(579,700,o),
(440,700,cs),
(25,700,l),
(25,595,l),
(105,580,l),
(105,120,l),
(25,105,l),
(25,0,l)
);
},
{
closed = 1;
nodes = (
(295,560,l),
(399,560,ls),
(440,560,o),
(468,540,o),
(468,496,cs),
(468,447,o),
(440,430,o),
(399,430,cs),
(199,430,l),
(199,295,l),
(398,295,ls),
(446,295,o),
(480,273,o),
(480,218,cs),
(480,162,o),
(446,140,o),
(398,140,cs),
(295,140,l)
);
}
);
width = 730;
}
);
metricLeft = "=H";
unicode = 66;
},
{
color = 7;
glyphname = C;
kernLeft = O;
kernRight = C;
lastChange = "2026-02-06 15:24:44 +0000";
layers = (
{
anchors = (
{
name = bottom;
pos = (410,0);
},
{
name = top;
pos = (410,700);
}
);
background = {
anchors = (
{
name = bottom;
pos = (390,0);
},
{
name = top;
pos = (405,700);
}
);
shapes = (
{
closed = 1;
nodes = (
(530,-10,o),
(647,78,o),
(692,214,c),
(662,214,l),
(623,98,o),
(515,18,o),
(393,18,cs),
(241,18,o),
(97,145,o),
(97,350,cs),
(97,555,o),
(241,682,o),
(393,682,cs),
(527,682,o),
(639,585,o),
(666,466,c),
(686,466,l),
(686,685,l),
(663,685,l),
(658,545,l),
(662,551,l),
(607,649,o),
(510,710,o),
(393,710,cs),
(207,710,o),
(65,555,o),
(65,350,cs),
(65,145,o),
(207,-10,o),
(393,-10,cs)
);
}
);
};
color = 10;
layerId = "C7A94C11-E66D-4F8C-9A39-C72274EB09D4";
metricRight = "=O";
shapes = (
{
closed = 1;
nodes = (
(530,-10,o),
(652,78,o),
(695,214,c),
(665,214,l),
(626,98,o),
(515,18,o),
(393,18,cs),
(241,18,o),
(97,145,o),
(97,350,cs),
(97,555,o),
(241,682,o),
(393,682,cs),
(527,682,o),
(639,585,o),
(666,466,c),
(686,466,l),
(686,685,l),
(663,685,l),
(658,545,l),
(662,551,l),
(607,649,o),
(510,710,o),
(393,710,cs),
(207,710,o),
(65,555,o),
(65,350,cs),
(65,145,o),
(207,-10,o),
(393,-10,cs)
);
}
);
width = 760;
},
{
anchors = (
{
name = bottom;
pos = (410,0);
},
{
name = top;
pos = (410,700);
}
);
background = {
anchors = (
{
name = bottom;
pos = (385,0);
},
{
name = top;
pos = (400,700);
}
);
shapes = (
{
closed = 1;
nodes = (
(564,-10,o),
(666,125,o),
(697,214,c),
(618,214,l),
(585,140,o),
(509,60,o),
(387,60,cs),
(251,60,o),
(126,174,o),
(126,350,cs),
(126,526,o),
(251,640,o),
(387,640,cs),
(507,640,o),
(587,571,o),
(620,466,c),
(679,466,l),
(679,685,l),
(624,685,l),
(608,567,l),
(626,580,l),
(593,656,o),
(492,710,o),
(387,710,cs),
(201,710,o),
(50,555,o),
(50,350,cs),
(50,145,o),
(201,-10,o),
(387,-10,cs)
);
}
);
};
layerId = "80E8E332-7B59-4055-8C08-04349B956208";
metricRight = "=O";
shapes = (
{
closed = 1;
nodes = (
(567,-10,o),
(658,107,o),
(695,214,c),
(616,214,l),
(577,122,o),
(497,60,o),
(387,60,cs),
(261,60,o),
(126,164,o),
(126,350,cs),
(126,536,o),
(261,640,o),
(387,640,cs),
(497,640,o),
(587,571,o),
(620,466,c),
(679,466,l),
(679,685,l),
(624,685,l),
(608,567,l),
(626,580,l),
(593,656,o),
(492,710,o),
(387,710,cs),
(201,710,o),
(50,565,o),
(50,350,cs),
(50,135,o),
(201,-10,o),
(387,-10,cs)
);
}
);
width = 745;
},
{
anchors = (
{
name = bottom;
pos = (390,0);
},
{
name = top;
pos = (372,700);
}
);
background = {
shapes = (
{
closed = 1;
nodes = (
(578,-15,o),
(691,127,o),
(704,270,c),
(517,270,l),
(502,214,o),
(463,160,o),
(379,160,cs),
(292,160,o),
(225,232,o),
(225,350,cs),
(225,468,o),
(292,540,o),
(382,540,cs),
(463,540,o),
(506,486,o),
(524,426,c),
(683,426,l),
(683,700,l),
(563,700,l),
(531,522,l),
(604,522,l),
(588,641,o),
(493,715,o),
(359,715,cs),
(173,715,o),
(20,565,o),
(20,350,cs),
(20,135,o),
(173,-15,o),
(373,-15,cs)
);
}
);
};
layerId = "66E383AE-0324-482F-BA05-BB2335E2BE22";
metricRight = "=O+10";
shapes = (
{
closed = 1;
nodes = (
(578,-15,o),
(691,127,o),
(704,270,c),
(517,270,l),
(502,214,o),
(468,160,o),
(379,160,cs),
(287,160,o),
(225,235,o),
(225,350,cs),
(225,465,o),
(287,540,o),
(382,540,cs),
(468,540,o),
(506,486,o),
(524,426,c),
(683,426,l),
(683,700,l),
(563,700,l),
(531,522,l),
(604,522,l),
(588,641,o),
(493,715,o),
(359,715,cs),
(168,715,o),
(20,570,o),
(20,350,cs),
(20,130,o),
(168,-15,o),
(373,-15,cs)
);
}
);
width = 734;
}
);
metricLeft = "=O";
unicode = 67;
},
{
color = 7;
glyphname = D;
kernLeft = H;
kernRight = O;
lastChange = "2026-02-05 15:46:32 +0000";
layers = (
{
anchors = (
{
name = connect;
pos = (173,350);
},
{
name = top;
pos = (370,700);
}
);
background = {
anchors = (
{
name = connect;
pos = (173,350);
},
{
name = top;
pos = (370,700);
}
);
shapes = (
{
closed = 1;
nodes = (
(331,0,ls),
(526,0,o),
(670,148,o),
(670,350,cs),
(670,553,o),
(525,700,o),
(326,700,cs),
(50,700,l),
(50,678,l),
(135,673,l),
(135,27,l),
(50,22,l),
(50,0,l)
);
},
{
closed = 1;
nodes = (
(165,673,l),
(326,673,ls),
(508,673,o),
(638,539,o),
(638,350,cs),
(638,161,o),
(509,27,o),
(326,27,cs),
(165,27,l)
);
}
);
};
color = 0;
layerId = "C7A94C11-E66D-4F8C-9A39-C72274EB09D4";
shapes = (
{
closed = 1;
nodes = (
(324,0,ls),
(541,0,o),
(675,137,o),
(675,350,cs),
(675,563,o),
(541,700,o),
(324,700,cs),
(60,700,l),
(60,678,l),
(145,673,l),
(145,27,l),
(60,22,l),
(60,0,l)
);
},
{
closed = 1;
nodes = (
(175,673,l),
(324,673,ls),
(524,673,o),
(643,549,o),
(643,350,cs),
(643,151,o),
(524,27,o),
(324,27,cs),
(175,27,l)
);
}
);
width = 740;
},
{
anchors = (
{
name = connect;
pos = (173,350);
},
{
name = top;
pos = (370,700);
}
);
background = {
anchors = (
{
name = connect;
pos = (173,350);
},
{
name = top;
pos = (375,700);
}
);
shapes = (
{
closed = 1;
nodes = (
(336,0,ls),
(547,0,o),
(680,160,o),
(680,350,cs),
(680,540,o),
(547,700,o),
(336,700,cs),
(50,700,l),
(50,650,l),
(135,635,l),
(135,65,l),
(50,50,l),
(50,0,l)
);
},
{
closed = 1;
nodes = (
(210,630,l),
(336,630,ls),
(508,630,o),
(604,504,o),
(604,350,cs),
(604,195,o),
(508,70,o),
(336,70,cs),
(210,70,l)
);
}
);
};
layerId = "80E8E332-7B59-4055-8C08-04349B956208";
shapes = (
{
closed = 1;
nodes = (
(346,0,ls),
(557,0,o),
(690,150,o),
(690,350,cs),
(690,550,o),
(557,700,o),
(346,700,cs),
(50,700,l),
(50,650,l),
(135,635,l),
(135,65,l),
(50,50,l),
(50,0,l)
);
},
{
closed = 1;
nodes = (
(210,630,l),
(346,630,ls),
(508,630,o),
(614,514,o),
(614,350,cs),
(614,185,o),
(508,70,o),
(346,70,cs),
(210,70,l)
);
}
);
width = 740;
},
{
anchors = (
{
name = connect;
pos = (200,350);
},
{
name = top;
pos = (377,700);
}
);
background = {
shapes = (
{
closed = 1;
nodes = (
(366,0,ls),
(577,0,o),
(710,160,o),
(710,350,cs),
(710,540,o),
(577,700,o),
(366,700,cs),
(25,700,l),
(25,595,l),
(105,580,l),
(105,120,l),
(25,105,l),
(25,0,l)
);
},
{
closed = 1;
nodes = (
(295,550,l),
(346,550,ls),
(424,550,o),
(505,499,o),
(505,350,cs),
(505,201,o),
(424,150,o),
(346,150,cs),
(295,150,l)
);
}
);
};
layerId = "66E383AE-0324-482F-BA05-BB2335E2BE22";
shapes = (
{
closed = 1;
nodes = (
(381,0,ls),
(592,0,o),
(725,160,o),
(725,350,cs),
(725,540,o),
(592,700,o),
(381,700,cs),
(25,700,l),
(25,595,l),
(105,580,l),
(105,120,l),
(25,105,l),
(25,0,l)
);
},
{
closed = 1;
nodes = (
(295,550,l),
(361,550,ls),
(439,550,o),
(520,499,o),
(520,350,cs),
(520,201,o),
(439,150,o),
(361,150,cs),
(295,150,l)
);
}
);
width = 745;
}
);
metricLeft = "=H";
metricRight = "=O";
unicode = 68;
},
{
color = 7;
glyphname = E;
kernLeft = H;
kernRight = E;
lastChange = "2026-02-05 15:46:32 +0000";
layers = (
{
anchors = (
{
name = ogonek;
pos = (580,0);
},
{
name = top;
pos = (350,700);
}
);
background = {
anchors = (
{
name = ogonek;
pos = (575,0);
},
{
name = top;
pos = (360,700);
}
);
shapes = (
{
closed = 1;
nodes = (
(575,0,l),
(575,152,l),
(553,152,l),
(548,27,l),
(175,27,l),
(175,673,l),
(548,673,l),
(553,548,l),
(575,548,l),
(575,700,l),
(60,700,l),
(60,678,l),
(145,673,l),
(145,27,l),
(60,22,l),
(60,0,l)
);
},
{
closed = 1;
nodes = (
(465,345,l),
(465,372,l),
(159,372,l),
(159,345,l)
);
}
);
};
color = 10;
layerId = "C7A94C11-E66D-4F8C-9A39-C72274EB09D4";
metricRight = "=65";
shapes = (
{
closed = 1;
nodes = (
(580,0,l),
(580,152,l),
(558,152,l),
(553,27,l),
(175,27,l),
(175,673,l),
(553,673,l),
(558,548,l),
(580,548,l),
(580,700,l),
(60,700,l),
(60,678,l),
(145,673,l),
(145,27,l),
(60,22,l),
(60,0,l)
);
},
{
closed = 1;
nodes = (
(460,345,l),
(460,372,l),
(159,372,l),
(159,345,l)
);
}
);
width = 645;
},
{
anchors = (
{
name = ogonek;
pos = (595,0);
},
{
name = top;
pos = (350,700);
}
);
background = {
shapes = (
{
closed = 1;
nodes = (
(575,0,l),
(575,185,l),
(523,185,l),
(508,70,l),
(210,70,l),
(210,630,l),
(508,630,l),
(523,515,l),
(575,515,l),
(575,700,l),
(50,700,l),
(50,650,l),
(135,635,l),
(135,65,l),
(50,50,l),
(50,0,l)
);
},
{
closed = 1;
nodes = (
(465,325,l),
(465,395,l),
(194,395,l),
(194,325,l)
);
}
);
};
layerId = "80E8E332-7B59-4055-8C08-04349B956208";
metricRight = "=55";
shapes = (
{
closed = 1;
nodes = (
(595,0,l),
(595,185,l),
(543,185,l),
(528,70,l),
(210,70,l),
(210,630,l),
(528,630,l),
(543,515,l),
(595,515,l),
(595,700,l),
(50,700,l),
(50,650,l),
(135,635,l),
(135,65,l),
(50,50,l),
(50,0,l)
);
},
{
closed = 1;
nodes = (
(470,325,l),
(470,390,l),
(174,390,l),
(174,325,l)
);
}
);
width = 650;
},
{
anchors = (
{
name = ogonek;
pos = (650,0);
},
{
name = top;
pos = (368,700);
}
);
background = {
shapes = (
{
closed = 1;
nodes = (
(630,0,l),
(630,239,l),
(500,239,l),
(485,140,l),
(295,140,l),
(295,560,l),
(485,560,l),
(500,461,l),
(630,461,l),
(630,700,l),
(25,700,l),
(25,595,l),
(105,580,l),
(105,120,l),
(25,105,l),
(25,0,l)
);
},
{
closed = 1;
nodes = (
(450,285,l),
(450,425,l),
(269,425,l),
(269,285,l)
);
}
);
};
layerId = "66E383AE-0324-482F-BA05-BB2335E2BE22";
metricRight = "=55";
shapes = (
{
closed = 1;
nodes = (
(650,0,l),
(650,239,l),
(520,239,l),
(505,140,l),
(295,140,l),
(295,560,l),
(505,560,l),
(520,461,l),
(650,461,l),
(650,700,l),
(25,700,l),
(25,595,l),
(105,580,l),
(105,120,l),
(25,105,l),
(25,0,l)
);
},
{
closed = 1;
nodes = (
(470,285,l),
(470,425,l),
(199,425,l),
(199,285,l)
);
}
);
width = 705;
}
);
metricLeft = "=H";
unicode = 69;
},
{
color = 7;
glyphname = F;
kernLeft = H;
kernRight = F;
lastChange = "2026-02-05 15:46:32 +0000";
layers = (
{
background = {
shapes = (
{
closed = 1;
nodes = (
(269,0,l),
(269,22,l),
(175,27,l),
(175,673,l),
(543,673,l),
(548,548,l),
(570,548,l),
(570,700,l),
(60,700,l),
(60,678,l),
(145,673,l),
(145,27,l),
(60,22,l),
(60,0,l)
);
},
{
closed = 1;
nodes = (
(470,327,l),
(470,354,l),
(154,354,l),
(154,327,l)
);
}
);
};
color = 10;
layerId = "C7A94C11-E66D-4F8C-9A39-C72274EB09D4";
metricRight = "=E-15";
shapes = (
{
closed = 1;
nodes = (
(269,0,l),
(269,22,l),
(175,27,l),
(175,673,l),
(548,673,l),
(553,548,l),
(575,548,l),
(575,700,l),
(60,700,l),
(60,678,l),
(145,673,l),
(145,27,l),
(60,22,l),
(60,0,l)
);
},
{
closed = 1;
nodes = (
(465,311,l),
(465,338,l),
(159,338,l),
(159,311,l)
);
}
);
width = 625;
},
{
background = {
shapes = (
{
closed = 1;
nodes = (
(304,0,l),
(304,50,l),
(210,65,l),
(210,630,l),
(503,630,l),
(518,515,l),
(570,515,l),
(570,700,l),
(50,700,l),
(50,650,l),
(135,635,l),
(135,65,l),
(50,50,l),
(50,0,l)
);
},
{
closed = 1;
nodes = (
(470,305,l),
(470,375,l),
(194,375,l),
(194,305,l)
);
}
);
};
layerId = "80E8E332-7B59-4055-8C08-04349B956208";
metricRight = "=E-20";
shapes = (
{
closed = 1;
nodes = (
(304,0,l),
(304,50,l),
(210,65,l),
(210,630,l),
(518,630,l),
(533,515,l),
(585,515,l),
(585,700,l),
(50,700,l),
(50,650,l),
(135,635,l),
(135,65,l),
(50,50,l),
(50,0,l)
);
},
{
closed = 1;
nodes = (
(460,295,l),
(460,360,l),
(174,360,l),
(174,295,l)
);
}
);
width = 620;
},
{
background = {
shapes = (
{
closed = 1;
nodes = (
(391,0,l),
(391,105,l),
(295,120,l),
(295,560,l),
(475,560,l),
(490,450,l),
(620,450,l),
(620,700,l),
(25,700,l),
(25,595,l),
(105,580,l),
(105,120,l),
(25,105,l),
(25,0,l)
);
},
{
closed = 1;
nodes = (
(450,255,l),
(450,395,l),
(269,395,l),
(269,255,l)
);
}
);
};
layerId = "66E383AE-0324-482F-BA05-BB2335E2BE22";
metricRight = "=E-20";
shapes = (
{
closed = 1;
nodes = (
(391,0,l),
(391,105,l),
(295,120,l),
(295,560,l),
(495,560,l),
(510,450,l),
(640,450,l),
(640,700,l),
(25,700,l),
(25,595,l),
(105,580,l),
(105,120,l),
(25,105,l),
(25,0,l)
);
},
{
closed = 1;
nodes = (
(470,255,l),
(470,395,l),
(199,395,l),
(199,255,l)
);
}
);
width = 675;
}
);
metricLeft = "=H";
unicode = 70;
},
{
color = 7;
glyphname = G;
kernLeft = O;
kernRight = G;
lastChange = "2026-02-05 15:46:32 +0000";
layers = (
{
anchors = (
{
name = bottom;
pos = (430,0);
},
{
name = top;
pos = (405,700);
}
);
background = {
anchors = (
{
name = bottom;
pos = (410,0);
},
{
name = top;
pos = (405,700);
}
);
shapes = (
{
closed = 1;
nodes = (
(561,-10,o),
(666,109,o),
(699,233,c),
(687,238,l),
(692,0,l),
(715,0,l),
(715,320,l),
(467,320,l),
(467,293,l),
(701,293,l),
(690,306,l),
(661,128,o),
(537,18,o),
(393,18,cs),
(241,18,o),
(97,145,o),
(97,350,cs),
(97,555,o),
(241,682,o),
(393,682,cs),
(527,682,o),
(639,585,o),
(666,466,c),
(686,466,l),
(686,685,l),
(663,685,l),
(658,545,l),
(662,551,l),
(607,649,o),
(510,710,o),
(393,710,cs),
(207,710,o),
(65,555,o),
(65,350,cs),
(65,145,o),
(207,-10,o),
(393,-10,cs)
);
}
);
};
color = 10;
layerId = "C7A94C11-E66D-4F8C-9A39-C72274EB09D4";
metricRight = "=C+10";
shapes = (
{
closed = 1;
nodes = (
(561,-10,o),
(666,109,o),
(699,233,c),
(687,238,l),
(692,0,l),
(715,0,l),
(715,320,l),
(467,320,l),
(467,293,l),
(701,293,l),
(690,306,l),
(661,128,o),
(537,18,o),
(393,18,cs),
(241,18,o),
(97,145,o),
(97,350,cs),
(97,555,o),
(241,682,o),
(393,682,cs),
(527,682,o),
(639,585,o),
(666,466,c),
(686,466,l),
(686,685,l),
(663,685,l),
(658,545,l),
(662,551,l),
(607,649,o),
(510,710,o),
(393,710,cs),
(207,710,o),
(65,555,o),
(65,350,cs),
(65,145,o),
(207,-10,o),
(393,-10,cs)
);
}
);
width = 790;
},
{
anchors = (
{
name = bottom;
pos = (415,0);
},
{
name = top;
pos = (400,700);
}
);
background = {
anchors = (
{
name = bottom;
pos = (405,0);
},
{
name = top;
pos = (400,700);
}
);
shapes = (
{
closed = 1;
nodes = (
(500,-10,o),
(609,53,o),
(652,152,c),
(637,164,l),
(647,0,l),
(706,0,l),
(706,330,l),
(436,330,l),
(436,255,l),
(669,255,l),
(634,276,l),
(602,144,o),
(526,60,o),
(390,60,cs),
(251,60,o),
(126,174,o),
(126,350,cs),
(126,526,o),
(251,640,o),
(390,640,cs),
(502,640,o),
(582,571,o),
(615,466,c),
(674,466,l),
(674,685,l),
(619,685,l),
(603,567,l),
(621,580,l),
(588,656,o),
(487,710,o),
(390,710,cs),
(201,710,o),
(50,555,o),
(50,350,cs),
(50,145,o),
(201,-10,o),
(390,-10,cs)
);
}
);
};
layerId = "80E8E332-7B59-4055-8C08-04349B956208";
metricRight = "=C+15";
shapes = (
{
closed = 1;
nodes = (
(506,-10,o),
(609,53,o),
(652,152,c),
(637,164,l),
(647,0,l),
(706,0,l),
(706,330,l),
(436,330,l),
(436,255,l),
(669,255,l),
(634,276,l),
(602,144,o),
(516,60,o),
(390,60,cs),
(261,60,o),
(126,164,o),
(126,350,cs),
(126,536,o),
(261,640,o),
(390,640,cs),
(502,640,o),
(582,571,o),
(615,466,c),
(674,466,l),
(674,685,l),
(619,685,l),
(603,567,l),
(621,580,l),
(588,656,o),
(487,710,o),
(390,710,cs),
(201,710,o),
(50,565,o),
(50,350,cs),
(50,135,o),
(197,-10,o),
(386,-10,cs)
);
}
);
width = 771;
},
{
anchors = (
{
name = bottom;
pos = (405,0);
},
{
name = top;
pos = (380,700);
}
);
background = {
shapes = (
{
closed = 1;
nodes = (
(534,-15,o),
(637,107,o),
(637,232,c),
(581,164,l),
(607,0,l),
(717,0,l),
(717,389,l),
(346,389,l),
(346,254,l),
(604,254,l),
(517,312,l),
(509,205,o),
(453,160,o),
(379,160,cs),
(292,160,o),
(225,232,o),
(225,350,cs),
(225,468,o),
(292,540,o),
(382,540,cs),
(463,540,o),
(500,490,o),
(520,436,c),
(683,436,l),
(683,700,l),
(563,700,l),
(531,522,l),
(599,522,l),
(582,637,o),
(493,715,o),
(359,715,cs),
(173,715,o),
(20,565,o),
(20,350,cs),
(20,135,o),
(173,-15,o),
(362,-15,cs)
);
}
);
};
layerId = "66E383AE-0324-482F-BA05-BB2335E2BE22";
metricRight = "=C+15";
shapes = (
{
closed = 1;
nodes = (
(534,-15,o),
(637,107,o),
(637,232,c),
(581,164,l),
(607,0,l),
(717,0,l),
(717,379,l),
(346,379,l),
(346,254,l),
(604,254,l),
(517,312,l),
(509,205,o),
(453,160,o),
(379,160,cs),
(295,160,o),
(225,227,o),
(225,350,cs),
(225,473,o),
(295,540,o),
(382,540,cs),
(463,540,o),
(500,490,o),
(520,446,c),
(683,446,l),
(683,700,l),
(563,700,l),
(531,522,l),
(599,522,l),
(582,637,o),
(493,715,o),
(359,715,cs),
(168,715,o),
(20,570,o),
(20,350,cs),
(20,130,o),
(168,-15,o),
(362,-15,cs)
);
}
);
width = 762;
}
);
metricLeft = "=O";
note = "Толщина засечки отл от С";
unicode = 71;
},
{
color = 10;
glyphname = H;
kernLeft = H;
kernRight = H;
lastChange = "2026-02-05 15:46:32 +0000";
layers = (
{
anchors = (
{
name = bottom;
pos = (385,0);
},
{
name = connect;
pos = (385,525);
},
{
name = top;
pos = (385,700);
}
);
background = {
anchors = (
{
name = bottom;
pos = (385,0);
},
{
name = connect;
pos = (385,525);
},
{
name = top;
pos = (385,700);
}
);
shapes = (
{
closed = 1;
nodes = (
(710,0,l),
(710,22,l),
(625,27,l),
(625,673,l),
(710,678,l),
(710,700,l),
(510,700,l),
(510,678,l),
(595,673,l),
(595,27,l),
(510,22,l),
(510,0,l)
);
},
{
closed = 1;
nodes = (
(260,0,l),
(260,22,l),
(175,27,l),
(175,673,l),
(260,678,l),
(260,700,l),
(60,700,l),
(60,678,l),
(145,673,l),
(145,27,l),
(60,22,l),
(60,0,l)
);
},
{
closed = 1;
nodes = (
(611,341,l),
(611,368,l),
(159,368,l),
(159,341,l)
);
}
);
};
color = 10;
layerId = "C7A94C11-E66D-4F8C-9A39-C72274EB09D4";
metricLeft = "=@100+145";
shapes = (
{
closed = 1;
nodes = (
(715,0,l),
(715,22,l),
(630,27,l),
(630,673,l),
(715,678,l),
(715,700,l),
(515,700,l),
(515,678,l),
(600,673,l),
(600,27,l),
(515,22,l),
(515,0,l)
);
},
{
closed = 1;
nodes = (
(260,0,l),
(260,22,l),
(175,27,l),
(175,673,l),
(260,678,l),
(260,700,l),
(60,700,l),
(60,678,l),
(145,673,l),
(145,27,l),
(60,22,l),
(60,0,l)
);
},
{
closed = 1;
nodes = (
(616,341,l),
(616,368,l),
(159,368,l),
(159,341,l)
);
}
);
width = 775;
},
{
anchors = (
{
name = bottom;
pos = (388,0);
},
{
name = connect;
pos = (388,525);
},
{
name = top;
pos = (388,700);
}
);
background = {
anchors = (
{
name = bottom;
pos = (388,0);
},
{
name = connect;
pos = (388,525);
},
{
name = top;
pos = (388,700);
}
);
shapes = (
{
closed = 1;
nodes = (
(725,0,l),
(725,50,l),
(640,65,l),
(640,635,l),
(725,650,l),
(725,700,l),
(480,700,l),
(480,650,l),
(565,635,l),
(565,65,l),
(480,50,l),
(480,0,l)
);
},
{
closed = 1;
nodes = (
(295,0,l),
(295,50,l),
(210,65,l),
(210,635,l),
(295,650,l),
(295,700,l),
(50,700,l),
(50,650,l),
(135,635,l),
(135,65,l),
(50,50,l),
(50,0,l)
);
},
{
closed = 1;
nodes = (
(611,330,l),
(611,390,l),
(174,390,l),
(174,330,l)
);
}
);
};
layerId = "80E8E332-7B59-4055-8C08-04349B956208";
metricLeft = "=@100+135";
shapes = (
{
closed = 1;
nodes = (
(725,0,l),
(725,50,l),
(640,65,l),
(640,635,l),
(725,650,l),
(725,700,l),
(480,700,l),
(480,650,l),
(565,635,l),
(565,65,l),
(480,50,l),
(480,0,l)
);
},
{
closed = 1;
nodes = (
(295,0,l),
(295,50,l),
(210,65,l),
(210,635,l),
(295,650,l),
(295,700,l),
(50,700,l),
(50,650,l),
(135,635,l),
(135,65,l),
(50,50,l),
(50,0,l)
);
},
{
closed = 1;
nodes = (
(611,330,l),
(611,390,l),
(174,390,l),
(174,330,l)
);
}
);
width = 775;
},
{
anchors = (
{
name = bottom;
pos = (398,0);
},
{
name = connect;
pos = (398,510);
},
{
name = top;
pos = (398,700);
}
);
background = {
anchors = (
{
name = bottom;
pos = (398,0);
},
{
name = connect;
pos = (398,510);
},
{
name = top;
pos = (398,700);
}
);
shapes = (
{
closed = 1;
nodes = (
(770,0,l),
(770,105,l),
(690,120,l),
(690,580,l),
(770,595,l),
(770,700,l),
(430,700,l),
(430,595,l),
(500,580,l),
(500,120,l),
(430,105,l),
(430,0,l)
);
},
{
closed = 1;
nodes = (
(365,0,l),
(365,105,l),
(295,120,l),
(295,580,l),
(365,595,l),
(365,700,l),
(25,700,l),
(25,595,l),
(105,580,l),
(105,120,l),
(25,105,l),
(25,0,l)
);
},
{
closed = 1;
nodes = (
(590,290,l),
(590,425,l),
(205,425,l),
(205,290,l)
);
}
);
};
layerId = "66E383AE-0324-482F-BA05-BB2335E2BE22";
metricLeft = "=@100+25";
shapes = (
{
closed = 1;
nodes = (
(770,0,l),
(770,105,l),
(690,120,l),
(690,580,l),
(770,595,l),
(770,700,l),
(430,700,l),
(430,595,l),
(500,580,l),
(500,120,l),
(430,105,l),
(430,0,l)
);
},
{
closed = 1;
nodes = (
(365,0,l),
(365,105,l),
(295,120,l),
(295,580,l),
(365,595,l),
(365,700,l),
(25,700,l),
(25,595,l),
(105,580,l),
(105,120,l),
(25,105,l),
(25,0,l)
);
},
{
closed = 1;
nodes = (
(590,290,l),
(590,425,l),
(205,425,l),
(205,290,l)
);
}
);
width = 795;
}
);
metricRight = "=|";
unicode = 72;
},
{
color = 7;
glyphname = I;
kernLeft = H;
kernRight = H;
lastChange = "2026-02-05 15:46:32 +0000";
layers = (
{
anchors = (
{
name = bottom;
pos = (165,0);
},
{
name = ogonek;
pos = (180,0);
},
{
name = top;
pos = (165,700);
}
);
background = {
anchors = (
{
name = bottom;
pos = (165,0);
},
{
name = ogonek;
pos = (180,0);
},
{
name = top;
pos = (165,700);
}
);
shapes = (
{
closed = 1;
nodes = (
(265,0,l),
(265,22,l),
(180,27,l),
(180,673,l),
(265,678,l),
(265,700,l),
(65,700,l),
(65,678,l),
(150,673,l),
(150,27,l),
(65,22,l),
(65,0,l)
);
}
);
};
color = 0;
layerId = "C7A94C11-E66D-4F8C-9A39-C72274EB09D4";
shapes = (
{
closed = 1;
nodes = (
(265,0,l),
(265,22,l),
(180,27,l),
(180,673,l),
(265,678,l),
(265,700,l),
(65,700,l),
(65,678,l),
(150,673,l),
(150,27,l),
(65,22,l),
(65,0,l)
);
}
);
width = 330;
},
{
anchors = (
{
name = bottom;
pos = (178,0);
},
{
name = ogonek;
pos = (215,0);
},
{
name = top;
pos = (178,700);
}
);
background = {
anchors = (
{
name = bottom;
pos = (178,0);
},
{
name = ogonek;
pos = (215,0);
},
{
name = top;
pos = (178,700);
}
);
shapes = (
{
closed = 1;
nodes = (
(300,0,l),
(300,50,l),
(215,65,l),
(215,635,l),
(300,650,l),
(300,700,l),
(55,700,l),
(55,650,l),
(140,635,l),
(140,65,l),
(55,50,l),
(55,0,l)
);
}
);
};
layerId = "80E8E332-7B59-4055-8C08-04349B956208";
shapes = (
{
closed = 1;
nodes = (
(300,0,l),
(300,50,l),
(215,65,l),
(215,635,l),
(300,650,l),
(300,700,l),
(55,700,l),
(55,650,l),
(140,635,l),
(140,65,l),
(55,50,l),
(55,0,l)
);
}
);
width = 355;
},
{
anchors = (
{
name = bottom;
pos = (200,0);
},
{
name = ogonek;
pos = (270,0);
},
{
name = top;
pos = (205,700);
}
);
background = {
shapes = (
{
closed = 1;
nodes = (
(380,0,l),
(380,105,l),
(300,120,l),
(300,580,l),
(380,595,l),
(380,700,l),
(30,700,l),
(30,595,l),
(110,580,l),
(110,120,l),
(30,105,l),
(30,0,l)
);
}
);
};
guides = (
{
pos = (205,308);
showMeasurement = 1;
}
);
layerId = "66E383AE-0324-482F-BA05-BB2335E2BE22";
shapes = (
{
closed = 1;
nodes = (
(380,0,l),
(380,105,l),
(300,120,l),
(300,580,l),
(380,595,l),
(380,700,l),
(30,700,l),
(30,595,l),
(110,580,l),
(110,120,l),
(30,105,l),
(30,0,l)
);
}
);
width = 410;
}
);
metricLeft = "=H+5";
metricRight = "=|";
unicode = 73;
},
{
color = 10;
glyphname = J;
kernLeft = J;
kernRight = J;
lastChange = "2026-02-06 15:29:08 +0000";
layers = (
{
anchors = (
{
name = bottom;
pos = (151,0);
},
{
name = top;
pos = (220,700);
}
);
background = {
anchors = (
{
name = bottom;
pos = (151,0);
},
{
name = top;
pos = (226,700);
}
);
shapes = (
{
closed = 1;
nodes = (
(257,-10,o),
(333,77,o),
(333,222,cs),
(333,673,l),
(418,678,l),
(418,700,l),
(33,700,l),
(33,673,l),
(303,673,l),
(303,222,ls),
(303,80,o),
(224,18,o),
(116,18,cs),
(-2,18,o),
(-66,93,o),
(-70,205,c),
(-100,205,l),
(-97,82,o),
(-24,-10,o),
(116,-10,cs)
);
}
);
};
color = 10;
layerId = "C7A94C11-E66D-4F8C-9A39-C72274EB09D4";
metricLeft = "=H@200+60";
metricRight = "=H@200-60";
shapes = (
{
closed = 1;
nodes = (
(193,-5,o),
(235,42,o),
(235,152,cs),
(235,700,l),
(95,700,l),
(95,678,l),
(205,673,l),
(205,161,ls),
(205,57,o),
(173,22,o),
(87,22,cs),
(22,22,l),
(22,0,l),
(34,-3,o),
(50,-5,o),
(87,-5,cs)
);
}
);
width = 320;
},
{
anchors = (
{
name = bottom;
pos = (170,0);
},
{
name = top;
pos = (253,700);
}
);
layerId = "80E8E332-7B59-4055-8C08-04349B956208";
metricLeft = "=H@200+80";
metricRight = "=H@200-60";
shapes = (
{
closed = 1;
nodes = (
(228,-5,o),
(290,51,o),
(290,184,cs),
(290,700,l),
(100,700,l),
(100,650,l),
(215,630,l),
(215,215,ls),
(215,111,o),
(187,72,o),
(93,72,cs),
(22,72,l),
(22,3,l),
(52,-2,o),
(84,-5,o),
(111,-5,cs)
);
}
);
width = 365;
},
{
anchors = (
{
name = bottom;
pos = (196,0);
},
{
name = top;
pos = (257,700);
}
);
background = {
shapes = (
{
closed = 1;
nodes = (
(326,-15,o),
(434,96,o),
(434,285,cs),
(434,580,l),
(514,595,l),
(514,700,l),
(-1,700,l),
(-1,550,l),
(244,550,l),
(244,270,ls),
(244,195,o),
(220,155,o),
(159,155,cs),
(98,155,o),
(74,195,o),
(74,270,c),
(-116,270,l),
(-111,96,o),
(-8,-15,o),
(159,-15,cs)
);
}
);
};
layerId = "66E383AE-0324-482F-BA05-BB2335E2BE22";
metricLeft = "=H@200+65";
metricRight = "=H@200-60";
shapes = (
{
closed = 1;
nodes = (
(291,-10,o),
(369,67,o),
(369,215,cs),
(369,700,l),
(89,700,l),
(89,585,l),
(179,560,l),
(179,245,ls),
(179,189,o),
(156,165,o),
(77,165,cs),
(27,165,l),
(27,3,l),
(53,-6,o),
(85,-10,o),
(140,-10,cs)
);
}
);
width = 414;
}
);
note = "Квадратит, дуга 28";
unicode = 74;
},
{
color = 7;
glyphname = K;
kernLeft = H;
kernRight = K;
lastChange = "2026-02-05 15:46:32 +0000";
layers = (
{
anchors = (
{
name = bottom;
pos = (385,0);
},
{
name = top;
pos = (349,700);
}
);
background = {
anchors = (
{
name = bottom;
pos = (339,0);
},
{
name = top;
pos = (339,700);
}
);
shapes = (
{
closed = 1;
nodes = (
(646,0,l),
(646,22,l),
(536,27,l),
(580,15,l),
(299,377,l),
(296,357,l),
(561,685,l),
(519,673,l),
(624,678,l),
(624,700,l),
(437,700,l),
(437,678,l),
(549,673,l),
(527,685,l),
(270,367,l),
(287,379,l),
(132,379,l),
(132,352,l),
(295,352,l),
(272,363,l),
(543,13,l),
(566,27,l),
(453,22,l),
(453,0,l)
);
},
{
closed = 1;
nodes = (
(231,0,l),
(231,22,l),
(146,27,l),
(146,673,l),
(231,678,l),
(231,700,l),
(31,700,l),
(31,678,l),
(116,673,l),
(116,27,l),
(31,22,l),
(31,0,l)
);
}
);
};
color = 10;
layerId = "C7A94C11-E66D-4F8C-9A39-C72274EB09D4";
metricRight = "=20";
shapes = (
{
closed = 1;
nodes = (
(581,673,l),
(665,678,l),
(665,700,l),
(455,700,l),
(455,678,l),
(541,673,l),
(161,316,l),
(161,279,l)
);
},
{
closed = 1;
nodes = (
(260,0,l),
(260,22,l),
(175,27,l),
(175,673,l),
(260,678,l),
(260,700,l),
(60,700,l),
(60,678,l),
(145,673,l),
(145,27,l),
(60,22,l),
(60,0,l)
);
},
{
closed = 1;
nodes = (
(695,0,l),
(695,22,l),
(615,27,l),
(304,430,l),
(283,411,l),
(579,27,l),
(490,22,l),
(490,0,l)
);
}
);
width = 715;
},
{
anchors = (
{
name = bottom;
pos = (380,0);
},
{
name = top;
pos = (367,700);
}
);
background = {
shapes = (
{
closed = 1;
nodes = (
(578,658,l),
(542,632,l),
(628,650,l),
(628,700,l),
(415,700,l),
(415,650,l),
(502,632,l),
(499,665,l),
(194,330,l),
(194,246,l)
);
},
{
closed = 1;
nodes = (
(295,0,l),
(295,50,l),
(210,65,l),
(210,635,l),
(295,650,l),
(295,700,l),
(50,700,l),
(50,650,l),
(135,635,l),
(135,65,l),
(50,50,l),
(50,0,l)
);
},
{
closed = 1;
nodes = (
(632,-10,o),
(644,-10,o),
(654,0,c),
(654,65,l),
(637,65,ls),
(472,65,o),
(588,362,o),
(360,426,c),
(300,383,l),
(532,311,o),
(404,-10,o),
(611,-10,cs)
);
}
);
};
guides = (
{
angle = 117.5408;
pos = (525,215);
},
{
angle = -62.3279;
pos = (462,174);
}
);
layerId = "80E8E332-7B59-4055-8C08-04349B956208";
metricRight = "=15";
shapes = (
{
closed = 1;
nodes = (
(595,635,l),
(668,650,l),
(668,700,l),
(455,700,l),
(455,650,l),
(509,639,l),
(194,348,l),
(194,266,l)
);
},
{
closed = 1;
nodes = (
(295,0,l),
(295,50,l),
(210,65,l),
(210,635,l),
(295,650,l),
(295,700,l),
(50,700,l),
(50,650,l),
(135,635,l),
(135,65,l),
(50,50,l),
(50,0,l)
);
},
{
closed = 1;
nodes = (
(705,0,l),
(705,50,l),
(629,64,l),
(346,454,l),
(293,404,l),
(537,66,l),
(463,50,l),
(463,0,l)
);
}
);
width = 720;
},
{
anchors = (
{
name = bottom;
pos = (393,0);
},
{
name = top;
pos = (393,700);
}
);
background = {
shapes = (
{
closed = 1;
nodes = (
(762,0,l),
(762,105,l),
(641,135,l),
(707,105,l),
(484,398,l),
(484,344,l),
(688,596,l),
(632,568,l),
(734,595,l),
(734,700,l),
(410,700,l),
(410,595,l),
(503,571,l),
(484,596,l),
(352,419,l),
(387,440,l),
(224,440,l),
(224,285,l),
(387,285,l),
(353,303,l),
(490,105,l),
(520,128,l),
(415,105,l),
(415,0,l)
);
},
{
closed = 1;
nodes = (
(358,0,l),
(358,105,l),
(295,120,l),
(295,580,l),
(358,595,l),
(358,700,l),
(25,700,l),
(25,595,l),
(105,580,l),
(105,120,l),
(25,105,l),
(25,0,l)
);
}
);
};
guides = (
{
angle = 41.2442;
pos = (484,579);
},
{
angle = -55.1591;
pos = (687,122);
}
);
layerId = "66E383AE-0324-482F-BA05-BB2335E2BE22";
metricRight = "=10";
shapes = (
{
closed = 1;
nodes = (
(687,579,l),
(747,595,l),
(747,700,l),
(428,700,l),
(428,595,l),
(484,579,l),
(200,329,l),
(200,157,l)
);
},
{
closed = 1;
nodes = (
(358,0,l),
(358,105,l),
(295,120,l),
(295,580,l),
(358,595,l),
(358,700,l),
(25,700,l),
(25,595,l),
(105,580,l),
(105,120,l),
(25,105,l),
(25,0,l)
);
},
{
closed = 1;
nodes = (
(760,0,l),
(760,105,l),
(687,120,l),
(449,464,l),
(328,357,l),
(490,120,l),
(430,105,l),
(430,0,l)
);
}
);
width = 770;
}
);
metricLeft = "=H";
unicode = 75;
},
{
color = 7;
glyphname = L;
kernLeft = H;
kernRight = L;
lastChange = "2026-02-05 15:46:32 +0000";
layers = (
{
anchors = (
{
name = bottom;
pos = (330,0);
},
{
name = dot;
pos = (467,370);
},
{
name = slash;
pos = (160,305);
},
{
name = top;
pos = (160,700);
},
{
name = topright;
pos = (220,700);
}
);
background = {
anchors = (
{
name = bottom;
pos = (330,0);
},
{
name = dot;
pos = (457,370);
},
{
name = slash;
pos = (160,305);
},
{
name = top;
pos = (160,700);
},
{
name = topright;
pos = (260,700);
}
);
shapes = (
{
closed = 1;
nodes = (
(560,0,l),
(560,152,l),
(538,152,l),
(533,27,l),
(175,27,l),
(175,673,l),
(260,678,l),
(260,700,l),
(60,700,l),
(60,678,l),
(145,673,l),
(145,27,l),
(60,22,l),
(60,0,l)
);
}
);
};
color = 10;
layerId = "C7A94C11-E66D-4F8C-9A39-C72274EB09D4";
metricRight = "=45";
shapes = (
{
closed = 1;
nodes = (
(570,0,l),
(570,152,l),
(548,152,l),
(543,27,l),
(175,27,l),
(175,673,l),
(260,678,l),
(260,700,l),
(60,700,l),
(60,678,l),
(145,673,l),
(145,27,l),
(60,22,l),
(60,0,l)
);
}
);
width = 615;
},
{
anchors = (
{
name = bottom;
pos = (328,0);
},
{
name = dot;
pos = (475,370);
},
{
name = slash;
pos = (173,325);
},
{
name = top;
pos = (173,700);
},
{
name = topright;
pos = (274,700);
}
);
background = {
shapes = (
{
closed = 1;
nodes = (
(565,0,l),
(565,185,l),
(513,185,l),
(498,70,l),
(210,70,l),
(210,635,l),
(304,650,l),
(304,700,l),
(50,700,l),
(50,650,l),
(135,635,l),
(135,65,l),
(50,50,l),
(50,0,l)
);
}
);
};
layerId = "80E8E332-7B59-4055-8C08-04349B956208";
metricRight = "=30";
shapes = (
{
closed = 1;
nodes = (
(575,0,l),
(575,185,l),
(523,185,l),
(508,70,l),
(210,70,l),
(210,635,l),
(304,650,l),
(304,700,l),
(50,700,l),
(50,650,l),
(135,635,l),
(135,65,l),
(50,50,l),
(50,0,l)
);
}
);
width = 605;
},
{
anchors = (
{
name = bottom;
pos = (325,0);
},
{
name = dot;
pos = (521,430);
},
{
name = slash;
pos = (200,347);
},
{
name = top;
pos = (200,700);
},
{
name = topright;
pos = (370,680);
}
);
background = {
shapes = (
{
closed = 1;
nodes = (
(605,0,l),
(605,272,l),
(475,272,l),
(460,140,l),
(295,140,l),
(295,580,l),
(383,595,l),
(383,700,l),
(25,700,l),
(25,595,l),
(105,580,l),
(105,120,l),
(25,105,l),
(25,0,l)
);
}
);
};
layerId = "66E383AE-0324-482F-BA05-BB2335E2BE22";
metricRight = "=25";
shapes = (
{
closed = 1;
nodes = (
(620,0,l),
(620,272,l),
(490,272,l),
(475,140,l),
(295,140,l),
(295,580,l),
(383,595,l),
(383,700,l),
(25,700,l),
(25,595,l),
(105,580,l),
(105,120,l),
(25,105,l),
(25,0,l)
);
}
);
width = 645;
}
);
metricLeft = "=H";
unicode = 76;
},
{
color = 7;
glyphname = M;
kernLeft = H;
kernRight = H;
lastChange = "2026-02-05 15:46:32 +0000";
layers = (
{
anchors = (
{
name = top;
pos = (490,700);
}
);
background = {
anchors = (
{
name = top;
pos = (489,700);
}
);
shapes = (
{
closed = 1;
nodes = (
(268,0,l),
(268,22,l),
(183,27,l),
(183,653,l),
(177,644,l),
(474,50,l),
(501,50,l),
(795,644,l),
(792,653,l),
(792,27,l),
(707,22,l),
(707,0,l),
(907,0,l),
(907,22,l),
(822,27,l),
(822,673,l),
(907,678,l),
(907,700,l),
(793,700,l),
(483,74,l),
(496,74,l),
(182,700,l),
(70,700,l),
(70,678,l),
(155,673,l),
(155,27,l),
(70,22,l),
(70,0,l)
);
}
);
};
color = 0;
guides = (
{
angle = 90;
pos = (222,592);
}
);
layerId = "C7A94C11-E66D-4F8C-9A39-C72274EB09D4";
shapes = (
{
closed = 1;
nodes = (
(260,0,l),
(260,22,l),
(175,27,l),
(175,653,l),
(180,653,l),
(476,50,l),
(504,50,l),
(800,653,l),
(805,653,l),
(805,27,l),
(720,22,l),
(720,0,l),
(920,0,l),
(920,22,l),
(835,27,l),
(835,673,l),
(920,678,l),
(920,700,l),
(793,700,l),
(493,90,l),
(488,90,l),
(188,700,l),
(60,700,l),
(60,678,l),
(145,673,l),
(145,27,l),
(60,22,l),
(60,0,l)
);
}
);
width = 980;
},
{
anchors = (
{
name = top;
pos = (488,700);
}
);
background = {
shapes = (
{
closed = 1;
nodes = (
(300,0,l),
(300,50,l),
(215,65,l),
(215,653,l),
(189,644,l),
(446,50,l),
(514,50,l),
(770,644,l),
(745,653,l),
(745,65,l),
(660,50,l),
(660,0,l),
(905,0,l),
(905,50,l),
(820,65,l),
(820,635,l),
(905,650,l),
(905,700,l),
(716,700,l),
(468,123,l),
(496,123,l),
(247,700,l),
(60,700,l),
(60,650,l),
(145,635,l),
(145,65,l),
(60,50,l),
(60,0,l)
);
}
);
};
guides = (
{
angle = 90;
pos = (210,592);
}
);
layerId = "80E8E332-7B59-4055-8C08-04349B956208";
shapes = (
{
closed = 1;
nodes = (
(290,0,l),
(290,50,l),
(205,65,l),
(205,585,l),
(215,585,l),
(442,50,l),
(518,50,l),
(745,585,l),
(755,585,l),
(755,65,l),
(670,50,l),
(670,0,l),
(915,0,l),
(915,50,l),
(830,65,l),
(830,635,l),
(915,650,l),
(915,700,l),
(721,700,l),
(486,144,l),
(476,144,l),
(241,700,l),
(50,700,l),
(50,650,l),
(135,635,l),
(135,65,l),
(50,50,l),
(50,0,l)
);
}
);
width = 965;
},
{
anchors = (
{
name = top;
pos = (488,700);
}
);
background = {
shapes = (
{
closed = 1;
nodes = (
(329,0,l),
(329,105,l),
(265,120,l),
(265,512,l),
(229,512,l),
(416,65,l),
(539,65,l),
(726,512,l),
(690,512,l),
(690,120,l),
(626,105,l),
(626,0,l),
(940,0,l),
(940,105,l),
(860,120,l),
(860,580,l),
(940,595,l),
(940,700,l),
(642,700,l),
(430,178,l),
(529,178,l),
(317,700,l),
(25,700,l),
(25,595,l),
(105,580,l),
(105,120,l),
(25,105,l),
(25,0,l)
);
}
);
};
guides = (
{
angle = 248.2107;
pos = (711,512);
},
{
angle = 248.2107;
pos = (631,700);
}
);
layerId = "66E383AE-0324-482F-BA05-BB2335E2BE22";
shapes = (
{
closed = 1;
nodes = (
(329,0,l),
(329,105,l),
(265,120,l),
(265,426,l),
(275,426,l),
(416,65,l),
(549,65,l),
(690,426,l),
(700,426,l),
(700,120,l),
(636,105,l),
(636,0,l),
(950,0,l),
(950,105,l),
(870,120,l),
(870,580,l),
(950,595,l),
(950,700,l),
(642,700,l),
(490,300,l),
(480,300,l),
(327,700,l),
(25,700,l),
(25,595,l),
(105,580,l),
(105,120,l),
(25,105,l),
(25,0,l)
);
}
);
width = 975;
}
);
metricLeft = "=H";
metricRight = "=|";
unicode = 77;
},
